<svg xmlns="http://www.w3.org/2000/svg" viewBox="0 0 500 500"><g id="freepik--Floor--inject-6"><ellipse id="freepik--floor--inject-6" cx="249.04" cy="349.34" rx="234.63" ry="135.46" style="fill:#f5f5f5"></ellipse></g><g id="freepik--Shadows--inject-6"><path id="freepik--Shadow--inject-6" d="M76.64,301.23l1.49-.28c6.39-1.18,15.32-4.69,19.94-7.84s13.63-5.44,20.13-5.13l2.27.1a82.93,82.93,0,0,0,23-2.79l.44-.13c6.23-1.85,16.34-1.85,22.57,0l.44.13a82.93,82.93,0,0,0,23,2.79l2.27-.11c6.5-.3,15.51,2,20.13,5.14S226,299.77,232.34,301l1.48.28c6.4,1.18,13.35,5.33,15.53,9.26s8.37,9.27,13.82,11.94,9.39,8.16,8.81,12.27,1.58,10.42,4.85,14.09a10.21,10.21,0,0,1,0,13.28c-3.27,3.67-5.44,10-4.85,14.09s-3.36,9.61-8.81,12.27-11.64,8-13.82,11.95-9.13,8.07-15.53,9.25l-1.48.28c-6.4,1.18-15.32,4.69-19.94,7.84s-13.63,5.45-20.13,5.14l-2.27-.11a82.93,82.93,0,0,0-23,2.79l-.44.13c-6.23,1.85-16.34,1.85-22.57,0l-.44-.13a82.93,82.93,0,0,0-23-2.79l-2.27.11c-6.5.31-15.51-2-20.13-5.14s-13.55-6.66-19.94-7.84l-1.49-.28c-6.39-1.18-13.34-5.33-15.52-9.25s-8.37-9.28-13.82-11.95C42.21,386,38.44,381,38.43,377a5.93,5.93,0,0,1,.06-.84c.59-4.11-1.59-10.42-4.85-14.09a10.21,10.21,0,0,1,0-13.28c3.26-3.67,5.44-10,4.85-14.09s3.36-9.6,8.81-12.27,11.63-8,13.82-11.94S70.25,302.41,76.64,301.23Z" style="fill:#e0e0e0"></path><path id="freepik--shadow--inject-6" d="M343.94,368.58c30.85,17.81,30.85,46.69,0,64.5s-80.87,17.81-111.72,0-30.85-46.69,0-64.5S313.09,350.77,343.94,368.58Z" style="fill:#e0e0e0"></path><path id="freepik--shadow--inject-6" d="M413.94,302.2c26.2,15.13,26.2,39.65,0,54.77s-68.67,15.12-94.86,0-26.2-39.64,0-54.77S387.75,287.08,413.94,302.2Z" style="fill:#e0e0e0"></path></g><g id="freepik--Character--inject-6"><g id="freepik--character--inject-6"><g id="freepik--character--inject-6"><path d="M344.35,128.61a8.85,8.85,0,1,0,9-8.72A8.84,8.84,0,0,0,344.35,128.61Z" style="fill:#263238"></path><path d="M349.67,134.48,348,153s-14.4,18.55-16.09,20.47-5.85,4.83-10.43-1c-5.28-6.78-17.44-27.3-18.43-28.67a44.51,44.51,0,0,0-3.42-3.86c-2.71-2.82-4.2-6.85-5.49-10.48-1.76-4.91-2.28-6.95-.88-7.5s2.3,4.52,4.31,7.33c0,0-3.8-10-1.49-10.71,1.45-.45,1.52,1.42,2,3.23a29.3,29.3,0,0,0,2.31,6.33s-2.54-9.53-1.16-10.85c1.59-1.52,2.14,1.47,2.65,3.94.48,2.27.89,3.52,1.47,5.59a2.82,2.82,0,0,1,1.25-2,5,5,0,0,1,3.81-.94,3.24,3.24,0,0,1,2.58,2.74,1.07,1.07,0,0,1-.07.53.89.89,0,0,1-1.11.33c-.62-.24-.86-.95-1.54-1A1.54,1.54,0,0,0,307,127a4.32,4.32,0,0,0-1.3,2.68c0,.78.15,2.38,1.49,2.87a1.78,1.78,0,0,0,1.07.06,1.32,1.32,0,0,0,1-1.1c.22-1,.2-2.33.95-3.18a1.29,1.29,0,0,1,1.25-.45.68.68,0,0,1,.4.3,1,1,0,0,1,.07.54,17.58,17.58,0,0,0,.09,2,17.62,17.62,0,0,1,.06,4.81,8,8,0,0,0,.19,2.61c.39,1.69,1.33,3.84,4.43,7.9,2.54,3.33,10.43,13.34,10.43,13.34l8.4-12.36c8-11.69,9.35-12,14.1-12.55" style="fill:#ffa8a7"></path><path d="M350.59,134c-3.33,0-6.27.65-10.24,5.52s-13.28,18.79-13.28,18.79l-6-6.68s-3.89,4.9-9.66,5.67c0,0,8.11,13.6,10.8,17.12s5.89,4.15,8.8,1.14,18.54-23.2,18.54-23.2Z" style="fill:#FF725E"></path><path d="M350.59,134c-3.33,0-6.27.65-10.24,5.52s-13.28,18.79-13.28,18.79l-6-6.68s-3.89,4.9-9.66,5.67c0,0,8.11,13.6,10.8,17.12s5.89,4.15,8.8,1.14,18.54-23.2,18.54-23.2Z" style="opacity:0.65"></path><path d="M352.54,133.78c-3.13,0-5.09,1.06-7.62,6s-2.58,19-1.24,27.33l-8.2,25.75s9.07,4.59,18.53,3.29S352.54,133.78,352.54,133.78Z" style="fill:#FF725E"></path><path d="M352.54,133.78c-3.13,0-5.09,1.06-7.62,6s-2.58,19-1.24,27.33l-8.2,25.75s9.07,4.59,18.53,3.29S352.54,133.78,352.54,133.78Z" style="opacity:0.5"></path><path d="M355.72,121.91a24.83,24.83,0,0,1,1.34,2.2c1.4,2.77,1.48,6.1,2.36,9.06a18.17,18.17,0,0,0,4.43,8,16.6,16.6,0,0,0,8.23,4.12,37.41,37.41,0,0,0,9.28.53,30,30,0,0,0,7-.9c4.77-1.34,8.33-4.7,8.44-10.07.06-3.17-1.6-6.32-6-8.24a7.51,7.51,0,0,0,.52-10.87c-2-1.9-4.92-2.5-7.17-4.11-3.82-2.73-3.61-7.33-5.51-11.21a20,20,0,0,0-9.55-9.4c-6.2-2.82-14.17-1.67-20.21,1.13-4.2,1.94-7.87,5.66-8.47,10.25-.67,5.09,2.74,10.16,7.39,12.33,1.72.8,3.57,1.26,5.31,2a1.57,1.57,0,0,1,.65.41,1.85,1.85,0,0,1,.24.94A9.3,9.3,0,0,0,355.72,121.91Z" style="fill:#263238"></path><path d="M379.05,172.76H346.31c-1.39,10.28-3.18,36.75-4.86,55.85a150.15,150.15,0,0,0,.37,26.22c.91,9,3.33,56.2,3.33,56.2l0,1.49c0,1.66-.37,2.82-1.43,5.48a32.18,32.18,0,0,1-5.67,9.37c-.75.82-6,5.38-6.66,6.35-2.24,2.62,2.41,4.09,5.85,3.63,3.64-.49,9.29-1.87,10.89-4.08,1.07-1.48,1.87-6.65,3-8.15,3.7-5,5.22-7.21,5.25-8.82.05-2.91-1-4.07-1.31-5.71.29-3.44,6-32.06,6.17-42.07a80.06,80.06,0,0,0-1.2-11.86L366.71,218" style="fill:#ffa8a7"></path><path d="M362.45,220.66s7.23,26,9.08,37c1.61,9.61,7.07,37.58,10.51,50.29a66.86,66.86,0,0,1,2.29,10s.11,1.11.11,1.12c.08,1.43.7,16.61,1.26,19.81,1.18,6.69,7.12,5.85,8.07.44.81-4.61-.2-18.86-.22-20.61l-.07-1.54s2.26-33.46.53-46.05c-1.49-10.8-3.23-15.28-3.54-17.74,0,0-2.66-25.38-2.88-46.94-.11-10.38-1-21.81-9-33.8" style="fill:#ffa8a7"></path><path d="M393.48,317.24c1.67,0,.57,6.52,1,10.69.47,4.48,1.93,7.75,2.35,11.42a14.92,14.92,0,0,1-1.39,9.4c-1.17,2.68-7.05,6.36-9.28,2.52a21.49,21.49,0,0,1-2.46-12.39c.26-4.32.52-7.47.61-10.76.08-2.89-2.15-9.69,0-10.1l.11,1.12c.78,1.56,8.23,2.64,9.11-.36Z" style="fill:#37474f"></path><path d="M346.07,173.38s-7.31,36.25-7.31,60.61c0,0,15.65,9.47,34.38,2.81,11-3.93,10-22.7,10-22.7s2.61,19.21,6.48,21.43c0,0-.45-30.2-1.95-39.39s-4-17.7-8.62-23.38Z" style="fill:#37474f"></path><path d="M356.74,319.82c.51,2.1,0,7.83,0,7.83s-.9,2-4.13,3.3l-1.45-8Z" style="fill:#263238"></path><polygon points="352.59 330.95 345.47 328.61 343.76 322.3 351.75 326.34 352.59 330.95"></polygon><path d="M345.19,312.52l0-1.49c-1,.47-3.09,8.25-6,13.59-2.63,4.88-7.83,7.59-9.52,9.71-2.26,2.84,2.13,6.5,9.19,5,3.5-.75,8.8-3,10.23-5.35s1.93-6.7,3.1-8.43,4-3.74,4.56-5.72a10.69,10.69,0,0,0,0-5.45c-.56-1.8-1-4-1.65-3.78l0,1.37c-.48,1-2.18,2.08-5.74,2.27C347.6,314.32,346,314.06,345.19,312.52Z" style="fill:#37474f"></path><path d="M368.58,133.64l9.87,1.42c-1.79,10.65,3.25,20,3.25,20l-3.14,16.21c.12,1.93,4.14,4.34,6.64,12.91-5.84,7.81-33.06,10.18-42.4,3.32.88-4.38,2.31-12,2.59-14.75l-.47-10.1c-11.7-9.61,2.42-24.23,7.62-28.88h4.87Z" style="fill:#FF725E"></path><path d="M368.58,133.64s-3.68,19.45-2.85,24.33,4.07,41.27,4.07,41.27,13.48,2,21.46-6.39l-10.6-26.16,4.54-22-3.87-9.64S379.81,134.16,368.58,133.64Z" style="fill:#FF725E"></path><path d="M368.58,133.64s-3.68,19.45-2.85,24.33,4.07,41.27,4.07,41.27,13.48,2,21.46-6.39l-10.6-26.16,4.54-22-3.87-9.64S379.81,134.16,368.58,133.64Z" style="opacity:0.5"></path><path d="M450.79,182.83a46.47,46.47,0,0,1-7.52-2.22s4.84-1,5.21-3c.44-2.52-2.67-.11-7-.72-3.83-.56-7.13.15-9.11-.43l-29.76-10.67S392.05,143,389.06,139.64s-5.47-4.58-10.61-4.58c-3.2,10.19-2,17,3.08,20.84,0,0,7.86,13.31,10.13,17s2.79,4.65,8.23,6.41c7.15,2.33,26.12,5.78,31.6,8.17,7.11,3.09,15.14,6.16,19.44,3.81a8.73,8.73,0,0,0,3.54-4.22C455.28,185.35,453.34,183.32,450.79,182.83Z" style="fill:#ffa8a7"></path><path d="M377.83,134.35s6.94,0,9.6,2.5,15.62,28.23,15.62,28.23l15.74,6.48s-3.05,7.54-2.39,11.87c0,0-15.43-2.72-19-3.64s-3.79-1.86-6.12-5.68-10.89-16.83-10.89-16.83S370.67,150,377.83,134.35Z" style="fill:#FF725E"></path><path d="M377.83,134.35s6.94,0,9.6,2.5,15.62,28.23,15.62,28.23l15.74,6.48s-3.05,7.54-2.39,11.87c0,0-15.43-2.72-19-3.64s-3.79-1.86-6.12-5.68-10.89-16.83-10.89-16.83S370.67,150,377.83,134.35Z" style="opacity:0.65"></path><path d="M350,99.52c-2.62,1.14-5.12,5.15-5.08,16.39,0,9.53,2.95,11.94,4.43,12.65s4.35.34,7.15-.09V134s-2.1,2.06-1.36,3.36,3.46,2.4,7.68,1.07c4.79-1.5,5.77-4.74,5.77-4.74l.21-11.94s1.61,1.69,4.44-.79c2.34-2,3.18-5.56,1.43-7.49s-4-2.09-6.05.07c0,0-4.26.59-9.88-2.94S350.57,103.17,350,99.52Z" style="fill:#ffa8a7"></path><path d="M349.76,112.68a1.27,1.27,0,1,1-1.32-1.28A1.31,1.31,0,0,1,349.76,112.68Z" style="fill:#263238"></path><path d="M359.84,113.24a1.36,1.36,0,1,1-2.71.09,1.37,1.37,0,0,1,1.3-1.45A1.38,1.38,0,0,1,359.84,113.24Z" style="fill:#263238"></path><path d="M357.89,121.86l-3.34,1a1.7,1.7,0,0,0,2.13,1.28A1.9,1.9,0,0,0,357.89,121.86Z" style="fill:#f28f8f"></path><path d="M346.41,110.32l3.26-1.29a1.68,1.68,0,0,0-2.26-1A1.81,1.81,0,0,0,346.41,110.32Z" style="fill:#263238"></path><path d="M368.59,111.94l0,5.29a2.48,2.48,0,0,1-2.55-2.56A2.73,2.73,0,0,1,368.59,111.94Z" style="fill:#263238"></path><polygon points="354.01 111.95 352.99 119.69 349.54 118.02 354.01 111.95" style="fill:#f28f8f"></polygon><path d="M356.5,128.47c2.95-.34,9-2,10-4.51a6.55,6.55,0,0,1-2.18,3.14c-1.84,1.58-7.85,3.22-7.85,3.22Z" style="fill:#f28f8f"></path></g><g id="freepik--Hat--inject-6"><path d="M356,91.33c1.08,7.53,14.66,12.49,21.11,9.12l-.63-29.28Z" style="fill:#FF725E"></path><path d="M376.49,100a1.18,1.18,0,0,0,.22.65,2.37,2.37,0,0,0,.36-.17l0-1.58A1.24,1.24,0,0,0,376.49,100Z" style="fill:#fff"></path><path d="M364.54,86.81a1.27,1.27,0,0,0,1.19-1.32,1.25,1.25,0,0,0-2.5.13A1.26,1.26,0,0,0,364.54,86.81Z" style="fill:#fff"></path><path d="M376.87,91.11l-.05-2.37A1.25,1.25,0,0,0,376,90a1.2,1.2,0,0,0,.41.86,1.08,1.08,0,0,0,.41.25Z" style="fill:#fff"></path><path d="M372.71,75.12A1.25,1.25,0,0,0,374,76.3a1.25,1.25,0,0,0,.36-2.42,1.05,1.05,0,0,0-.24-.06,1,1,0,0,0-.25,0,.41.41,0,0,0-.16,0l-1,1A1.55,1.55,0,0,0,372.71,75.12Z" style="fill:#fff"></path><path d="M375.47,80a1.26,1.26,0,0,0,.6,1,1.2,1.2,0,0,0,.46.16h.13l-.06-2.49A1.25,1.25,0,0,0,375.47,80Z" style="fill:#fff"></path><path d="M375.22,86.05a1.26,1.26,0,0,0,.49-.81,1.13,1.13,0,0,0,0-.26,1.31,1.31,0,0,0-.12-.48,1.37,1.37,0,0,0-.13-.2,1.16,1.16,0,0,0-.57-.43,1.32,1.32,0,0,0-.49-.07,1.22,1.22,0,0,0-1.11.82,1.15,1.15,0,0,0-.08.49,1.87,1.87,0,0,0,0,.25.92.92,0,0,0,.09.23,1.39,1.39,0,0,0,.28.39,1.32,1.32,0,0,0,.91.32A1.34,1.34,0,0,0,375.22,86.05Z" style="fill:#fff"></path><path d="M356.81,92.11a1.17,1.17,0,0,0,.49.07,1,1,0,0,0,.25,0,1.57,1.57,0,0,0,.23-.09,1.24,1.24,0,0,0-.2-2.32L356,91.25A1.26,1.26,0,0,0,356.81,92.11Z" style="fill:#fff"></path><path d="M360.06,97.05a1.24,1.24,0,0,0,1.18-1.31,1.25,1.25,0,0,0-1.31-1.19,1.27,1.27,0,0,0-1.19,1.32,1.25,1.25,0,0,0,.37.81l.09.09A1.24,1.24,0,0,0,360.06,97.05Z" style="fill:#fff"></path><path d="M375.05,96.29a1.25,1.25,0,1,0-1.32-1.19A1.27,1.27,0,0,0,375.05,96.29Z" style="fill:#fff"></path><path d="M370.05,96.54a1.25,1.25,0,1,0-1.31-1.18A1.24,1.24,0,0,0,370.05,96.54Z" style="fill:#fff"></path><path d="M372.29,91.42A1.25,1.25,0,1,0,371,90.23a1.24,1.24,0,0,0,.6,1,1.28,1.28,0,0,0,.46.17Z" style="fill:#fff"></path><path d="M369,100.35a1.24,1.24,0,0,0-1.31-1.18,1.26,1.26,0,0,0-.48.12,1.07,1.07,0,0,0-.21.13,1.2,1.2,0,0,0-.42.57,1.15,1.15,0,0,0-.08.49c0,.07,0,.14,0,.21a21.35,21.35,0,0,0,2.17.52A1.19,1.19,0,0,0,369,100.35Z" style="fill:#fff"></path><path d="M371.53,100.48a1.28,1.28,0,0,0,.56.75,1.21,1.21,0,0,0,.46.17,1,1,0,0,0,.25,0,1.26,1.26,0,0,0,.87-.41,1.19,1.19,0,0,0,.3-.65,1,1,0,0,0,0-.25,1.3,1.3,0,0,0-.41-.87,1.32,1.32,0,0,0-.91-.32,1.25,1.25,0,0,0-1.18,1.32A1.09,1.09,0,0,0,371.53,100.48Z" style="fill:#fff"></path><path d="M366.3,81.61a1.29,1.29,0,0,0,.49.07A1.24,1.24,0,0,0,368,80.37a1.17,1.17,0,0,0-.22-.64L366,81.44A1.38,1.38,0,0,0,366.3,81.61Z" style="fill:#fff"></path><path d="M363.86,96.09a1.07,1.07,0,0,0,.13.21,1.2,1.2,0,0,0,.57.42,1.15,1.15,0,0,0,.49.08,1.25,1.25,0,0,0,1.11-.82,1.18,1.18,0,0,0,.08-.49,2.34,2.34,0,0,0,0-.26,2.09,2.09,0,0,0-.08-.23,1.53,1.53,0,0,0-.29-.38,1.26,1.26,0,0,0-.9-.32,1.25,1.25,0,0,0-1.07,1.79Z" style="fill:#fff"></path><path d="M363.07,89.75a1.25,1.25,0,0,0-2.08,1,1.25,1.25,0,0,0,1.31,1.19,1.24,1.24,0,0,0,1.11-.82,1.51,1.51,0,0,0,.08-.49A1.27,1.27,0,0,0,363.07,89.75Z" style="fill:#fff"></path><path d="M367.3,91.67a1.07,1.07,0,0,0,.25,0,1.44,1.44,0,0,0,.43-.21,1.31,1.31,0,0,0,.49-.82,1,1,0,0,0,0-.25,1.24,1.24,0,0,0-.41-.86,1.33,1.33,0,0,0-.41-.25,1.15,1.15,0,0,0-.49-.07,1.25,1.25,0,1,0,.13,2.49Z" style="fill:#fff"></path><path d="M369.54,86.55a1.25,1.25,0,0,0,1.19-1.31,1.27,1.27,0,0,0-1.32-1.19,1.25,1.25,0,0,0-1.18,1.32A1.24,1.24,0,0,0,369.54,86.55Z" style="fill:#fff"></path><path d="M373,80.11a1.24,1.24,0,0,0-1.31-1.18,1.26,1.26,0,0,0-1.12.82l-.06.24a2.09,2.09,0,0,0,0,.25,1.26,1.26,0,0,0,.6,1,1.32,1.32,0,0,0,.71.18A1.27,1.27,0,0,0,373,80.11Z" style="fill:#fff"></path><path d="M380,62.8l-1.2-1c-.82,1.08-.84,3-.37,5.4s-1.94,3.94-1.94,3.94v.57a4.33,4.33,0,0,0,2.68-2.22c.88-1.51-.05-3.44.08-4.83A2.75,2.75,0,0,1,380,62.8Z" style="fill:#FF725E"></path><path d="M376.44,71.17s2.25.82,3.69-.53,1.08-2.37,1.43-3.66a2.91,2.91,0,0,1,2.69-2l.19,1.21s-1.48.43-1.75,1.58c-.31,1.34-.92,3.37-2.41,4a4.84,4.84,0,0,1-3.83,0Z" style="fill:#FF725E"></path><path d="M376.44,71.17s2.25.82,3.69-.53,1.08-2.37,1.43-3.66a2.91,2.91,0,0,1,2.69-2l.19,1.21s-1.48.43-1.75,1.58c-.31,1.34-.92,3.37-2.41,4a4.84,4.84,0,0,1-3.83,0Z" style="opacity:0.1"></path><path d="M376.44,71.17A7.94,7.94,0,0,0,379.55,73c1.94.54,3.15-.5,4.1-1.26a3.17,3.17,0,0,1,2.56-1L386.15,72a4.57,4.57,0,0,0-2.53,1.11,4.48,4.48,0,0,1-4.69.5,6.62,6.62,0,0,1-2.48-1.89Z" style="fill:#FF725E"></path><path d="M376.44,71.17A7.94,7.94,0,0,0,379.55,73c1.94.54,3.15-.5,4.1-1.26a3.17,3.17,0,0,1,2.56-1L386.15,72a4.57,4.57,0,0,0-2.53,1.11,4.48,4.48,0,0,1-4.69.5,6.62,6.62,0,0,1-2.48-1.89Z" style="opacity:0.2"></path></g><g id="freepik--Spoon--inject-6"><path d="M458.16,168.94,420,313.13l-2.17,3.39,2.91-1a6.93,6.93,0,0,0,4.35-4.75l37.74-142.89Z" style="fill:#263238"></path><path d="M457,169c6.4-.54,19.22-1.41,26.62-22.53s-4.45-43-17.89-41.84Z" style="fill:#37474f"></path><path d="M472.87,153.72c7.16-15.16,7.71-35,1.23-44.28s-18.91-4.73-26.42,10.25c-7.34,14.63-7.43,35.38-1,44.67A11.9,11.9,0,0,0,457,169.05C462.41,168.59,468.4,163.19,472.87,153.72Z" style="fill:#455a64"></path><path d="M413.71,316.72h0a7.08,7.08,0,0,1-3.81-8.2l39.25-148.31c1.19-4.5,4.16-6.16,6.64-3.7h0c2.47,2.46,3.51,8.11,2.32,12.6l-38.3,144.77A4.37,4.37,0,0,1,413.71,316.72Z" style="fill:#455a64"></path><path d="M455.47,109.12a35.23,35.23,0,0,0-7.79,10.57c-7.34,14.63-7.43,35.38-1,44.67a9.91,9.91,0,0,0,1,1.22L409.9,308.52a7.08,7.08,0,0,0,3.81,8.2,4.32,4.32,0,0,0,2.65.34c-5.69-1.2-4.12-5.87-2.44-12.84S450.79,164.1,450.79,164.1s-7.49-9.47-5.48-25.13C446.89,126.65,451.06,114.08,455.47,109.12Z" style="fill:#fff;opacity:0.1"></path><path d="M462.07,109.85a12.57,12.57,0,0,0-5.88,5c7.71-1.21,11.78,8,11.45,20.62-.38,14.48-8.29,28.75-15.69,28.56a8.54,8.54,0,0,0,2.94,1.17c10.41,1.74,22.2-20.07,21.62-36.69C475.9,111.23,469,107.36,462.07,109.85Z" style="opacity:0.1"></path></g><path id="freepik--Finger--inject-6" d="M441.45,176.85c-3.83-.56-7.13.15-9.11-.43l11.36,4.36s4.41-1.17,4.78-3.21C448.92,175.05,445.81,177.46,441.45,176.85Z" style="fill:#ffa8a7"></path></g></g><g id="freepik--Cake--inject-6"><g id="freepik--cake--inject-6"><g id="freepik--cake-stand--inject-6"><path d="M201.41,363.07a25.05,25.05,0,0,0,1.57-2.58c.13-.24.24-.48.36-.72a21.11,21.11,0,0,0,1-2.27c.09-.24.18-.48.26-.72a20.91,20.91,0,0,0,.72-2.88s0,0,0-.06a21,21,0,0,0,.25-2.95c0-.29,0-.59,0-.88,0-.68-.08-1.37-.17-2.05-.05-.36-.11-.71-.18-1.06a17.71,17.71,0,0,0-.49-2c-.1-.32-.17-.65-.29-1a21.61,21.61,0,0,0-1.16-2.74c-.14-.29-.33-.57-.48-.85-.36-.65-.74-1.29-1.17-1.93-.26-.38-.54-.75-.82-1.13s-.38-.56-.61-.83l-1-1.14-.54-.59c-12.45-14.32-30.76-19.09-51.23-19.09s-38.82,4.79-51.27,19.14l-.44.48c-.36.41-.7.83-1,1.2s-.42.59-.64.88-.52.7-.76,1.05c-.46.68-.88,1.38-1.26,2.07-.13.24-.28.47-.4.71a22.6,22.6,0,0,0-1.19,2.8c-.1.28-.17.58-.25.86-.21.7-.39,1.39-.53,2.09-.06.32-.11.65-.15,1a17.8,17.8,0,0,0-.18,2.19c0,.25,0,.5,0,.75a19.8,19.8,0,0,0,1,6l.22.63a25.87,25.87,0,0,0,1,2.39c.11.2.2.41.31.62a26.65,26.65,0,0,0,1.65,2.72l.08.12a30.74,30.74,0,0,0,2.34,2.91l.18.18c.77.84,1.62,1.66,2.52,2.47l.64.55c.83.71,1.71,1.4,2.65,2.08l.68.5c1.19.83,2.42,1.63,3.76,2.41,22.68,13.11,59.53,13.11,82.2,0,1.33-.77,2.56-1.57,3.73-2.39.27-.18.52-.37.77-.56.9-.66,1.75-1.32,2.55-2l.72-.62c.86-.77,1.67-1.56,2.42-2.37l.27-.27a29.8,29.8,0,0,0,2.3-2.87C201.32,363.23,201.36,363.15,201.41,363.07Z" style="fill:#FF725E"></path><path d="M123.29,330.1c-7.49,5.55-20.48,22.45-22.09,25.17s0,7.77,1.57,8.94-2.7-.69-6.33-5.74-3-9.31-2.75-7.41Z" style="opacity:0.1"></path><path d="M135.7,335.53A102.64,102.64,0,0,0,128.14,369c-.2,3.24,1.56,7.65,5.19,8.15S130.66,378,124,376s-11.57-5.7-9.17-4.71S135.7,335.53,135.7,335.53Z" style="opacity:0.1"></path><path d="M161.51,319.53V293H133.3v26.51h0c0,2.08,1.38,4.16,4.13,5.75,5.51,3.18,14.44,3.18,19.95,0C160.13,323.69,161.51,321.61,161.51,319.53Z" style="fill:#FF725E"></path><path d="M161.51,319.53V293H133.3v26.51h0c0,2.08,1.38,4.16,4.13,5.75,5.51,3.18,14.44,3.18,19.95,0C160.13,323.69,161.51,321.61,161.51,319.53Z" style="opacity:0.1"></path><path d="M135.7,299.1v20.79a9.36,9.36,0,0,0,6.54,3.93V299.1Z" style="opacity:0.1"></path><path d="M161.51,308.77c-.84.2-1.64.41-2.38.63l-.44.14c-6.23,1.85-16.34,1.85-22.57,0l-.44-.14c-.74-.22-1.54-.43-2.38-.63v5.53c.84.2,1.64.41,2.38.63l.44.13c6.23,1.84,16.34,1.84,22.57,0l.44-.13c.74-.22,1.54-.43,2.38-.63Z" style="opacity:0.1"></path><ellipse cx="147.4" cy="293.02" rx="14.1" ry="8.14" style="fill:#FF725E"></ellipse><ellipse cx="147.4" cy="293.02" rx="14.1" ry="8.14" style="opacity:0.1"></ellipse><path d="M269,228.16c-3.27-3.67-5.44-10-4.85-14.08s-3.36-9.61-8.81-12.28-11.64-8-13.82-11.94-9.13-8.07-15.53-9.26l-1.48-.27c-6.4-1.19-15.32-4.7-19.94-7.84s-13.63-5.45-20.13-5.14l-2.27.11a82.93,82.93,0,0,1-23-2.79l-.44-.13c-6.23-1.85-16.34-1.85-22.57,0l-.44.13a83,83,0,0,1-23.05,2.79l-2.27-.11c-6.49-.31-15.5,2-20.12,5.14s-13.55,6.65-19.94,7.84l-1.49.27c-6.39,1.19-13.34,5.33-15.52,9.26s-8.38,9.28-13.83,11.94-9.39,8.17-8.8,12.28-1.59,10.41-4.85,14.08a10,10,0,0,0-2.45,6.69v5.43A10,10,0,0,0,25.81,247a21.61,21.61,0,0,1,4.79,10.62v4.31c0,4,3.78,8.94,8.86,11.43,5.45,2.67,11.64,8,13.82,11.94s9.14,8.07,15.53,9.26l1.49.27c6.39,1.19,15.32,4.7,19.94,7.85s13.63,5.44,20.12,5.13l2.27-.1a83,83,0,0,1,23.05,2.79l.44.13c6.23,1.85,16.33,1.85,22.57,0l.44-.13a82.93,82.93,0,0,1,23-2.79l2.27.1c6.49.31,15.5-2,20.13-5.14s13.54-6.65,19.94-7.84l1.48-.27c6.4-1.19,13.35-5.33,15.53-9.26s8.37-9.27,13.82-11.94c5.1-2.49,8.87-7.46,8.86-11.46v-4.28A21.72,21.72,0,0,1,269,247a10,10,0,0,0,2.45-6.64V234.8A10,10,0,0,0,269,228.16Z" style="fill:#FF725E"></path><path d="M68.81,180.6l1.49-.27c6.39-1.19,15.32-4.7,19.94-7.84s13.63-5.45,20.12-5.14l2.27.11a83,83,0,0,0,23.05-2.79l.44-.13c6.23-1.85,16.34-1.85,22.57,0l.44.13a82.93,82.93,0,0,0,23,2.79l2.27-.11c6.5-.31,15.51,2,20.13,5.14s13.54,6.65,19.94,7.84l1.48.27c6.4,1.19,13.35,5.33,15.53,9.26s8.37,9.27,13.82,11.94,9.39,8.17,8.81,12.28,1.58,10.41,4.85,14.08a10.23,10.23,0,0,1,0,13.29c-3.27,3.67-5.44,10-4.85,14.08s-3.36,9.61-8.81,12.28-11.64,8-13.82,11.94S232.39,287.82,226,289l-1.48.27c-6.4,1.19-15.32,4.7-19.94,7.84s-13.64,5.45-20.13,5.14l-2.27-.11a83.31,83.31,0,0,0-23,2.79l-.44.14c-6.24,1.85-16.34,1.85-22.57,0l-.44-.14a83.38,83.38,0,0,0-23.05-2.79l-2.27.11c-6.49.31-15.5-2-20.12-5.14s-13.55-6.65-19.94-7.84L68.81,289c-6.39-1.19-13.34-5.33-15.53-9.26s-8.37-9.27-13.82-11.94c-5.08-2.49-8.85-7.44-8.86-11.43a6,6,0,0,1,.06-.85c.59-4.11-1.59-10.41-4.85-14.08a10.23,10.23,0,0,1,0-13.29c3.26-3.67,5.44-10,4.85-14.08s3.36-9.61,8.8-12.28,11.64-8,13.83-11.94S62.42,181.79,68.81,180.6Z" style="fill:#fff;opacity:0.6000000000000001"></path><path d="M147.4,306.46V312a41.82,41.82,0,0,1-11.28-1.38l-.44-.13a72.86,72.86,0,0,0-10.59-2.1v-5.52a71.62,71.62,0,0,1,10.59,2.09l.44.14A41.82,41.82,0,0,0,147.4,306.46Z" style="fill:#fff;opacity:0.5"></path><path d="M81.45,298.2a49.35,49.35,0,0,1,8.79,4.44,32.2,32.2,0,0,0,10.34,4.1v-5.52a32.2,32.2,0,0,1-10.34-4.09,48.67,48.67,0,0,0-8.79-4.45Z" style="fill:#fff;opacity:0.5"></path><path d="M193.39,301.41a36.47,36.47,0,0,1-8.95.85l-2.27-.1a62.19,62.19,0,0,0-7.1.14v5.52a64.77,64.77,0,0,1,7.1-.15l2.27.11a36.47,36.47,0,0,0,8.95-.85Z" style="fill:#fff;opacity:0.5"></path><path d="M234.65,285.8A28.84,28.84,0,0,1,226,289l-1.48.29a54.61,54.61,0,0,0-7.56,2v5.52a56.18,56.18,0,0,1,7.56-2.06l1.48-.27a29.13,29.13,0,0,0,8.66-3.21Z" style="fill:#fff;opacity:0.5"></path><g style="opacity:0.5"><path d="M264.2,256.35c0,4-3.76,9-8.86,11.46a37.59,37.59,0,0,0-5.93,3.71v5.53a37.68,37.68,0,0,1,5.93-3.72c5.1-2.49,8.87-7.46,8.86-11.46V257.6h0Z" style="fill:#fff"></path></g><path d="M59.4,285.36a16.93,16.93,0,0,1-6.11-5.61,24.63,24.63,0,0,0-4.71-5.57v5.53a24.41,24.41,0,0,1,4.71,5.57,17.1,17.1,0,0,0,6.11,5.61Z" style="opacity:0.2"></path><path d="M30.63,255.91c0-.13,0-.25,0-.38.54-3.8-1.28-9.47-4.14-13.21l-.12-.15a2.43,2.43,0,0,0-.2-.25c-.13-.16-.26-.32-.4-.47s-.38-.46-.56-.7l-.12-.18c-.13-.19-.25-.37-.36-.56l-.13-.23-.29-.55c0-.08-.07-.17-.11-.25s-.16-.38-.23-.57l-.09-.25c-.07-.2-.13-.39-.18-.59a2.5,2.5,0,0,1-.07-.26c-.05-.2-.09-.4-.13-.61s0-.17,0-.25-.06-.41-.08-.62a2.45,2.45,0,0,1,0-.27l0-.31v5A10,10,0,0,0,25.8,247a21.71,21.71,0,0,1,4.8,10.63v-1.26C30.6,256.19,30.62,256.05,30.63,255.91Z" style="opacity:0.2"></path><path d="M264.18,255.91c0-.13,0-.25,0-.38-.54-3.8,1.28-9.47,4.14-13.21l.11-.15.21-.25c.13-.16.26-.32.4-.47s.38-.46.55-.7l.13-.18c.12-.19.25-.37.36-.56l.13-.23.29-.55c0-.08.07-.17.11-.25s.16-.38.23-.57l.09-.25c.06-.2.13-.39.18-.59a2.5,2.5,0,0,1,.07-.26c0-.2.09-.4.13-.61s0-.17,0-.25.06-.41.08-.62,0-.18,0-.27l0-.31v5A10,10,0,0,1,269,247a21.71,21.71,0,0,0-4.8,10.63v-1.26Z" style="opacity:0.2"></path><path d="M147.4,330.6c-.92,0-1.77,0-2.5-.09a4.75,4.75,0,0,0-4.73,2.95,324.46,324.46,0,0,0-12.44,37.05,5,5,0,0,0,4,6.39,92.47,92.47,0,0,0,31.37,0,5,5,0,0,0,4-6.39,326.43,326.43,0,0,0-12.44-37.05,4.75,4.75,0,0,0-4.73-2.95C149.17,330.57,148.33,330.6,147.4,330.6Z" style="fill:#FF725E"></path><path d="M158.55,334.29a256.25,256.25,0,0,1,12.39,34.48,5.08,5.08,0,0,0,6.67,3.53,55.57,55.57,0,0,0,15.11-8.65,6.5,6.5,0,0,0,.89-8.38c-7-9.75-16.34-18.16-27.46-25.48-2.53-1.67-5.73-2.19-7.2-1.51S157.31,331.53,158.55,334.29Z" style="fill:#FF725E"></path><path d="M168.32,328a121.76,121.76,0,0,1,27.38,23.89c2,2.33,4.73,2.17,5.42-.79a18,18,0,0,0,.47-4.26c-.05-3-2.74-7.13-5.05-9.11a70.4,70.4,0,0,0-26.71-14.41c-2.93-.78-5.29-.4-5.52.4S165.78,326.31,168.32,328Z" style="fill:#FF725E"></path><path d="M163.39,319.61c-.51-.68.64-1.41,2.82-1.53a27.94,27.94,0,0,1,4,.05c3.53.3,12.06,2.85,19.61,8.4a45.48,45.48,0,0,1,7.7,7.14c1.69,2.22.85,2.5-1.48.56-6.29-5.21-16.45-10.74-26.41-12.64C166.61,321,163.89,320.29,163.39,319.61Z" style="fill:#FF725E"></path><path d="M136.25,334.29a257.64,257.64,0,0,0-12.38,34.48,5.09,5.09,0,0,1-6.68,3.53,55.71,55.71,0,0,1-15.11-8.65,6.49,6.49,0,0,1-.88-8.38c7-9.75,16.33-18.16,27.45-25.48,2.54-1.67,5.73-2.19,7.2-1.51S137.5,331.53,136.25,334.29Z" style="fill:#FF725E"></path><path d="M126.48,328A122,122,0,0,0,99.1,351.85c-1.94,2.33-4.73,2.17-5.41-.79a17,17,0,0,1-.47-4.26c0-3,2.74-7.13,5-9.11A70.44,70.44,0,0,1,125,323.28c2.93-.78,5.29-.4,5.52.4S129,326.31,126.48,328Z" style="fill:#FF725E"></path><path d="M131.42,319.61c.5-.68-.65-1.41-2.83-1.53a27.81,27.81,0,0,0-4,.05c-3.54.3-12.06,2.85-19.61,8.4a44.73,44.73,0,0,0-7.7,7.14c-1.69,2.22-.86,2.5,1.48.56,6.28-5.21,16.45-10.74,26.4-12.64C128.19,321,130.92,320.29,131.42,319.61Z" style="fill:#FF725E"></path><g style="opacity:0.35000000000000003"><path d="M147.4,330.6c-.92,0-1.77,0-2.5-.09a4.75,4.75,0,0,0-4.73,2.95,324.46,324.46,0,0,0-12.44,37.05,5,5,0,0,0,4,6.39,92.47,92.47,0,0,0,31.37,0,5,5,0,0,0,4-6.39,326.43,326.43,0,0,0-12.44-37.05,4.75,4.75,0,0,0-4.73-2.95C149.17,330.57,148.33,330.6,147.4,330.6Z" style="fill:#fff"></path><path d="M158.55,334.29a256.25,256.25,0,0,1,12.39,34.48,5.08,5.08,0,0,0,6.67,3.53,55.57,55.57,0,0,0,15.11-8.65,6.5,6.5,0,0,0,.89-8.38c-7-9.75-16.34-18.16-27.46-25.48-2.53-1.67-5.73-2.19-7.2-1.51S157.31,331.53,158.55,334.29Z" style="fill:#fff"></path><path d="M168.32,328a121.76,121.76,0,0,1,27.38,23.89c2,2.33,4.73,2.17,5.42-.79a18,18,0,0,0,.47-4.26c-.05-3-2.74-7.13-5.05-9.11a70.4,70.4,0,0,0-26.71-14.41c-2.93-.78-5.29-.4-5.52.4S165.78,326.31,168.32,328Z" style="fill:#fff"></path><path d="M163.39,319.61c-.51-.68.64-1.41,2.82-1.53a27.94,27.94,0,0,1,4,.05c3.53.3,12.06,2.85,19.61,8.4a45.48,45.48,0,0,1,7.7,7.14c1.69,2.22.85,2.5-1.48.56-6.29-5.21-16.45-10.74-26.41-12.64C166.61,321,163.89,320.29,163.39,319.61Z" style="fill:#fff"></path><path d="M136.25,334.29a257.64,257.64,0,0,0-12.38,34.48,5.09,5.09,0,0,1-6.68,3.53,55.71,55.71,0,0,1-15.11-8.65,6.49,6.49,0,0,1-.88-8.38c7-9.75,16.33-18.16,27.45-25.48,2.54-1.67,5.73-2.19,7.2-1.51S137.5,331.53,136.25,334.29Z" style="fill:#fff"></path><path d="M126.48,328A122,122,0,0,0,99.1,351.85c-1.94,2.33-4.73,2.17-5.41-.79a17,17,0,0,1-.47-4.26c0-3,2.74-7.13,5-9.11A70.44,70.44,0,0,1,125,323.28c2.93-.78,5.29-.4,5.52.4S129,326.31,126.48,328Z" style="fill:#fff"></path><path d="M131.42,319.61c.5-.68-.65-1.41-2.83-1.53a27.81,27.81,0,0,0-4,.05c-3.54.3-12.06,2.85-19.61,8.4a44.73,44.73,0,0,0-7.7,7.14c-1.69,2.22-.86,2.5,1.48.56,6.28-5.21,16.45-10.74,26.4-12.64C128.19,321,130.92,320.29,131.42,319.61Z" style="fill:#fff"></path></g><path d="M144.84,332.22c-2.22,0-2.43,1.28-3.81,4.84s-9.42,28.21-9.49,31.94,2.42,5.27,7.78,5.56,10.09.13,10.09-3.68-.78-28.84-.91-32.52c-.18-4.73.45-6.13-2.13-6.13C145.86,332.23,145.42,332.21,144.84,332.22Z" style="fill:#fff;opacity:0.30000000000000004"></path><path d="M160.15,329.66c-1.42.73-.47,2.76,1.36,5.87S169,353.45,171,359.84c1.83,6,3,8.52,5.24,9.28s8.85-3.18,11-4.54.75-2.58-1.59-2.17-5.16.84-7-3.4-5.3-12.79-9-18.36S161.79,328.83,160.15,329.66Z" style="fill:#fff;opacity:0.30000000000000004"></path><path d="M199.83,344.34c.36,1.32.5,5.24,0,6.29a1.37,1.37,0,0,1-1.42.85c-.75-.13-2-1.33-3-2.56a120.34,120.34,0,0,0-15-14.85c-3.4-2.56-11.46-8.05-12.64-8.61s-.75-1.43,1.43-.87,8.48,3.4,16,9.23c3.63,2.81,10.79,10.25,12,10.77s1.31-1.45,1.81-1.32S199.68,343.79,199.83,344.34Z" style="fill:#fff;opacity:0.30000000000000004"></path><path d="M130.21,330.72A111.66,111.66,0,0,0,115,342.81c-5.12,4.79-11.78,12.72-12.55,15.19s2.39,6.05,5.94,8,6.21,3.51,7.79,3.18.81-2.1-2-4.27-3.73-7-1.47-11.49,14.82-17.54,19.47-21.22C134.83,330.13,132.84,329,130.21,330.72Z" style="fill:#fff;opacity:0.30000000000000004"></path><path d="M124.94,324.12c-2.53.49-11.39,4.51-16.54,7.79s-10.47,7.66-11.65,9.52a12.41,12.41,0,0,0-2,6.57c-.06,2.66.67,3.65,1.73,3.49s1.53-2.84,2.23-5.06a23.83,23.83,0,0,1,5.82-8.68c3.43-3.4,14.5-10,19.44-12.05C126.78,324.51,128.13,323.5,124.94,324.12Z" style="fill:#fff;opacity:0.30000000000000004"></path></g><ellipse id="freepik--shadow--inject-6" cx="147.4" cy="234.72" rx="101.97" ry="58.8" style="opacity:0.15"></ellipse><g id="freepik--cake--inject-6"><path d="M245.63,162.88c0-14.51-9.6-29-28.76-40.07-38.37-22.15-100.57-22.15-138.93,0-19.17,11.06-28.76,25.56-28.77,40.07,0,11.19,0,52.79,0,64,0,14.51,9.59,29,28.77,40.1,25.37,14.65,61.15,19.61,93.58,14.89v-47l61,20.28c8.71-8.73,13.07-18.51,13.06-28.29C245.63,215.67,245.64,174.07,245.63,162.88Z" style="fill:#37474f"></path><path d="M171.52,221.17a15.78,15.78,0,0,0-1.31-6.28l0,0-.9-2.06-4.65-10.58v0l-17.22-39.27L226,189a9.57,9.57,0,0,1,2.79,1.48,5.45,5.45,0,0,1,.46.38,4.12,4.12,0,0,1,.54.49c.17.17.34.36.49.54l.32.4.31.45a9.53,9.53,0,0,1,1.62,5.31v57.06l-61-20.28Z" style="fill:#263238"></path><g style="opacity:0.7000000000000001"><path d="M158.9,189.12l63.73,21.18a2.88,2.88,0,0,0,4-2.91V200.8a6.25,6.25,0,0,0-4-5.57l-71.47-23.75Z" style="fill:#FF725E"></path><path d="M171.52,234.86,196.14,243l26.54,8.81a2.86,2.86,0,0,0,4-2.91v-6.59a6.27,6.27,0,0,0-4-5.58l-51.17-17,.06,1.08v14Z" style="fill:#FF725E"></path><path d="M226.65,228.16v-6.58a6.27,6.27,0,0,0-4-5.58l-60.8-20.21,7.74,17.65,53.06,17.63A2.87,2.87,0,0,0,226.65,228.16Z" style="fill:#FF725E"></path></g><path d="M210.24,247.66l-60.9-84.1-1.93-.65,17.22,39.27v0l4.65,10.58.9,2.06,0,0a15.78,15.78,0,0,1,1.31,6.28v13.69Z" style="opacity:0.2"></path><path d="M232.56,191.2l-1.62,1.57-.31-.45c-.1-.13-.2-.27-.32-.4s-.32-.37-.49-.54a4.12,4.12,0,0,0-.54-.49,5.45,5.45,0,0,0-.46-.38A11.25,11.25,0,0,0,226,189l-76.69-25.47a.9.9,0,0,0-1.11,1.22l16.4,37.4v0l4.65,10.58.9,2.06a15.54,15.54,0,0,1,1,3.1c-1.22.18-2.44.34-3.67.48-31.33,3.77-65.23-1.37-89.56-15.41-38.36-22.15-38.36-58.06,0-80.2s100.56-22.15,138.92,0C249,141.34,254.21,169.52,232.56,191.2Z" style="fill:#455a64"></path><path d="M140,111.15c6.09-3.52,16-3.52,22.06,0s6.09,9.22,0,12.74-16,3.51-22.06,0S133.93,114.67,140,111.15Z" style="opacity:0.2"></path><path d="M155.23,101.91a24.72,24.72,0,0,1,8.28,4.84,8.86,8.86,0,0,1,2,10.27,9.13,9.13,0,0,1-8,5,23.69,23.69,0,0,0-.18-9.8C156.08,107.2,155.23,101.91,155.23,101.91Z" style="fill:#FF725E"></path><path d="M155.23,101.91a24.72,24.72,0,0,1,8.28,4.84,8.86,8.86,0,0,1,2,10.27,9.13,9.13,0,0,1-8,5,23.69,23.69,0,0,0-.18-9.8C156.08,107.2,155.23,101.91,155.23,101.91Z" style="opacity:0.2"></path><path d="M148.88,101.65c-1.17,1.66-5.29,2.58-8,4.36s-4.12,3-4.85,5.34-.2,5.84,2.87,7.3,9.34-3.55,10-5.36S148.88,101.65,148.88,101.65Z" style="fill:#FF725E"></path><path d="M148.88,101.65c-1.17,1.66-5.29,2.58-8,4.36s-4.12,3-4.85,5.34-.2,5.84,2.87,7.3,9.34-3.55,10-5.36S148.88,101.65,148.88,101.65Z" style="opacity:0.30000000000000004"></path><path d="M150.79,98.59a5.83,5.83,0,0,0-2.06,5.24c.07,2,.13,6.36-5.49,9.37-5,2.65-5.54,5.27-2.9,7.58a8.28,8.28,0,0,0,6,1.74s7.36-1.69,8.85-7.19S153.87,101,150.79,98.59Z" style="fill:#FF725E"></path><path d="M150.79,98.59a5.83,5.83,0,0,0-2.06,5.24c.07,2,.13,6.36-5.49,9.37-5,2.65-5.54,5.27-2.9,7.58a8.28,8.28,0,0,0,6,1.74s7.36-1.69,8.85-7.19S153.87,101,150.79,98.59Z" style="opacity:0.2"></path><path d="M151.42,124.12c-4.78,0-6.7-2.06-4.48-4.79,1.1-1.36,3.09-1.92,4.34-3.3a8.62,8.62,0,0,0,2.55-5.21c.43-4.89-5.49-10-2-14.22.37,2.32,1.35,3.65,4.78,6.44a13.58,13.58,0,0,1,4.23,15.11C159.62,121.57,154.51,124.12,151.42,124.12Z" style="fill:#FF725E"></path><path d="M151.42,124.12c-4.78,0-6.7-2.06-4.48-4.79,1.1-1.36,3.09-1.92,4.34-3.3a8.62,8.62,0,0,0,2.55-5.21c.43-4.89-5.49-10-2-14.22.37,2.32,1.35,3.65,4.78,6.44a13.58,13.58,0,0,1,4.23,15.11C159.62,121.57,154.51,124.12,151.42,124.12Z" style="opacity:0.1"></path><path d="M161.35,119.21a10.78,10.78,0,0,0,.25-5.44c-.59,3.24-2.88,5.86-7.27,7.08a13.69,13.69,0,0,1-4.85.53c-1.88-.18-3-.89-2.87-1.61a2.7,2.7,0,0,1,.25-.34,3.31,3.31,0,0,1,.31-.36l.16-.16a.93.93,0,0,1,.15-.13,3.29,3.29,0,0,1,.42-.34l.18-.13a.27.27,0,0,1,.1-.06c.3-.2.59-.39.87-.56.57-.35,1.08-.67,1.41-.91l.21-.18c.13-.1.25-.21.37-.32l0,0,.32-.33a5.47,5.47,0,0,0,.44-.54,1.84,1.84,0,0,0,.23-.27.24.24,0,0,0,.06-.09,5.48,5.48,0,0,0,.34-.46,5.63,5.63,0,0,0,.33-.54,8.71,8.71,0,0,0,.67-1.46c.05-.13.08-.24.1-.3a.13.13,0,0,0,0,0c-.85,2.18-3.28,3.87-5.53,4.83a11.1,11.1,0,0,1-6.49.71c-2.05-.31-2.12-1.42-2.12-1.56a.43.43,0,0,1,.07-.1,11,11,0,0,1,3.72-2.87,13.14,13.14,0,0,0,2.25-1.52,11.31,11.31,0,0,1-2.7,1.26,12.46,12.46,0,0,1-4.83.49c-1.79-.37-2.09-1.24-1.79-2.52-.06.14-.11.28-.16.43-.74,2.35-.2,5.84,2.87,7.3h0a4.25,4.25,0,0,0,1.46,2.13,8.28,8.28,0,0,0,6,1.74h0c.71,1,2.46,1.6,5,1.6a11.94,11.94,0,0,0,6.1-2.14h0a9.13,9.13,0,0,0,8-5,8.08,8.08,0,0,0,.83-4.31h0A6.94,6.94,0,0,1,161.35,119.21Z" style="opacity:0.2"></path><ellipse cx="118.82" cy="120.87" rx="15.6" ry="9.01" style="opacity:0.2"></ellipse><path d="M123,105.26a24.69,24.69,0,0,1,8.27,4.84,8.85,8.85,0,0,1,2,10.27,9.13,9.13,0,0,1-8,5,23.69,23.69,0,0,0-.18-9.8C123.85,110.55,123,105.26,123,105.26Z" style="fill:#FF725E"></path><path d="M123,105.26a24.69,24.69,0,0,1,8.27,4.84,8.85,8.85,0,0,1,2,10.27,9.13,9.13,0,0,1-8,5,23.69,23.69,0,0,0-.18-9.8C123.85,110.55,123,105.26,123,105.26Z" style="opacity:0.2"></path><path d="M116.66,105c-1.17,1.66-5.29,2.58-8,4.36s-4.11,3-4.85,5.34-.2,5.84,2.88,7.3,9.34-3.55,10-5.36S116.66,105,116.66,105Z" style="fill:#FF725E"></path><path d="M116.66,105c-1.17,1.66-5.29,2.58-8,4.36s-4.11,3-4.85,5.34-.2,5.84,2.88,7.3,9.34-3.55,10-5.36S116.66,105,116.66,105Z" style="opacity:0.30000000000000004"></path><path d="M118.56,101.93a5.85,5.85,0,0,0-2.06,5.25c.07,2,.13,6.36-5.49,9.37-5,2.65-5.54,5.27-2.9,7.58a8.3,8.3,0,0,0,6,1.74s7.35-1.69,8.85-7.19S121.64,104.38,118.56,101.93Z" style="fill:#FF725E"></path><path d="M118.56,101.93a5.85,5.85,0,0,0-2.06,5.25c.07,2,.13,6.36-5.49,9.37-5,2.65-5.54,5.27-2.9,7.58a8.3,8.3,0,0,0,6,1.74s7.35-1.69,8.85-7.19S121.64,104.38,118.56,101.93Z" style="opacity:0.2"></path><path d="M119.2,127.47c-4.78,0-6.71-2.06-4.49-4.79,1.1-1.36,3.1-1.92,4.35-3.3a8.62,8.62,0,0,0,2.54-5.21c.43-4.89-5.48-10-2-14.23.38,2.33,1.35,3.65,4.79,6.44a13.64,13.64,0,0,1,4.23,15.12C127.4,124.92,122.28,127.47,119.2,127.47Z" style="fill:#FF725E"></path><path d="M119.2,127.47c-4.78,0-6.71-2.06-4.49-4.79,1.1-1.36,3.1-1.92,4.35-3.3a8.62,8.62,0,0,0,2.54-5.21c.43-4.89-5.48-10-2-14.23.38,2.33,1.35,3.65,4.79,6.44a13.64,13.64,0,0,1,4.23,15.12C127.4,124.92,122.28,127.47,119.2,127.47Z" style="opacity:0.1"></path><path d="M129.12,122.56a10.78,10.78,0,0,0,.25-5.44c-.59,3.24-2.87,5.86-7.27,7.08a13.67,13.67,0,0,1-4.85.53c-1.87-.18-3-.9-2.87-1.61.08-.12.16-.23.25-.34s.2-.24.31-.36l.17-.16a.57.57,0,0,1,.14-.13,4.18,4.18,0,0,1,.42-.34l.18-.14.1-.06.88-.55c.57-.35,1.07-.68,1.41-.91l.21-.18.36-.32,0,0a3.22,3.22,0,0,0,.32-.32q.24-.27.45-.54l.23-.27.06-.09a5.48,5.48,0,0,0,.34-.46l.33-.54a9.62,9.62,0,0,0,.67-1.46l.09-.3a.13.13,0,0,0,0,0c-.85,2.18-3.28,3.87-5.52,4.83a11.14,11.14,0,0,1-6.5.71c-2-.31-2.11-1.42-2.11-1.57s0-.06.06-.09a11,11,0,0,1,3.73-2.87,13.55,13.55,0,0,0,2.25-1.52,11.67,11.67,0,0,1-2.71,1.26,12.41,12.41,0,0,1-4.83.48c-1.79-.36-2.08-1.23-1.79-2.52-.05.15-.11.29-.16.44-.73,2.35-.2,5.84,2.88,7.3h0a4.38,4.38,0,0,0,1.46,2.13,8.3,8.3,0,0,0,6,1.74h0c.71,1,2.45,1.6,5,1.6a12,12,0,0,0,6.09-2.14h0a9.13,9.13,0,0,0,8-5,8.08,8.08,0,0,0,.83-4.31h0A6.93,6.93,0,0,1,129.12,122.56Z" style="opacity:0.2"></path><ellipse cx="91.29" cy="131.38" rx="15.6" ry="9.01" style="opacity:0.2"></ellipse><path d="M95.48,115.78a24.64,24.64,0,0,1,8.27,4.83,8.86,8.86,0,0,1,2,10.28,9.12,9.12,0,0,1-8,5,23.5,23.5,0,0,0-.18-9.8C96.32,121.07,95.48,115.78,95.48,115.78Z" style="fill:#FF725E"></path><path d="M95.48,115.78a24.64,24.64,0,0,1,8.27,4.83,8.86,8.86,0,0,1,2,10.28,9.12,9.12,0,0,1-8,5,23.5,23.5,0,0,0-.18-9.8C96.32,121.07,95.48,115.78,95.48,115.78Z" style="opacity:0.2"></path><path d="M89.13,115.52c-1.17,1.66-5.29,2.58-8,4.36s-4.11,3-4.85,5.34-.2,5.84,2.88,7.3,9.34-3.55,10-5.36S89.13,115.52,89.13,115.52Z" style="fill:#FF725E"></path><path d="M89.13,115.52c-1.17,1.66-5.29,2.58-8,4.36s-4.11,3-4.85,5.34-.2,5.84,2.88,7.3,9.34-3.55,10-5.36S89.13,115.52,89.13,115.52Z" style="opacity:0.30000000000000004"></path><path d="M91,112.45A5.86,5.86,0,0,0,89,117.7c.07,2,.14,6.36-5.49,9.37-5,2.65-5.54,5.27-2.9,7.58a8.35,8.35,0,0,0,6,1.74s7.35-1.69,8.85-7.19S94.12,114.89,91,112.45Z" style="fill:#FF725E"></path><path d="M91,112.45A5.86,5.86,0,0,0,89,117.7c.07,2,.14,6.36-5.49,9.37-5,2.65-5.54,5.27-2.9,7.58a8.35,8.35,0,0,0,6,1.74s7.35-1.69,8.85-7.19S94.12,114.89,91,112.45Z" style="opacity:0.2"></path><path d="M91.67,138c-4.78,0-6.71-2-4.49-4.79,1.1-1.35,3.1-1.91,4.35-3.29a8.64,8.64,0,0,0,2.54-5.21c.43-4.89-5.48-10-2-14.23.38,2.33,1.35,3.65,4.79,6.44A13.63,13.63,0,0,1,101.05,132C99.87,135.44,94.75,138,91.67,138Z" style="fill:#FF725E"></path><path d="M91.67,138c-4.78,0-6.71-2-4.49-4.79,1.1-1.35,3.1-1.91,4.35-3.29a8.64,8.64,0,0,0,2.54-5.21c.43-4.89-5.48-10-2-14.23.38,2.33,1.35,3.65,4.79,6.44A13.63,13.63,0,0,1,101.05,132C99.87,135.44,94.75,138,91.67,138Z" style="opacity:0.1"></path><path d="M101.59,133.08a10.94,10.94,0,0,0,.26-5.45c-.6,3.24-2.88,5.86-7.27,7.09a13.47,13.47,0,0,1-4.86.52c-1.87-.18-3-.89-2.86-1.6a2.62,2.62,0,0,1,.24-.34,2.74,2.74,0,0,1,.32-.36,1.29,1.29,0,0,1,.16-.17.81.81,0,0,1,.14-.12,3.37,3.37,0,0,1,.43-.34l.17-.14.11-.06.87-.55c.57-.36,1.08-.68,1.41-.92l.21-.17.36-.33,0,0c.11-.1.21-.21.31-.32s.31-.37.45-.54l.23-.27.06-.09a5.66,5.66,0,0,0,.34-.47,4.53,4.53,0,0,0,.33-.53,8.71,8.71,0,0,0,.67-1.46c0-.14.08-.25.09-.31a.11.11,0,0,0,0,0c-.85,2.18-3.27,3.88-5.52,4.84a11.13,11.13,0,0,1-6.5.7c-2-.3-2.11-1.41-2.11-1.56a.22.22,0,0,1,.07-.09,10.92,10.92,0,0,1,3.72-2.88,13,13,0,0,0,2.25-1.51A11.66,11.66,0,0,1,83,126.82a12.37,12.37,0,0,1-4.82.48c-1.8-.36-2.09-1.23-1.8-2.52-.05.15-.11.28-.16.44-.73,2.35-.2,5.84,2.88,7.3h0a4.43,4.43,0,0,0,1.46,2.13,8.35,8.35,0,0,0,6,1.74h0c.71,1,2.45,1.59,5,1.59a12,12,0,0,0,6.09-2.13h0a9.12,9.12,0,0,0,8-5,8.18,8.18,0,0,0,.84-4.31h0A6.92,6.92,0,0,1,101.59,133.08Z" style="opacity:0.2"></path><path d="M62,144.15c6.09-3.52,16-3.52,22.06,0s6.09,9.22,0,12.73-16,3.52-22.06,0S55.89,147.66,62,144.15Z" style="opacity:0.2"></path><path d="M76.82,134.91a24.71,24.71,0,0,1,8.27,4.83,8.87,8.87,0,0,1,2,10.28,9.13,9.13,0,0,1-8,5,23.69,23.69,0,0,0-.18-9.8C77.67,140.2,76.82,134.91,76.82,134.91Z" style="fill:#FF725E"></path><path d="M76.82,134.91a24.71,24.71,0,0,1,8.27,4.83,8.87,8.87,0,0,1,2,10.28,9.13,9.13,0,0,1-8,5,23.69,23.69,0,0,0-.18-9.8C77.67,140.2,76.82,134.91,76.82,134.91Z" style="opacity:0.2"></path><path d="M70.47,134.65c-1.17,1.66-5.29,2.58-8,4.36s-4.12,3-4.85,5.34-.2,5.84,2.87,7.3,9.34-3.55,10-5.36S70.47,134.65,70.47,134.65Z" style="fill:#FF725E"></path><path d="M70.47,134.65c-1.17,1.66-5.29,2.58-8,4.36s-4.12,3-4.85,5.34-.2,5.84,2.87,7.3,9.34-3.55,10-5.36S70.47,134.65,70.47,134.65Z" style="opacity:0.30000000000000004"></path><path d="M72.38,131.58a5.83,5.83,0,0,0-2.06,5.25c.06,2,.13,6.36-5.49,9.37-4.95,2.65-5.55,5.27-2.91,7.58a8.35,8.35,0,0,0,6,1.74s7.35-1.69,8.85-7.19S75.46,134,72.38,131.58Z" style="fill:#FF725E"></path><path d="M72.38,131.58a5.83,5.83,0,0,0-2.06,5.25c.06,2,.13,6.36-5.49,9.37-4.95,2.65-5.55,5.27-2.91,7.58a8.35,8.35,0,0,0,6,1.74s7.35-1.69,8.85-7.19S75.46,134,72.38,131.58Z" style="opacity:0.2"></path><path d="M73,157.12c-4.78,0-6.71-2.06-4.48-4.79,1.1-1.36,3.09-1.92,4.34-3.3a8.68,8.68,0,0,0,2.55-5.21c.43-4.89-5.49-10-2-14.23.37,2.33,1.34,3.65,4.78,6.44a13.6,13.6,0,0,1,4.23,15.12C81.21,154.57,76.09,157.12,73,157.12Z" style="fill:#FF725E"></path><path d="M73,157.12c-4.78,0-6.71-2.06-4.48-4.79,1.1-1.36,3.09-1.92,4.34-3.3a8.68,8.68,0,0,0,2.55-5.21c.43-4.89-5.49-10-2-14.23.37,2.33,1.34,3.65,4.78,6.44a13.6,13.6,0,0,1,4.23,15.12C81.21,154.57,76.09,157.12,73,157.12Z" style="opacity:0.1"></path><path d="M82.93,152.21a10.82,10.82,0,0,0,.26-5.45c-.6,3.25-2.88,5.87-7.27,7.09a13.42,13.42,0,0,1-4.85.52c-1.88-.17-3-.89-2.87-1.6a2.7,2.7,0,0,1,.25-.34,2.58,2.58,0,0,1,.31-.36l.16-.16a.57.57,0,0,1,.14-.13,3.37,3.37,0,0,1,.43-.34l.18-.14.1-.06.87-.55c.57-.35,1.08-.68,1.41-.91l.21-.18c.13-.1.25-.21.37-.32l0-.05c.11-.1.21-.21.31-.32s.32-.36.45-.54l.23-.27a.47.47,0,0,0,.06-.09,5.48,5.48,0,0,0,.34-.46,5.63,5.63,0,0,0,.33-.54,8.71,8.71,0,0,0,.67-1.46c0-.13.08-.24.09-.3a.18.18,0,0,0,0-.05c-.84,2.18-3.27,3.87-5.52,4.83a11.13,11.13,0,0,1-6.5.7c-2-.3-2.11-1.41-2.11-1.56a.31.31,0,0,1,.07-.09,11,11,0,0,1,3.72-2.88,12.58,12.58,0,0,0,2.25-1.51A11.25,11.25,0,0,1,64.36,146a12.37,12.37,0,0,1-4.82.48c-1.79-.36-2.09-1.23-1.79-2.52a3.89,3.89,0,0,0-.16.44c-.74,2.35-.2,5.84,2.87,7.3h0a4.33,4.33,0,0,0,1.45,2.13,8.35,8.35,0,0,0,6,1.74h0c.71,1,2.45,1.6,5,1.6a12.06,12.06,0,0,0,6.1-2.14h0a9.13,9.13,0,0,0,8-5,8.08,8.08,0,0,0,.83-4.31h0A6.94,6.94,0,0,1,82.93,152.21Z" style="opacity:0.2"></path><path d="M59.8,168c6.09-3.52,16-3.52,22.06,0s6.09,9.22,0,12.74-16,3.52-22.06,0S53.71,171.51,59.8,168Z" style="opacity:0.2"></path><path d="M74.64,158.76a24.64,24.64,0,0,1,8.27,4.83,8.85,8.85,0,0,1,2,10.27,9.14,9.14,0,0,1-8,5,23.54,23.54,0,0,0-.18-9.81C75.48,164.05,74.64,158.76,74.64,158.76Z" style="fill:#FF725E"></path><path d="M74.64,158.76a24.64,24.64,0,0,1,8.27,4.83,8.85,8.85,0,0,1,2,10.27,9.14,9.14,0,0,1-8,5,23.54,23.54,0,0,0-.18-9.81C75.48,164.05,74.64,158.76,74.64,158.76Z" style="opacity:0.2"></path><path d="M68.29,158.5c-1.17,1.66-5.29,2.57-8,4.36s-4.11,3-4.85,5.33-.2,5.84,2.88,7.3,9.34-3.55,10-5.36S68.29,158.5,68.29,158.5Z" style="fill:#FF725E"></path><path d="M68.29,158.5c-1.17,1.66-5.29,2.57-8,4.36s-4.11,3-4.85,5.33-.2,5.84,2.88,7.3,9.34-3.55,10-5.36S68.29,158.5,68.29,158.5Z" style="opacity:0.30000000000000004"></path><path d="M70.2,155.43a5.85,5.85,0,0,0-2.07,5.24c.07,2,.14,6.37-5.49,9.38-4.94,2.65-5.54,5.26-2.9,7.58a8.35,8.35,0,0,0,6.05,1.74s7.35-1.7,8.85-7.2S73.28,157.87,70.2,155.43Z" style="fill:#FF725E"></path><path d="M70.2,155.43a5.85,5.85,0,0,0-2.07,5.24c.07,2,.14,6.37-5.49,9.38-4.94,2.65-5.54,5.26-2.9,7.58a8.35,8.35,0,0,0,6.05,1.74s7.35-1.7,8.85-7.2S73.28,157.87,70.2,155.43Z" style="opacity:0.2"></path><path d="M70.83,181c-4.78,0-6.71-2.05-4.49-4.79,1.1-1.35,3.1-1.91,4.35-3.29a8.73,8.73,0,0,0,2.55-5.21c.42-4.89-5.49-10-2-14.23.38,2.32,1.35,3.65,4.79,6.44A13.62,13.62,0,0,1,80.21,175C79,178.42,73.91,181,70.83,181Z" style="fill:#FF725E"></path><path d="M70.83,181c-4.78,0-6.71-2.05-4.49-4.79,1.1-1.35,3.1-1.91,4.35-3.29a8.73,8.73,0,0,0,2.55-5.21c.42-4.89-5.49-10-2-14.23.38,2.32,1.35,3.65,4.79,6.44A13.62,13.62,0,0,1,80.21,175C79,178.42,73.91,181,70.83,181Z" style="opacity:0.1"></path><path d="M80.75,176.06a10.94,10.94,0,0,0,.26-5.45c-.6,3.24-2.88,5.86-7.27,7.08a13.29,13.29,0,0,1-4.86.53c-1.87-.18-3-.89-2.86-1.6a2.62,2.62,0,0,1,.24-.34,3.68,3.68,0,0,1,.32-.37l.16-.16.14-.13.43-.34.17-.13.11-.06c.29-.2.59-.38.87-.55.57-.36,1.08-.68,1.41-.92l.21-.18a3.73,3.73,0,0,0,.36-.32s0,0,0,0,.21-.21.31-.32.31-.37.45-.55a1.94,1.94,0,0,0,.23-.27l.06-.08c.12-.15.23-.31.34-.47a5.55,5.55,0,0,0,.33-.53,9.09,9.09,0,0,0,.67-1.46c0-.14.08-.25.09-.31a.11.11,0,0,0,0-.05c-.85,2.18-3.27,3.88-5.52,4.84a11.21,11.21,0,0,1-6.5.7c-2-.31-2.11-1.42-2.11-1.56a.22.22,0,0,1,.07-.09,10.92,10.92,0,0,1,3.72-2.88,12.43,12.43,0,0,0,2.25-1.52,11.14,11.14,0,0,1-2.71,1.27,12.37,12.37,0,0,1-4.82.48c-1.8-.37-2.09-1.24-1.8-2.52-.05.14-.11.28-.16.43-.73,2.36-.2,5.84,2.88,7.3h0a4.43,4.43,0,0,0,1.46,2.13,8.35,8.35,0,0,0,6.05,1.74h0c.71,1,2.45,1.59,5,1.59a11.91,11.91,0,0,0,6.09-2.14h0a9.14,9.14,0,0,0,8-5,8.17,8.17,0,0,0,.84-4.31h0A6.94,6.94,0,0,1,80.75,176.06Z" style="opacity:0.2"></path><ellipse cx="89.98" cy="193.1" rx="15.6" ry="9.01" style="opacity:0.2"></ellipse><path d="M94.17,177.5a24.64,24.64,0,0,1,8.27,4.83,8.86,8.86,0,0,1,2,10.27,9.15,9.15,0,0,1-8,5,23.7,23.7,0,0,0-.18-9.8C95,182.79,94.17,177.5,94.17,177.5Z" style="fill:#FF725E"></path><path d="M94.17,177.5a24.64,24.64,0,0,1,8.27,4.83,8.86,8.86,0,0,1,2,10.27,9.15,9.15,0,0,1-8,5,23.7,23.7,0,0,0-.18-9.8C95,182.79,94.17,177.5,94.17,177.5Z" style="opacity:0.2"></path><path d="M87.82,177.24c-1.17,1.66-5.29,2.57-8,4.36s-4.12,3-4.85,5.34-.2,5.83,2.87,7.3,9.34-3.55,10-5.36S87.82,177.24,87.82,177.24Z" style="fill:#FF725E"></path><path d="M87.82,177.24c-1.17,1.66-5.29,2.57-8,4.36s-4.12,3-4.85,5.34-.2,5.83,2.87,7.3,9.34-3.55,10-5.36S87.82,177.24,87.82,177.24Z" style="opacity:0.30000000000000004"></path><path d="M89.72,174.17a5.84,5.84,0,0,0-2.06,5.24c.07,2,.13,6.37-5.49,9.38-5,2.65-5.54,5.27-2.9,7.58a8.33,8.33,0,0,0,6,1.74s7.36-1.69,8.86-7.19S92.8,176.61,89.72,174.17Z" style="fill:#FF725E"></path><path d="M89.72,174.17a5.84,5.84,0,0,0-2.06,5.24c.07,2,.13,6.37-5.49,9.38-5,2.65-5.54,5.27-2.9,7.58a8.33,8.33,0,0,0,6,1.74s7.36-1.69,8.86-7.19S92.8,176.61,89.72,174.17Z" style="opacity:0.2"></path><path d="M90.36,199.7c-4.78,0-6.71-2-4.49-4.79,1.1-1.35,3.1-1.91,4.34-3.29a8.68,8.68,0,0,0,2.55-5.21c.43-4.89-5.49-10-2-14.23.38,2.32,1.35,3.65,4.78,6.44a13.6,13.6,0,0,1,4.24,15.11C98.55,197.16,93.44,199.7,90.36,199.7Z" style="fill:#FF725E"></path><path d="M90.36,199.7c-4.78,0-6.71-2-4.49-4.79,1.1-1.35,3.1-1.91,4.34-3.29a8.68,8.68,0,0,0,2.55-5.21c.43-4.89-5.49-10-2-14.23.38,2.32,1.35,3.65,4.78,6.44a13.6,13.6,0,0,1,4.24,15.11C98.55,197.16,93.44,199.7,90.36,199.7Z" style="opacity:0.1"></path><path d="M100.28,194.8a10.83,10.83,0,0,0,.25-5.45c-.59,3.24-2.87,5.86-7.27,7.09a13.42,13.42,0,0,1-4.85.52c-1.87-.18-3-.89-2.87-1.6.08-.12.16-.23.25-.34a2.64,2.64,0,0,1,.31-.37c.05-.05.1-.11.16-.16l.15-.12a3.29,3.29,0,0,1,.42-.34l.18-.14a.53.53,0,0,1,.1-.06l.88-.55c.56-.36,1.07-.68,1.4-.92l.22-.17.36-.33,0,0c.11-.1.22-.21.32-.32s.31-.37.45-.54.16-.18.23-.28l.06-.08.33-.47c.13-.18.24-.36.34-.53a9.62,9.62,0,0,0,.67-1.46l.09-.31a.11.11,0,0,0,0-.05c-.85,2.18-3.28,3.88-5.53,4.84a11.18,11.18,0,0,1-6.49.7c-2-.3-2.12-1.41-2.12-1.56a.35.35,0,0,1,.07-.09,11.08,11.08,0,0,1,3.73-2.88,12,12,0,0,0,2.24-1.52,11.2,11.2,0,0,1-2.7,1.27,12.41,12.41,0,0,1-4.83.48c-1.79-.37-2.09-1.23-1.79-2.52,0,.15-.11.28-.16.44-.73,2.35-.2,5.83,2.87,7.3h0a4.36,4.36,0,0,0,1.46,2.13,8.33,8.33,0,0,0,6,1.74h0c.71,1,2.46,1.59,5,1.59a12,12,0,0,0,6.09-2.13h0a9.15,9.15,0,0,0,8-5,8,8,0,0,0,.83-4.31h0A6.93,6.93,0,0,1,100.28,194.8Z" style="opacity:0.2"></path><path d="M107.79,197.83c6.09-3.52,16-3.52,22.06,0s6.09,9.22,0,12.74-16,3.51-22.06,0S101.7,201.35,107.79,197.83Z" style="opacity:0.2"></path><path d="M123,188.6a24.47,24.47,0,0,1,8.27,4.83,8.85,8.85,0,0,1,2,10.27,9.13,9.13,0,0,1-8,5,23.69,23.69,0,0,0-.18-9.8C123.85,193.89,123,188.6,123,188.6Z" style="fill:#FF725E"></path><path d="M123,188.6a24.47,24.47,0,0,1,8.27,4.83,8.85,8.85,0,0,1,2,10.27,9.13,9.13,0,0,1-8,5,23.69,23.69,0,0,0-.18-9.8C123.85,193.89,123,188.6,123,188.6Z" style="opacity:0.2"></path><path d="M116.66,188.34c-1.17,1.66-5.29,2.57-8,4.36s-4.11,3-4.85,5.33-.2,5.84,2.88,7.3,9.34-3.55,10-5.36S116.66,188.34,116.66,188.34Z" style="fill:#FF725E"></path><path d="M116.66,188.34c-1.17,1.66-5.29,2.57-8,4.36s-4.11,3-4.85,5.33-.2,5.84,2.88,7.3,9.34-3.55,10-5.36S116.66,188.34,116.66,188.34Z" style="opacity:0.30000000000000004"></path><path d="M118.56,185.27a5.84,5.84,0,0,0-2.06,5.24c.07,2,.13,6.36-5.49,9.38-5,2.65-5.54,5.26-2.9,7.57a8.33,8.33,0,0,0,6,1.75s7.35-1.7,8.85-7.2S121.64,187.71,118.56,185.27Z" style="fill:#FF725E"></path><path d="M118.56,185.27a5.84,5.84,0,0,0-2.06,5.24c.07,2,.13,6.36-5.49,9.38-5,2.65-5.54,5.26-2.9,7.57a8.33,8.33,0,0,0,6,1.75s7.35-1.7,8.85-7.2S121.64,187.71,118.56,185.27Z" style="opacity:0.2"></path><path d="M119.2,210.8c-4.78,0-6.71-2.06-4.49-4.79,1.1-1.35,3.1-1.91,4.35-3.3a8.62,8.62,0,0,0,2.54-5.21c.43-4.88-5.48-10-2-14.22.38,2.32,1.35,3.65,4.79,6.44a13.62,13.62,0,0,1,4.23,15.11C127.4,208.26,122.28,210.8,119.2,210.8Z" style="fill:#FF725E"></path><path d="M119.2,210.8c-4.78,0-6.71-2.06-4.49-4.79,1.1-1.35,3.1-1.91,4.35-3.3a8.62,8.62,0,0,0,2.54-5.21c.43-4.88-5.48-10-2-14.22.38,2.32,1.35,3.65,4.79,6.44a13.62,13.62,0,0,1,4.23,15.11C127.4,208.26,122.28,210.8,119.2,210.8Z" style="opacity:0.1"></path><path d="M129.12,205.89a10.78,10.78,0,0,0,.25-5.44c-.59,3.24-2.87,5.86-7.27,7.08a13.22,13.22,0,0,1-4.85.53c-1.87-.18-3-.89-2.87-1.61l.25-.33a3.57,3.57,0,0,1,.31-.37l.17-.16.14-.13c.14-.12.28-.24.42-.34l.18-.13.1-.06c.3-.2.6-.38.88-.55.57-.36,1.07-.68,1.41-.92l.21-.18.36-.32s0,0,0,0a3.22,3.22,0,0,0,.32-.32c.16-.18.31-.37.45-.55l.23-.27.06-.08c.12-.15.23-.31.34-.47l.33-.54a9.61,9.61,0,0,0,.67-1.45l.09-.31a.13.13,0,0,0,0-.05c-.85,2.18-3.28,3.88-5.52,4.83a11.14,11.14,0,0,1-6.5.71c-2-.31-2.11-1.42-2.11-1.56a.33.33,0,0,1,.06-.1,11.07,11.07,0,0,1,3.73-2.87,13.55,13.55,0,0,0,2.25-1.52,11.67,11.67,0,0,1-2.71,1.26,12.26,12.26,0,0,1-4.83.49c-1.79-.37-2.08-1.24-1.79-2.52-.05.14-.11.28-.16.43-.73,2.36-.2,5.84,2.88,7.3h0a4.34,4.34,0,0,0,1.46,2.13,8.33,8.33,0,0,0,6,1.75h0c.71,1,2.45,1.59,5,1.59a11.91,11.91,0,0,0,6.09-2.14h0a9.13,9.13,0,0,0,8-5,8.08,8.08,0,0,0,.83-4.31h0A6.93,6.93,0,0,1,129.12,205.89Z" style="opacity:0.2"></path><ellipse cx="151.05" cy="208.15" rx="15.6" ry="9.01" style="opacity:0.2"></ellipse><path d="M155.23,192.55a24.67,24.67,0,0,1,8.28,4.83,8.88,8.88,0,0,1,2,10.28,9.13,9.13,0,0,1-8,5,23.7,23.7,0,0,0-.18-9.8C156.08,197.84,155.23,192.55,155.23,192.55Z" style="fill:#FF725E"></path><path d="M155.23,192.55a24.67,24.67,0,0,1,8.28,4.83,8.88,8.88,0,0,1,2,10.28,9.13,9.13,0,0,1-8,5,23.7,23.7,0,0,0-.18-9.8C156.08,197.84,155.23,192.55,155.23,192.55Z" style="opacity:0.2"></path><path d="M148.88,192.29c-1.17,1.66-5.29,2.58-8,4.36s-4.12,3-4.85,5.34-.2,5.84,2.87,7.3,9.34-3.55,10-5.36S148.88,192.29,148.88,192.29Z" style="fill:#FF725E"></path><path d="M148.88,192.29c-1.17,1.66-5.29,2.58-8,4.36s-4.12,3-4.85,5.34-.2,5.84,2.87,7.3,9.34-3.55,10-5.36S148.88,192.29,148.88,192.29Z" style="opacity:0.30000000000000004"></path><path d="M150.79,189.22a5.85,5.85,0,0,0-2.06,5.25c.07,2,.13,6.36-5.49,9.37-5,2.65-5.54,5.27-2.9,7.58a8.33,8.33,0,0,0,6,1.74s7.36-1.69,8.85-7.19S153.87,191.66,150.79,189.22Z" style="fill:#FF725E"></path><path d="M150.79,189.22a5.85,5.85,0,0,0-2.06,5.25c.07,2,.13,6.36-5.49,9.37-5,2.65-5.54,5.27-2.9,7.58a8.33,8.33,0,0,0,6,1.74s7.36-1.69,8.85-7.19S153.87,191.66,150.79,189.22Z" style="opacity:0.2"></path><path d="M151.42,214.75c-4.78,0-6.7-2.05-4.48-4.79,1.1-1.35,3.09-1.91,4.34-3.29a8.65,8.65,0,0,0,2.55-5.21c.43-4.89-5.49-10-2-14.23.37,2.33,1.35,3.65,4.78,6.44a13.59,13.59,0,0,1,4.23,15.12C159.62,212.21,154.51,214.75,151.42,214.75Z" style="fill:#FF725E"></path><path d="M151.42,214.75c-4.78,0-6.7-2.05-4.48-4.79,1.1-1.35,3.09-1.91,4.34-3.29a8.65,8.65,0,0,0,2.55-5.21c.43-4.89-5.49-10-2-14.23.37,2.33,1.35,3.65,4.78,6.44a13.59,13.59,0,0,1,4.23,15.12C159.62,212.21,154.51,214.75,151.42,214.75Z" style="opacity:0.1"></path><path d="M161.35,209.85a10.83,10.83,0,0,0,.25-5.45c-.59,3.24-2.88,5.87-7.27,7.09a13.42,13.42,0,0,1-4.85.52c-1.88-.18-3-.89-2.87-1.6a2.7,2.7,0,0,1,.25-.34,2.11,2.11,0,0,1,.31-.36l.16-.17.15-.12a3.29,3.29,0,0,1,.42-.34l.18-.14.1-.06.87-.55c.57-.36,1.08-.68,1.41-.92a2.18,2.18,0,0,0,.21-.17c.13-.1.25-.22.37-.33l0,0,.32-.32c.16-.18.31-.37.44-.54a2.56,2.56,0,0,0,.23-.27.24.24,0,0,0,.06-.09,4.37,4.37,0,0,0,.34-.47,4.53,4.53,0,0,0,.33-.53,8.71,8.71,0,0,0,.67-1.46c.05-.14.08-.25.1-.3a.18.18,0,0,0,0-.06c-.85,2.18-3.28,3.88-5.53,4.84a11.1,11.1,0,0,1-6.49.7c-2.05-.3-2.12-1.41-2.12-1.56a.35.35,0,0,1,.07-.09,11.13,11.13,0,0,1,3.72-2.88,12.58,12.58,0,0,0,2.25-1.51,11.74,11.74,0,0,1-2.7,1.26,12.41,12.41,0,0,1-4.83.48c-1.79-.36-2.09-1.23-1.79-2.52-.06.15-.11.28-.16.44-.74,2.35-.2,5.84,2.87,7.3h0a4.29,4.29,0,0,0,1.46,2.13,8.33,8.33,0,0,0,6,1.74h0c.71,1,2.46,1.59,5,1.59a12,12,0,0,0,6.1-2.13h0a9.13,9.13,0,0,0,8-5,8.08,8.08,0,0,0,.83-4.31h0A6.94,6.94,0,0,1,161.35,209.85Z" style="opacity:0.2"></path><path d="M171.47,115.11c6.09-3.52,16-3.52,22.06,0s6.09,9.22,0,12.74-16,3.51-22.06,0S165.38,118.63,171.47,115.11Z" style="opacity:0.2"></path><path d="M186.69,105.87a24.69,24.69,0,0,1,8.27,4.84A8.85,8.85,0,0,1,197,121a9.12,9.12,0,0,1-8,5,23.49,23.49,0,0,0-.18-9.8C187.53,111.17,186.69,105.87,186.69,105.87Z" style="fill:#FF725E"></path><path d="M186.69,105.87a24.69,24.69,0,0,1,8.27,4.84A8.85,8.85,0,0,1,197,121a9.12,9.12,0,0,1-8,5,23.49,23.49,0,0,0-.18-9.8C187.53,111.17,186.69,105.87,186.69,105.87Z" style="opacity:0.2"></path><path d="M180.34,105.62c-1.17,1.65-5.29,2.57-8,4.36s-4.11,3-4.85,5.33-.2,5.84,2.88,7.3,9.34-3.55,10-5.36S180.34,105.62,180.34,105.62Z" style="fill:#FF725E"></path><path d="M180.34,105.62c-1.17,1.65-5.29,2.57-8,4.36s-4.11,3-4.85,5.33-.2,5.84,2.88,7.3,9.34-3.55,10-5.36S180.34,105.62,180.34,105.62Z" style="opacity:0.30000000000000004"></path><path d="M182.25,102.55a5.85,5.85,0,0,0-2.07,5.24c.07,2,.14,6.36-5.49,9.38-4.95,2.65-5.54,5.26-2.9,7.57a8.33,8.33,0,0,0,6.05,1.75s7.35-1.7,8.85-7.2S185.33,105,182.25,102.55Z" style="fill:#FF725E"></path><path d="M182.25,102.55a5.85,5.85,0,0,0-2.07,5.24c.07,2,.14,6.36-5.49,9.38-4.95,2.65-5.54,5.26-2.9,7.57a8.33,8.33,0,0,0,6.05,1.75s7.35-1.7,8.85-7.2S185.33,105,182.25,102.55Z" style="opacity:0.2"></path><path d="M182.88,128.08c-4.78,0-6.71-2.06-4.49-4.79,1.1-1.35,3.1-1.91,4.35-3.3a8.62,8.62,0,0,0,2.54-5.21c.43-4.88-5.48-10-2-14.22.38,2.32,1.35,3.65,4.79,6.44a13.62,13.62,0,0,1,4.23,15.11C191.08,125.54,186,128.08,182.88,128.08Z" style="fill:#FF725E"></path><path d="M182.88,128.08c-4.78,0-6.71-2.06-4.49-4.79,1.1-1.35,3.1-1.91,4.35-3.3a8.62,8.62,0,0,0,2.54-5.21c.43-4.88-5.48-10-2-14.22.38,2.32,1.35,3.65,4.79,6.44a13.62,13.62,0,0,1,4.23,15.11C191.08,125.54,186,128.08,182.88,128.08Z" style="opacity:0.1"></path><path d="M192.8,123.17a10.89,10.89,0,0,0,.26-5.44c-.6,3.24-2.88,5.86-7.27,7.08a13.29,13.29,0,0,1-4.86.53c-1.87-.18-3-.89-2.86-1.61a3.43,3.43,0,0,1,.24-.33,3.68,3.68,0,0,1,.32-.37c.05,0,.1-.11.16-.16l.14-.13a3.37,3.37,0,0,1,.43-.34,1.09,1.09,0,0,1,.17-.13.3.3,0,0,1,.11-.06c.29-.2.59-.38.87-.55.57-.36,1.08-.68,1.41-.92l.21-.18a3.73,3.73,0,0,0,.36-.32.1.1,0,0,1,0,0,3.26,3.26,0,0,0,.31-.33c.16-.17.31-.36.45-.54l.23-.27.06-.08c.12-.15.23-.31.34-.47a5.63,5.63,0,0,0,.33-.54,8.69,8.69,0,0,0,.67-1.45c0-.14.08-.25.09-.31a.13.13,0,0,0,0,0c-.85,2.18-3.27,3.88-5.52,4.83a11.13,11.13,0,0,1-6.5.71c-2-.31-2.11-1.42-2.11-1.56a.36.36,0,0,1,.07-.1,10.91,10.91,0,0,1,3.72-2.87,13.55,13.55,0,0,0,2.25-1.52,11.45,11.45,0,0,1-2.71,1.26,12.22,12.22,0,0,1-4.82.49c-1.8-.37-2.09-1.24-1.8-2.52-.05.14-.11.28-.16.43-.73,2.36-.2,5.84,2.88,7.3h0a4.34,4.34,0,0,0,1.46,2.13,8.33,8.33,0,0,0,6.05,1.75h0c.71,1,2.45,1.59,5,1.59a11.91,11.91,0,0,0,6.09-2.14h0a9.12,9.12,0,0,0,8-5,8.18,8.18,0,0,0,.84-4.31h0A6.92,6.92,0,0,1,192.8,123.17Z" style="opacity:0.2"></path><path d="M198.86,128.19c6.09-3.52,16-3.52,22.06,0s6.09,9.22,0,12.73-16,3.52-22.06,0S192.76,131.7,198.86,128.19Z" style="opacity:0.2"></path><path d="M213.7,119a24.91,24.91,0,0,1,8.27,4.83,8.88,8.88,0,0,1,2,10.28,9.13,9.13,0,0,1-8,5,23.69,23.69,0,0,0-.18-9.8C214.54,124.24,213.7,119,213.7,119Z" style="fill:#FF725E"></path><path d="M213.7,119a24.91,24.91,0,0,1,8.27,4.83,8.88,8.88,0,0,1,2,10.28,9.13,9.13,0,0,1-8,5,23.69,23.69,0,0,0-.18-9.8C214.54,124.24,213.7,119,213.7,119Z" style="opacity:0.2"></path><path d="M207.34,118.69c-1.17,1.66-5.28,2.58-8,4.36s-4.12,3-4.85,5.34-.2,5.84,2.87,7.3,9.34-3.55,10-5.36S207.34,118.69,207.34,118.69Z" style="fill:#FF725E"></path><path d="M207.34,118.69c-1.17,1.66-5.28,2.58-8,4.36s-4.12,3-4.85,5.34-.2,5.84,2.87,7.3,9.34-3.55,10-5.36S207.34,118.69,207.34,118.69Z" style="opacity:0.30000000000000004"></path><path d="M209.25,115.62a5.85,5.85,0,0,0-2.06,5.25c.07,2,.13,6.36-5.49,9.37-4.95,2.65-5.54,5.27-2.9,7.58a8.33,8.33,0,0,0,6,1.74s7.36-1.69,8.85-7.19S212.33,118.06,209.25,115.62Z" style="fill:#FF725E"></path><path d="M209.25,115.62a5.85,5.85,0,0,0-2.06,5.25c.07,2,.13,6.36-5.49,9.37-4.95,2.65-5.54,5.27-2.9,7.58a8.33,8.33,0,0,0,6,1.74s7.36-1.69,8.85-7.19S212.33,118.06,209.25,115.62Z" style="opacity:0.2"></path><path d="M209.89,141.16c-4.78,0-6.71-2.06-4.49-4.79,1.1-1.36,3.09-1.92,4.34-3.3a8.62,8.62,0,0,0,2.55-5.21c.43-4.89-5.49-10-2-14.23.37,2.33,1.35,3.65,4.78,6.44a13.6,13.6,0,0,1,4.23,15.12C218.08,138.61,213,141.16,209.89,141.16Z" style="fill:#FF725E"></path><path d="M209.89,141.16c-4.78,0-6.71-2.06-4.49-4.79,1.1-1.36,3.09-1.92,4.34-3.3a8.62,8.62,0,0,0,2.55-5.21c.43-4.89-5.49-10-2-14.23.37,2.33,1.35,3.65,4.78,6.44a13.6,13.6,0,0,1,4.23,15.12C218.08,138.61,213,141.16,209.89,141.16Z" style="opacity:0.1"></path><path d="M219.81,136.25a10.82,10.82,0,0,0,.25-5.45c-.59,3.25-2.87,5.87-7.27,7.09a13.42,13.42,0,0,1-4.85.52c-1.88-.17-3-.89-2.87-1.6a2.7,2.7,0,0,1,.25-.34,2.58,2.58,0,0,1,.31-.36l.16-.16a.87.87,0,0,1,.15-.13,3.29,3.29,0,0,1,.42-.34l.18-.14.1-.06.87-.55c.57-.35,1.08-.68,1.41-.91l.22-.18.36-.32,0,0,.32-.32q.24-.27.45-.54c.08-.1.16-.18.22-.27a.24.24,0,0,0,.06-.09,5.48,5.48,0,0,0,.34-.46,5.63,5.63,0,0,0,.33-.54,8,8,0,0,0,.67-1.46c0-.13.08-.24.1-.3a.18.18,0,0,0,0,0c-.85,2.18-3.28,3.87-5.53,4.83a11.1,11.1,0,0,1-6.49.7c-2.05-.3-2.12-1.41-2.12-1.56a.71.71,0,0,1,.07-.09,11.08,11.08,0,0,1,3.73-2.88,12.47,12.47,0,0,0,2.24-1.51,11.31,11.31,0,0,1-2.7,1.26,12.41,12.41,0,0,1-4.83.48c-1.79-.36-2.09-1.23-1.79-2.52-.05.15-.11.28-.16.44-.74,2.35-.2,5.84,2.87,7.3h0a4.29,4.29,0,0,0,1.46,2.13,8.33,8.33,0,0,0,6,1.74h0c.71,1,2.46,1.6,5,1.6A12,12,0,0,0,216,139h0a9.13,9.13,0,0,0,8-5,8.08,8.08,0,0,0,.83-4.31h0A6.94,6.94,0,0,1,219.81,136.25Z" style="opacity:0.2"></path><path d="M214.51,148.07c6.1-3.51,16-3.51,22.06,0s6.1,9.22,0,12.74-16,3.52-22.06,0S208.42,151.59,214.51,148.07Z" style="opacity:0.2"></path><path d="M229.35,138.84a24.67,24.67,0,0,1,8.28,4.83,8.86,8.86,0,0,1,2,10.27,9.15,9.15,0,0,1-8,5,23.74,23.74,0,0,0-.18-9.81C230.2,144.13,229.35,138.84,229.35,138.84Z" style="fill:#FF725E"></path><path d="M229.35,138.84a24.67,24.67,0,0,1,8.28,4.83,8.86,8.86,0,0,1,2,10.27,9.15,9.15,0,0,1-8,5,23.74,23.74,0,0,0-.18-9.81C230.2,144.13,229.35,138.84,229.35,138.84Z" style="opacity:0.2"></path><path d="M223,138.58c-1.17,1.66-5.29,2.57-8,4.36s-4.12,3-4.85,5.33-.2,5.84,2.87,7.3,9.34-3.55,10-5.35S223,138.58,223,138.58Z" style="fill:#FF725E"></path><path d="M223,138.58c-1.17,1.66-5.29,2.57-8,4.36s-4.12,3-4.85,5.33-.2,5.84,2.87,7.3,9.34-3.55,10-5.35S223,138.58,223,138.58Z" style="opacity:0.30000000000000004"></path><path d="M224.91,135.51a5.84,5.84,0,0,0-2.06,5.24c.07,2,.13,6.37-5.49,9.38-5,2.65-5.54,5.26-2.9,7.58a8.33,8.33,0,0,0,6,1.74s7.36-1.7,8.85-7.2S228,138,224.91,135.51Z" style="fill:#FF725E"></path><path d="M224.91,135.51a5.84,5.84,0,0,0-2.06,5.24c.07,2,.13,6.37-5.49,9.38-5,2.65-5.54,5.26-2.9,7.58a8.33,8.33,0,0,0,6,1.74s7.36-1.7,8.85-7.2S228,138,224.91,135.51Z" style="opacity:0.2"></path><path d="M225.54,161c-4.78,0-6.7-2-4.48-4.79,1.1-1.35,3.09-1.91,4.34-3.29a8.68,8.68,0,0,0,2.55-5.21c.43-4.89-5.49-10-2-14.23.37,2.32,1.35,3.65,4.78,6.44a13.58,13.58,0,0,1,4.23,15.11C233.74,158.5,228.63,161,225.54,161Z" style="fill:#FF725E"></path><path d="M225.54,161c-4.78,0-6.7-2-4.48-4.79,1.1-1.35,3.09-1.91,4.34-3.29a8.68,8.68,0,0,0,2.55-5.21c.43-4.89-5.49-10-2-14.23.37,2.32,1.35,3.65,4.78,6.44a13.58,13.58,0,0,1,4.23,15.11C233.74,158.5,228.63,161,225.54,161Z" style="opacity:0.1"></path><path d="M235.47,156.14a10.83,10.83,0,0,0,.25-5.45c-.59,3.24-2.88,5.86-7.27,7.08a13.24,13.24,0,0,1-4.85.53c-1.88-.18-3-.89-2.87-1.6a2.7,2.7,0,0,1,.25-.34,2.64,2.64,0,0,1,.31-.37c.05-.05.1-.11.16-.16l.15-.13c.13-.12.28-.23.42-.34l.18-.13a.53.53,0,0,1,.1-.06c.3-.2.59-.38.87-.55.57-.36,1.08-.68,1.41-.92l.21-.18c.13-.1.25-.21.37-.32l0,0c.11-.1.21-.21.32-.32s.31-.37.44-.55a1.43,1.43,0,0,0,.23-.27.21.21,0,0,0,.06-.08c.12-.15.23-.31.34-.47a5.55,5.55,0,0,0,.33-.53,9.09,9.09,0,0,0,.67-1.46c0-.14.08-.25.1-.31a.11.11,0,0,0,0,0c-.85,2.18-3.28,3.88-5.53,4.84a11.18,11.18,0,0,1-6.49.7c-2.05-.31-2.12-1.42-2.12-1.56a.35.35,0,0,1,.07-.09,11.13,11.13,0,0,1,3.72-2.88,11.76,11.76,0,0,0,2.25-1.52,11.2,11.2,0,0,1-2.7,1.27,12.41,12.41,0,0,1-4.83.48c-1.79-.37-2.09-1.24-1.79-2.52-.06.14-.11.28-.16.43-.74,2.36-.2,5.84,2.87,7.3h0a4.29,4.29,0,0,0,1.46,2.13,8.33,8.33,0,0,0,6,1.74h0c.71,1,2.46,1.59,5,1.59a12,12,0,0,0,6.1-2.13h0a9.15,9.15,0,0,0,8-5,8.06,8.06,0,0,0,.83-4.31h0A7,7,0,0,1,235.47,156.14Z" style="opacity:0.2"></path><path d="M210.37,169.1c6.09-3.52,16-3.52,22.06,0s6.09,9.22,0,12.74-16,3.51-22.06,0S204.28,172.62,210.37,169.1Z" style="opacity:0.2"></path><path d="M225.21,159.86a24.69,24.69,0,0,1,8.27,4.84,8.85,8.85,0,0,1,2,10.27,9.13,9.13,0,0,1-8,5,23.69,23.69,0,0,0-.18-9.8C226.05,165.16,225.21,159.86,225.21,159.86Z" style="fill:#FF725E"></path><path d="M225.21,159.86a24.69,24.69,0,0,1,8.27,4.84,8.85,8.85,0,0,1,2,10.27,9.13,9.13,0,0,1-8,5,23.69,23.69,0,0,0-.18-9.8C226.05,165.16,225.21,159.86,225.21,159.86Z" style="opacity:0.2"></path><path d="M218.86,159.61c-1.17,1.66-5.29,2.57-8,4.36s-4.12,3-4.85,5.33-.2,5.84,2.88,7.3,9.34-3.55,10-5.36S218.86,159.61,218.86,159.61Z" style="fill:#FF725E"></path><path d="M218.86,159.61c-1.17,1.66-5.29,2.57-8,4.36s-4.12,3-4.85,5.33-.2,5.84,2.88,7.3,9.34-3.55,10-5.36S218.86,159.61,218.86,159.61Z" style="opacity:0.30000000000000004"></path><path d="M220.76,156.54a5.84,5.84,0,0,0-2.06,5.24c.07,2,.13,6.36-5.49,9.38-5,2.65-5.54,5.26-2.9,7.57a8.31,8.31,0,0,0,6,1.75s7.36-1.7,8.86-7.2S223.84,159,220.76,156.54Z" style="fill:#FF725E"></path><path d="M220.76,156.54a5.84,5.84,0,0,0-2.06,5.24c.07,2,.13,6.36-5.49,9.38-5,2.65-5.54,5.26-2.9,7.57a8.31,8.31,0,0,0,6,1.75s7.36-1.7,8.86-7.2S223.84,159,220.76,156.54Z" style="opacity:0.2"></path><path d="M221.4,182.07c-4.78,0-6.71-2.06-4.49-4.79,1.1-1.35,3.1-1.91,4.35-3.3a8.62,8.62,0,0,0,2.54-5.21c.43-4.88-5.48-10-2-14.22.38,2.32,1.35,3.65,4.78,6.44a13.6,13.6,0,0,1,4.24,15.11C229.6,179.53,224.48,182.07,221.4,182.07Z" style="fill:#FF725E"></path><path d="M221.4,182.07c-4.78,0-6.71-2.06-4.49-4.79,1.1-1.35,3.1-1.91,4.35-3.3a8.62,8.62,0,0,0,2.54-5.21c.43-4.88-5.48-10-2-14.22.38,2.32,1.35,3.65,4.78,6.44a13.6,13.6,0,0,1,4.24,15.11C229.6,179.53,224.48,182.07,221.4,182.07Z" style="opacity:0.1"></path><path d="M231.32,177.16a10.78,10.78,0,0,0,.25-5.44c-.59,3.24-2.87,5.86-7.27,7.08a13.24,13.24,0,0,1-4.85.53c-1.87-.18-3-.89-2.87-1.61l.25-.33a2.64,2.64,0,0,1,.31-.37l.16-.16.15-.13a3.29,3.29,0,0,1,.42-.34l.18-.13a.27.27,0,0,1,.1-.06c.3-.2.6-.38.88-.55.56-.36,1.07-.68,1.4-.92l.22-.18.36-.32,0,0a3.34,3.34,0,0,0,.32-.33c.16-.17.31-.36.45-.54l.23-.27.06-.08.33-.47c.13-.19.24-.37.34-.54a9.61,9.61,0,0,0,.67-1.45l.09-.31a.11.11,0,0,0,0,0c-.85,2.18-3.28,3.88-5.52,4.83a11.14,11.14,0,0,1-6.5.71c-2.05-.31-2.11-1.42-2.11-1.56a.33.33,0,0,1,.06-.1,11.07,11.07,0,0,1,3.73-2.87,13,13,0,0,0,2.25-1.52,11.67,11.67,0,0,1-2.71,1.26,12.26,12.26,0,0,1-4.83.49c-1.79-.37-2.08-1.24-1.79-2.52,0,.14-.11.28-.16.43-.73,2.36-.2,5.84,2.88,7.3h0a4.34,4.34,0,0,0,1.46,2.13,8.31,8.31,0,0,0,6,1.75h0c.71,1,2.46,1.59,5.05,1.59a11.91,11.91,0,0,0,6.09-2.14h0a9.13,9.13,0,0,0,8-5,8.08,8.08,0,0,0,.83-4.31h0A6.93,6.93,0,0,1,231.32,177.16Z" style="opacity:0.2"></path></g><g id="freepik--Candles--inject-6"><path d="M128.64,130.14a9.34,9.34,0,0,1,8.46,0c2.34,1.35,2.34,3.54,0,4.88a9.34,9.34,0,0,1-8.46,0C126.3,133.68,126.3,131.49,128.64,130.14Z" style="opacity:0.2"></path><path d="M132.87,88.65a3.31,3.31,0,0,1-3.38-3.7,6.91,6.91,0,0,1,1-3.2,9.83,9.83,0,0,1,3.25-3.66.5.5,0,0,1,.76.38,8.79,8.79,0,0,0,1.07,3.17,8.17,8.17,0,0,1,1,3.31A3.41,3.41,0,0,1,132.87,88.65Z" style="fill:#FF725E"></path><path d="M132.87,81.51c-3.1,3-2.42,6.06,0,6.06S136,84.51,132.87,81.51Z" style="fill:#fff;opacity:0.6000000000000001"></path><path d="M136.81,132.3V92.11h-7.87V132.3h0a2,2,0,0,0,1.15,1.61,6.12,6.12,0,0,0,5.56,0A2,2,0,0,0,136.81,132.3Z" style="fill:#ebebeb"></path><path d="M128.94,104.13c3.08,1.49,7.41-1,7.87-4.5V94.38c-.27,3.6-5.58,6-7.87,4.5Z" style="fill:#FF725E"></path><path d="M128.94,115.07c3.08,1.49,7.41-1,7.87-4.5v-5.25c-.27,3.6-5.58,6-7.87,4.5Z" style="fill:#FF725E"></path><path d="M128.94,126c3.08,1.48,7.41-1,7.87-4.5v-5.25c-.27,3.59-5.58,5.94-7.87,4.49Z" style="fill:#FF725E"></path><path d="M128.94,131.71v.59a2,2,0,0,0,1.15,1.61,6.12,6.12,0,0,0,5.56,0,2,2,0,0,0,1.16-1.6v-5.1C136.54,130.81,131.23,133.15,128.94,131.71Z" style="fill:#FF725E"></path><path d="M135,134.23a4.5,4.5,0,0,0,.7-.32,2,2,0,0,0,1.16-1.61V92.11H135Z" style="opacity:0.1"></path><path d="M130.09,90.5a6.12,6.12,0,0,1,5.56,0c1.54.89,1.54,2.33,0,3.22a6.18,6.18,0,0,1-5.56,0C128.55,92.83,128.55,91.39,130.09,90.5Z" style="fill:#fafafa"></path><path d="M132.87,92.53a.42.42,0,0,1-.42-.42V86.94a.43.43,0,0,1,.85,0v5.17A.42.42,0,0,1,132.87,92.53Z" style="fill:#455a64"></path><ellipse cx="171.41" cy="132.58" rx="5.98" ry="3.45" style="opacity:0.2"></ellipse><path d="M171.41,88.65A3.3,3.3,0,0,1,168,85a6.79,6.79,0,0,1,1-3.2,9.83,9.83,0,0,1,3.24-3.66.5.5,0,0,1,.76.38,8.66,8.66,0,0,0,1.08,3.17,8.33,8.33,0,0,1,1,3.31A3.42,3.42,0,0,1,171.41,88.65Z" style="fill:#FF725E"></path><path d="M171.41,81.51c-3.11,3-2.42,6.06,0,6.06S174.51,84.51,171.41,81.51Z" style="fill:#fff;opacity:0.6000000000000001"></path><path d="M175.34,132.3V92.11h-7.87V132.3h0a2,2,0,0,0,1.15,1.61,6.14,6.14,0,0,0,5.57,0A2,2,0,0,0,175.34,132.3Z" style="fill:#ebebeb"></path><path d="M167.47,104.13c3.09,1.49,7.41-1,7.87-4.5V94.38c-.27,3.6-5.58,6-7.87,4.5Z" style="fill:#FF725E"></path><path d="M167.47,115.07c3.09,1.49,7.41-1,7.87-4.5v-5.25c-.27,3.6-5.58,6-7.87,4.5Z" style="fill:#FF725E"></path><path d="M167.47,126c3.09,1.48,7.41-1,7.87-4.5v-5.25c-.27,3.59-5.58,5.94-7.87,4.49Z" style="fill:#FF725E"></path><path d="M167.47,131.71v.59a2,2,0,0,0,1.15,1.61,6.14,6.14,0,0,0,5.57,0,2,2,0,0,0,1.15-1.6v-5.1C175.07,130.81,169.76,133.15,167.47,131.71Z" style="fill:#FF725E"></path><path d="M173.48,134.23a5.1,5.1,0,0,0,.71-.32,2,2,0,0,0,1.15-1.61V92.11h-1.86Z" style="opacity:0.1"></path><path d="M168.62,90.5a6.14,6.14,0,0,1,5.57,0c1.54.89,1.54,2.33,0,3.22a6.21,6.21,0,0,1-5.57,0C167.09,92.83,167.09,91.39,168.62,90.5Z" style="fill:#fafafa"></path><path d="M171.41,92.53a.42.42,0,0,1-.43-.42V86.94a.43.43,0,0,1,.85,0v5.17A.42.42,0,0,1,171.41,92.53Z" style="fill:#455a64"></path><path d="M196.67,152a9.34,9.34,0,0,1,8.46,0c2.34,1.35,2.34,3.53,0,4.88a9.34,9.34,0,0,1-8.46,0C194.34,155.53,194.34,153.35,196.67,152Z" style="opacity:0.2"></path><path d="M200.9,110.43a3.31,3.31,0,0,1-3.38-3.69,6.93,6.93,0,0,1,1-3.2,9.89,9.89,0,0,1,3.24-3.67.5.5,0,0,1,.76.38,8.66,8.66,0,0,0,1.08,3.17,8.38,8.38,0,0,1,1,3.32A3.41,3.41,0,0,1,200.9,110.43Z" style="fill:#FF725E"></path><path d="M200.9,103.29c-3.1,3-2.41,6.06,0,6.06S204,106.29,200.9,103.29Z" style="fill:#fff;opacity:0.6000000000000001"></path><path d="M204.84,154.09v-40.2H197v40.2h0a1.94,1.94,0,0,0,1.15,1.6,6.14,6.14,0,0,0,5.57,0A1.94,1.94,0,0,0,204.84,154.09Z" style="fill:#ebebeb"></path><path d="M197,125.91c3.08,1.49,7.41-1,7.87-4.49v-5.25c-.27,3.59-5.58,5.94-7.87,4.49Z" style="fill:#FF725E"></path><path d="M197,136.86c3.08,1.49,7.41-1,7.87-4.5v-5.25c-.27,3.6-5.58,5.94-7.87,4.5Z" style="fill:#FF725E"></path><path d="M197,147.8c3.08,1.49,7.41-1,7.87-4.5v-5.25c-.27,3.6-5.58,5.95-7.87,4.5Z" style="fill:#FF725E"></path><path d="M197,153.49v.6a1.94,1.94,0,0,0,1.15,1.6,6.14,6.14,0,0,0,5.57,0,2,2,0,0,0,1.15-1.6V149C204.57,152.59,199.26,154.94,197,153.49Z" style="fill:#FF725E"></path><path d="M203,156a4.15,4.15,0,0,0,.71-.32,1.94,1.94,0,0,0,1.15-1.6v-40.2H203Z" style="opacity:0.1"></path><ellipse cx="200.9" cy="113.89" rx="3.94" ry="2.27" style="fill:#fafafa"></ellipse><path d="M200.9,114.32a.42.42,0,0,1-.42-.43v-5.16a.43.43,0,1,1,.85,0v5.16A.43.43,0,0,1,200.9,114.32Z" style="fill:#455a64"></path><path d="M91.48,152a9.36,9.36,0,0,1,8.47,0c2.33,1.35,2.33,3.53,0,4.88a9.36,9.36,0,0,1-8.47,0C89.15,155.53,89.15,153.35,91.48,152Z" style="opacity:0.2"></path><path d="M95.81,110.43a3.31,3.31,0,0,1-3.38-3.69,7,7,0,0,1,1-3.2,9.89,9.89,0,0,1,3.25-3.67.5.5,0,0,1,.76.38,8.66,8.66,0,0,0,1.08,3.17,8.4,8.4,0,0,1,1,3.32A3.4,3.4,0,0,1,95.81,110.43Z" style="fill:#FF725E"></path><path d="M95.81,103.29c-3.1,3-2.42,6.06,0,6.06S98.91,106.29,95.81,103.29Z" style="fill:#fff;opacity:0.6000000000000001"></path><path d="M99.75,154.09v-40.2H91.88v40.2h0a1.94,1.94,0,0,0,1.15,1.6,6.12,6.12,0,0,0,5.56,0A2,2,0,0,0,99.75,154.09Z" style="fill:#ebebeb"></path><path d="M91.88,125.91c3.08,1.49,7.41-1,7.87-4.49v-5.25c-.27,3.59-5.58,5.94-7.87,4.49Z" style="fill:#FF725E"></path><path d="M91.88,136.86c3.08,1.49,7.41-1,7.87-4.5v-5.25c-.27,3.6-5.58,5.94-7.87,4.5Z" style="fill:#FF725E"></path><path d="M91.88,147.8c3.08,1.49,7.41-1,7.87-4.5v-5.25c-.27,3.6-5.58,5.95-7.87,4.5Z" style="fill:#FF725E"></path><path d="M91.88,153.49v.6a1.94,1.94,0,0,0,1.15,1.6,6.12,6.12,0,0,0,5.56,0,2,2,0,0,0,1.16-1.6V149C99.48,152.59,94.17,154.94,91.88,153.49Z" style="fill:#FF725E"></path><path d="M97.89,156a3.73,3.73,0,0,0,.7-.32,2,2,0,0,0,1.16-1.6v-40.2H97.89Z" style="opacity:0.1"></path><ellipse cx="95.81" cy="113.89" rx="3.94" ry="2.27" style="fill:#fafafa"></ellipse><path d="M95.81,114.32a.42.42,0,0,1-.42-.43v-5.16a.43.43,0,1,1,.85,0v5.16A.43.43,0,0,1,95.81,114.32Z" style="fill:#455a64"></path><ellipse cx="112.01" cy="182.77" rx="5.98" ry="3.45" style="opacity:0.2"></ellipse><path d="M112,138.64a3.31,3.31,0,0,1-3.38-3.7,6.91,6.91,0,0,1,1-3.2,9.83,9.83,0,0,1,3.25-3.66.5.5,0,0,1,.76.38,8.79,8.79,0,0,0,1.07,3.17,8.17,8.17,0,0,1,1,3.31A3.41,3.41,0,0,1,112,138.64Z" style="fill:#FF725E"></path><path d="M112,131.5c-3.1,3-2.42,6.06,0,6.06S115.11,134.5,112,131.5Z" style="fill:#fff;opacity:0.6000000000000001"></path><path d="M116,182.29V142.1h-7.87v40.19h0a2,2,0,0,0,1.15,1.61,6.12,6.12,0,0,0,5.56,0A2,2,0,0,0,116,182.29Z" style="fill:#ebebeb"></path><path d="M108.08,154.12c3.08,1.49,7.41-1,7.87-4.5v-5.25c-.27,3.6-5.58,5.95-7.87,4.5Z" style="fill:#FF725E"></path><path d="M108.08,165.06c3.08,1.49,7.41-1,7.87-4.49v-5.26c-.27,3.6-5.58,5.95-7.87,4.5Z" style="fill:#FF725E"></path><path d="M108.08,176c3.08,1.48,7.41-1,7.87-4.5v-5.25c-.27,3.6-5.58,5.94-7.87,4.49Z" style="fill:#FF725E"></path><path d="M108.08,181.7v.59a2,2,0,0,0,1.15,1.61,6.12,6.12,0,0,0,5.56,0,2,2,0,0,0,1.16-1.6v-5.1C115.68,180.8,110.37,183.15,108.08,181.7Z" style="fill:#FF725E"></path><path d="M114.09,184.22a4.5,4.5,0,0,0,.7-.32,2,2,0,0,0,1.16-1.61V142.1h-1.86Z" style="opacity:0.1"></path><ellipse cx="112.01" cy="142.1" rx="3.94" ry="2.27" style="fill:#fafafa"></ellipse><path d="M112,142.52a.42.42,0,0,1-.42-.42v-5.17a.43.43,0,0,1,.85,0v5.17A.42.42,0,0,1,112,142.52Z" style="fill:#455a64"></path></g></g></g><g id="freepik--piece-of-cake--inject-6"><g id="freepik--Slice--inject-6"><g id="freepik--Plate--inject-6"><path d="M341.44,365.31c-29-16.75-76.06-16.75-105.08,0h0v-3c-15.17,8.76-22.39,20.37-21.7,31.84-.69,11.48,6.53,23.08,21.7,31.84,29,16.76,76.06,16.76,105.08,0S370.45,382.06,341.44,365.31Z" style="fill:#FF725E"></path><path d="M341.44,362.29c29,16.75,29,43.92,0,60.67s-76.06,16.75-105.08,0-29-43.92,0-60.67S312.42,345.54,341.44,362.29Z" style="fill:#FF725E"></path><path d="M341.44,362.29c29,16.75,29,43.92,0,60.67s-76.06,16.75-105.08,0-29-43.92,0-60.67S312.42,345.54,341.44,362.29Z" style="fill:#fff;opacity:0.6000000000000001"></path><path d="M253.27,368.13c-19.94,11.51-19.94,30.17,0,41.69s52.27,11.51,72.21,0,19.95-30.18,0-41.69S273.22,356.61,253.27,368.13Z" style="fill:#FF725E"></path><path d="M253.27,368.13c-19.94,11.51-19.94,30.17,0,41.69s52.27,11.51,72.21,0,19.95-30.18,0-41.69S273.22,356.61,253.27,368.13Z" style="fill:#FF725E"></path><path d="M255.73,369.54c-18.58,10.73-18.58,28.13,0,38.86s48.71,10.73,67.3,0,18.58-28.13,0-38.86S274.32,358.82,255.73,369.54Z" style="fill:#FF725E"></path><path d="M255.73,369.54c-18.58,10.73-18.58,28.13,0,38.86s48.71,10.73,67.3,0,18.58-28.13,0-38.86S274.32,358.82,255.73,369.54Z" style="fill:#fff;opacity:0.6000000000000001"></path></g><path id="freepik--shadow--inject-6" d="M237.13,403.13c0,2.22.19,4.63,2.33,4.63,2.67,0,104.81-.37,109.36-.37s5.23-2.85,3.09-9.79S338,369.48,319.78,365.49Z" style="opacity:0.15"></path><g id="freepik--slice--inject-6"><path d="M237.13,339.21V404a2.38,2.38,0,0,0,2.7,2.35l96.73-13.1a5,5,0,0,0,4.33-5v-63.5a2.35,2.35,0,0,0-.95-1.89L290.37,285.8a4.77,4.77,0,0,0-6.36.6l-45.8,50.05A4.09,4.09,0,0,0,237.13,339.21Z" style="fill:#263238"></path><path d="M312.49,294.12a119.37,119.37,0,0,0-21.92-9.74A5.82,5.82,0,0,0,284.4,286L238,336.69a.46.46,0,0,0,.4.76L339.18,323.8c1.71-.23,1.71.95,1.71.95h0a5.6,5.6,0,0,0-.46-2.28C335.88,312.08,326.57,302.25,312.49,294.12Z" style="fill:#455a64"></path><g style="opacity:0.8"><path d="M239.83,406.32,252,404.67l77.56-10.51a5.42,5.42,0,0,0,4.55-5.21V381.8a3.93,3.93,0,0,0-4.56-4l-92.42,12.46V404A2.38,2.38,0,0,0,239.83,406.32Z" style="fill:#FF725E"></path><path d="M329.55,371.36a5.41,5.41,0,0,0,4.56-5.22V359a3.91,3.91,0,0,0-4.56-4l-92.42,12.45v16.42Z" style="fill:#FF725E"></path><path d="M329.55,348.55a5.41,5.41,0,0,0,4.56-5.22v-7.15a3.91,3.91,0,0,0-4.56-4l-92.42,12.45v16.42Z" style="fill:#FF725E"></path></g><ellipse cx="292.64" cy="299.73" rx="16.92" ry="9.77" style="opacity:0.2"></ellipse><path d="M296.77,282.8a26.8,26.8,0,0,1,9,5.25,9.6,9.6,0,0,1,2.19,11.14,9.91,9.91,0,0,1-8.69,5.39,25.73,25.73,0,0,0-.2-10.64C297.69,288.54,296.77,282.8,296.77,282.8Z" style="fill:#FF725E"></path><path d="M296.77,282.8a26.8,26.8,0,0,1,9,5.25,9.6,9.6,0,0,1,2.19,11.14,9.91,9.91,0,0,1-8.69,5.39,25.73,25.73,0,0,0-.2-10.64C297.69,288.54,296.77,282.8,296.77,282.8Z" style="opacity:0.2"></path><path d="M289.88,282.52c-1.27,1.8-5.74,2.8-8.72,4.73s-4.46,3.24-5.26,5.79-.21,6.34,3.12,7.92,10.13-3.85,10.86-5.81S289.88,282.52,289.88,282.52Z" style="fill:#FF725E"></path><path d="M289.88,282.52c-1.27,1.8-5.74,2.8-8.72,4.73s-4.46,3.24-5.26,5.79-.21,6.34,3.12,7.92,10.13-3.85,10.86-5.81S289.88,282.52,289.88,282.52Z" style="opacity:0.30000000000000004"></path><path d="M292,279.19a6.37,6.37,0,0,0-2.24,5.69c.08,2.13.15,6.91-5.95,10.17-5.37,2.88-6,5.72-3.15,8.22a9,9,0,0,0,6.56,1.89s8-1.83,9.6-7.8S295.29,281.84,292,279.19Z" style="fill:#FF725E"></path><path d="M292,279.19a6.37,6.37,0,0,0-2.24,5.69c.08,2.13.15,6.91-5.95,10.17-5.37,2.88-6,5.72-3.15,8.22a9,9,0,0,0,6.56,1.89s8-1.83,9.6-7.8S295.29,281.84,292,279.19Z" style="opacity:0.2"></path><path d="M292.64,306.89c-5.19,0-7.28-2.23-4.87-5.19,1.2-1.47,3.36-2.08,4.72-3.58a9.41,9.41,0,0,0,2.76-5.65c.46-5.3-5.95-10.81-2.22-15.43.41,2.52,1.46,3.95,5.19,7a14.76,14.76,0,0,1,4.59,16.4C301.53,304.13,296,306.89,292.64,306.89Z" style="fill:#FF725E"></path><path d="M292.64,306.89c-5.19,0-7.28-2.23-4.87-5.19,1.2-1.47,3.36-2.08,4.72-3.58a9.41,9.41,0,0,0,2.76-5.65c.46-5.3-5.95-10.81-2.22-15.43.41,2.52,1.46,3.95,5.19,7a14.76,14.76,0,0,1,4.59,16.4C301.53,304.13,296,306.89,292.64,306.89Z" style="opacity:0.1"></path><path d="M303.4,301.57a11.82,11.82,0,0,0,.28-5.91c-.65,3.52-3.12,6.36-7.89,7.69a14.48,14.48,0,0,1-5.26.57c-2-.19-3.21-1-3.11-1.74a3.09,3.09,0,0,1,.26-.37,3.17,3.17,0,0,1,.34-.39l.18-.18a.73.73,0,0,1,.16-.14,3.24,3.24,0,0,1,.46-.37,1.33,1.33,0,0,1,.19-.14l.11-.07.95-.6c.61-.38,1.17-.73,1.52-1a2.92,2.92,0,0,0,.23-.19c.14-.11.27-.23.4-.35l0-.05c.12-.11.23-.23.34-.35a6.52,6.52,0,0,0,.48-.59,2.15,2.15,0,0,0,.25-.29l.07-.09c.13-.16.25-.33.37-.51s.25-.4.35-.58a9.37,9.37,0,0,0,.73-1.58c.05-.15.08-.27.1-.33a.18.18,0,0,0,0-.06c-.92,2.37-3.55,4.21-6,5.25a12.08,12.08,0,0,1-7.05.76c-2.22-.33-2.29-1.54-2.29-1.69a.29.29,0,0,1,.07-.1,12,12,0,0,1,4-3.12,14,14,0,0,0,2.44-1.65,12.29,12.29,0,0,1-2.93,1.37,13.29,13.29,0,0,1-5.24.52c-1.94-.39-2.26-1.34-1.94-2.73-.06.16-.13.31-.18.47-.79,2.56-.21,6.34,3.12,7.92h0a4.65,4.65,0,0,0,1.58,2.31,9,9,0,0,0,6.56,1.89h0c.77,1.08,2.66,1.73,5.47,1.73a13,13,0,0,0,6.61-2.31h0a9.91,9.91,0,0,0,8.69-5.39,8.74,8.74,0,0,0,.9-4.67h0A7.53,7.53,0,0,1,303.4,301.57Z" style="opacity:0.2"></path><ellipse cx="317.19" cy="315.84" rx="16.92" ry="9.77" style="opacity:0.2"></ellipse><path d="M321.32,298.91a26.8,26.8,0,0,1,9,5.25,9.59,9.59,0,0,1,2.19,11.14,9.91,9.91,0,0,1-8.69,5.38,25.58,25.58,0,0,0-.19-10.63C322.24,304.65,321.32,298.91,321.32,298.91Z" style="fill:#FF725E"></path><path d="M321.32,298.91a26.8,26.8,0,0,1,9,5.25,9.59,9.59,0,0,1,2.19,11.14,9.91,9.91,0,0,1-8.69,5.38,25.58,25.58,0,0,0-.19-10.63C322.24,304.65,321.32,298.91,321.32,298.91Z" style="opacity:0.2"></path><path d="M314.43,298.63c-1.26,1.8-5.73,2.79-8.71,4.73s-4.47,3.24-5.26,5.79-.22,6.33,3.11,7.92,10.14-3.85,10.86-5.81S314.43,298.63,314.43,298.63Z" style="fill:#FF725E"></path><path d="M314.43,298.63c-1.26,1.8-5.73,2.79-8.71,4.73s-4.47,3.24-5.26,5.79-.22,6.33,3.11,7.92,10.14-3.85,10.86-5.81S314.43,298.63,314.43,298.63Z" style="opacity:0.30000000000000004"></path><path d="M316.5,295.3a6.34,6.34,0,0,0-2.23,5.69c.07,2.13.14,6.9-6,10.17-5.37,2.88-6,5.71-3.15,8.22a9,9,0,0,0,6.56,1.89s8-1.83,9.6-7.8S319.84,298,316.5,295.3Z" style="fill:#FF725E"></path><path d="M316.5,295.3a6.34,6.34,0,0,0-2.23,5.69c.07,2.13.14,6.9-6,10.17-5.37,2.88-6,5.71-3.15,8.22a9,9,0,0,0,6.56,1.89s8-1.83,9.6-7.8S319.84,298,316.5,295.3Z" style="opacity:0.2"></path><path d="M317.19,323c-5.18,0-7.28-2.23-4.87-5.19,1.2-1.48,3.36-2.08,4.72-3.58a9.38,9.38,0,0,0,2.76-5.65c.46-5.31-5.95-10.82-2.21-15.44.4,2.52,1.46,4,5.19,7a14.79,14.79,0,0,1,4.59,16.4C326.09,320.24,320.53,323,317.19,323Z" style="fill:#FF725E"></path><path d="M317.19,323c-5.18,0-7.28-2.23-4.87-5.19,1.2-1.48,3.36-2.08,4.72-3.58a9.38,9.38,0,0,0,2.76-5.65c.46-5.31-5.95-10.82-2.21-15.44.4,2.52,1.46,4,5.19,7a14.79,14.79,0,0,1,4.59,16.4C326.09,320.24,320.53,323,317.19,323Z" style="opacity:0.1"></path><path d="M328,317.68a11.71,11.71,0,0,0,.28-5.91c-.64,3.52-3.12,6.36-7.89,7.69a14.7,14.7,0,0,1-5.26.57c-2-.2-3.21-1-3.11-1.74a2.33,2.33,0,0,1,.27-.37,3.14,3.14,0,0,1,.34-.4c.05,0,.11-.12.17-.17a1.07,1.07,0,0,1,.16-.14,3.24,3.24,0,0,1,.46-.37l.19-.14.11-.07.95-.6c.62-.38,1.17-.73,1.53-1l.23-.19.39-.35.05-.05c.12-.11.23-.23.34-.35s.34-.4.49-.59l.25-.29.06-.1c.13-.15.25-.33.37-.5a6.62,6.62,0,0,0,.36-.58,10.43,10.43,0,0,0,.72-1.58,2.56,2.56,0,0,0,.1-.34.11.11,0,0,0,0-.05c-.92,2.36-3.55,4.2-6,5.24a12.07,12.07,0,0,1-7,.77c-2.21-.33-2.29-1.54-2.29-1.69a.31.31,0,0,1,.08-.11,11.9,11.9,0,0,1,4-3.12,13.71,13.71,0,0,0,2.43-1.64,12.08,12.08,0,0,1-2.93,1.37,13.29,13.29,0,0,1-5.24.52c-1.94-.39-2.26-1.34-1.94-2.73-.06.16-.12.3-.18.47-.79,2.55-.21,6.33,3.12,7.92h0a4.65,4.65,0,0,0,1.58,2.31,9,9,0,0,0,6.56,1.89h0c.77,1.07,2.66,1.73,5.47,1.73a13,13,0,0,0,6.61-2.32h0a9.91,9.91,0,0,0,8.69-5.38,8.88,8.88,0,0,0,.91-4.68h0A7.53,7.53,0,0,1,328,317.68Z" style="opacity:0.2"></path><path d="M270.81,314.61a10.17,10.17,0,0,1,9.18,0c2.54,1.46,2.54,3.84,0,5.3a10.17,10.17,0,0,1-9.18,0C268.28,318.45,268.28,316.07,270.81,314.61Z" style="opacity:0.2"></path><path d="M275.4,269.52a3.58,3.58,0,0,1-3.66-4,7.35,7.35,0,0,1,1-3.47,10.67,10.67,0,0,1,3.52-4,.54.54,0,0,1,.83.41,9.28,9.28,0,0,0,1.16,3.44,9,9,0,0,1,1.08,3.6A3.71,3.71,0,0,1,275.4,269.52Z" style="fill:#FF725E"></path><path d="M275.4,261.77c-3.36,3.26-2.62,6.57,0,6.57S278.77,265,275.4,261.77Z" style="fill:#fff;opacity:0.6000000000000001"></path><path d="M279.67,316.88V273.27h-8.54v43.61h0a2.12,2.12,0,0,0,1.25,1.74,6.69,6.69,0,0,0,6,0A2.1,2.1,0,0,0,279.67,316.88Z" style="fill:#ebebeb"></path><path d="M271.13,286.31c3.35,1.62,8.05-1.09,8.54-4.88v-5.69c-.29,3.9-6.05,6.45-8.54,4.88Z" style="fill:#FF725E"></path><path d="M271.13,298.18c3.35,1.62,8.05-1.09,8.54-4.88v-5.69c-.29,3.9-6.05,6.45-8.54,4.88Z" style="fill:#FF725E"></path><path d="M271.13,310.06c3.35,1.61,8.05-1.1,8.54-4.88v-5.7c-.29,3.9-6.05,6.45-8.54,4.88Z" style="fill:#FF725E"></path><path d="M271.13,316.23v.65a2.12,2.12,0,0,0,1.25,1.74,6.69,6.69,0,0,0,6,0,2.12,2.12,0,0,0,1.25-1.74v-5.53C279.38,315.25,273.62,317.8,271.13,316.23Z" style="fill:#FF725E"></path><path d="M277.66,319a4.38,4.38,0,0,0,.76-.34,2.1,2.1,0,0,0,1.25-1.74V273.27h-2Z" style="opacity:0.1"></path><path d="M272.38,271.53a6.69,6.69,0,0,1,6,0c1.67,1,1.67,2.52,0,3.48a6.63,6.63,0,0,1-6,0C270.72,274.05,270.72,272.49,272.38,271.53Z" style="fill:#fafafa"></path><path d="M275.4,273.73a.47.47,0,0,1-.46-.46v-5.6a.46.46,0,0,1,.46-.46.45.45,0,0,1,.46.46v5.6A.46.46,0,0,1,275.4,273.73Z" style="fill:#455a64"></path></g></g></g></svg>