<svg xmlns="http://www.w3.org/2000/svg" viewBox="0 0 500 500"><g id="freepik--background-complete--inject-15"><rect y="382.4" width="500" height="0.25" style="fill:#ebebeb"></rect><rect x="372.33" y="398.49" width="77.57" height="0.25" style="fill:#ebebeb"></rect><rect x="278" y="394.99" width="55.33" height="0.25" style="fill:#ebebeb"></rect><rect x="356.76" y="389.21" width="59.02" height="0.25" style="fill:#ebebeb"></rect><rect x="52.46" y="390.89" width="12.69" height="0.25" style="fill:#ebebeb"></rect><rect x="74.06" y="390.89" width="71.61" height="0.25" style="fill:#ebebeb"></rect><rect x="173.16" y="395.11" width="46.84" height="0.25" style="fill:#ebebeb"></rect><path d="M237,337.8H43.91a5.71,5.71,0,0,1-5.7-5.71V60.66A5.71,5.71,0,0,1,43.91,55H237a5.71,5.71,0,0,1,5.71,5.71V332.09A5.71,5.71,0,0,1,237,337.8ZM43.91,55.2a5.46,5.46,0,0,0-5.45,5.46V332.09a5.46,5.46,0,0,0,5.45,5.46H237a5.47,5.47,0,0,0,5.46-5.46V60.66A5.47,5.47,0,0,0,237,55.2Z" style="fill:#ebebeb"></path><path d="M453.31,337.8H260.21a5.72,5.72,0,0,1-5.71-5.71V60.66A5.72,5.72,0,0,1,260.21,55h193.1A5.71,5.71,0,0,1,459,60.66V332.09A5.71,5.71,0,0,1,453.31,337.8ZM260.21,55.2a5.47,5.47,0,0,0-5.46,5.46V332.09a5.47,5.47,0,0,0,5.46,5.46h193.1a5.47,5.47,0,0,0,5.46-5.46V60.66a5.47,5.47,0,0,0-5.46-5.46Z" style="fill:#ebebeb"></path><rect x="69.04" y="38.14" width="117.11" height="271.74" style="fill:#f5f5f5"></rect><rect x="191.19" y="38.14" width="117.11" height="271.74" style="fill:#f5f5f5"></rect><rect x="313.85" y="38.14" width="117.11" height="271.74" style="fill:#f5f5f5"></rect><polygon points="133 309.88 101.53 309.88 166.4 38.14 197.87 38.14 133 309.88" style="fill:#fff;opacity:0.5"></polygon><polygon points="227.34 309.88 195.87 309.88 260.73 38.14 292.21 38.14 227.34 309.88" style="fill:#fff;opacity:0.5"></polygon><polygon points="266.73 309.88 235.26 309.88 300.13 38.14 331.6 38.14 266.73 309.88" style="fill:#fff;opacity:0.5"></polygon><polygon points="342.49 309.88 326.75 309.88 391.62 38.14 407.36 38.14 342.49 309.88" style="fill:#fff;opacity:0.5"></polygon><g style="opacity:0.6000000000000001"><rect x="335.81" y="195.79" width="108.94" height="186.61" rx="24.02" style="fill:#fafafa"></rect><rect x="354.16" y="183.24" width="72.26" height="12.83" rx="3.74" style="fill:#fafafa"></rect></g><path d="M420.73,196.79a23,23,0,0,1,23,23V358.38a23,23,0,0,1-23,23h-60.9a23.05,23.05,0,0,1-23-23V219.81a23.05,23.05,0,0,1,23-23h60.9m0-1h-60.9a24,24,0,0,0-24,24V358.38a24,24,0,0,0,24,24h60.9a24,24,0,0,0,24-24V219.81a24,24,0,0,0-24-24Z" style="fill:#ebebeb"></path><path d="M422.67,184.24a2.74,2.74,0,0,1,2.74,2.74v5.34a2.75,2.75,0,0,1-2.74,2.75H357.9a2.75,2.75,0,0,1-2.74-2.75V187a2.74,2.74,0,0,1,2.74-2.74h64.77m0-1H357.9a3.73,3.73,0,0,0-3.74,3.74v5.34a3.74,3.74,0,0,0,3.74,3.75h64.77a3.74,3.74,0,0,0,3.74-3.75V187a3.73,3.73,0,0,0-3.74-3.74Z" style="fill:#ebebeb"></path><g style="opacity:0.7000000000000001"><path d="M371.35,200.79h17.83a11.52,11.52,0,0,1,7.42,20.33l-36.85,31a11.52,11.52,0,0,1-18.94-8.81v-12A30.54,30.54,0,0,1,371.35,200.79Z" style="fill:#fff"></path></g><rect x="59.31" y="225.97" width="177.33" height="135.54" rx="9.12" transform="translate(441.71 145.76) rotate(90)" style="fill:#e0e0e0"></rect><rect x="67.63" y="225.97" width="177.33" height="135.54" rx="9.12" transform="translate(450.03 137.44) rotate(90)" style="fill:#e6e6e6"></rect><rect x="69.63" y="227.97" width="173.33" height="131.54" rx="7.12" transform="translate(450.03 137.44) rotate(90)" style="fill:#fff;opacity:0.4"></rect><polygon points="224.07 297.32 224.07 271.48 88.53 301.58 88.53 327.42 224.07 297.32" style="fill:#fff;opacity:0.4"></polygon><polygon points="224.07 320.86 224.07 305.78 88.53 335.89 88.53 350.96 224.07 320.86" style="fill:#fff;opacity:0.4"></polygon><rect x="155.55" y="196.47" width="1.14" height="135.89" transform="translate(420.53 108.29) rotate(90)" style="fill:#fff"></rect><rect x="163.71" y="204.63" width="1.14" height="177.77" style="fill:#fff"></rect><path d="M164.78,264.41a.54.54,0,0,1-.05.22.49.49,0,0,1-.53.27c-18.14-3-39.39-22.14-39.89-36-.11-3.16.48-4.94,1.83-5.44,3.7-1.37,11.58,8.08,23.18,22.66,5.77,7.24,11.21,14.09,15.3,17.93A.48.48,0,0,1,164.78,264.41Zm-39.49-36.25c0,.22,0,.46,0,.71.48,13.07,20.07,31,37.45,34.75-4-4-9-10.28-14.21-16.88-8.79-11.05-18.75-23.57-22-22.35C125.7,224.68,125.29,226,125.29,228.16Z" style="fill:#fff"></path><path d="M209.37,227v0c-.05,11.61-29.75,33.57-45,37.85a.5.5,0,0,1-.63-.56c2.21-13.52,15.65-33.47,27.64-41,4.51-2.85,8.49-3.79,11.83-2.82C207.31,221.64,209.37,223.84,209.37,227Zm-44.46,36.7c14.83-4.62,43.41-25.84,43.46-36.67v0c0-2.67-1.81-4.55-5.38-5.58-3.06-.89-6.77,0-11,2.7C180.39,231.44,167.47,250.43,164.91,263.7Z" style="fill:#fff"></path><path d="M195.17,281a13.82,13.82,0,0,1-.6,3.9c-.5,1.71-1.38,2.74-2.62,3-4.16,1.05-11.42-6.31-19.83-14.83-2.76-2.8-5.62-5.69-8.39-8.29a.5.5,0,0,1-.11-.59.49.49,0,0,1,.53-.27c12,1.95,25.08,4.62,29.48,11.6A10.06,10.06,0,0,1,195.17,281Zm-29.58-15.78c2.41,2.31,4.86,4.79,7.24,7.2,7.51,7.61,15.27,15.47,18.87,14.56.89-.22,1.51-1,1.91-2.36,1-3.31.7-6.1-.83-8.52C188.8,269.73,176.88,267.07,165.59,265.17Z" style="fill:#fff"></path><path d="M164.57,264.41a.19.19,0,0,1,0,.08c-2.15,13.19-9.33,29.7-15,30.44-1.08.14-2.61-.24-3.77-2.85-2.25-5-1.61-10.9,1.78-16.49,3.91-6.43,10.85-11.34,16.5-11.68a.54.54,0,0,1,.4.17A.51.51,0,0,1,164.57,264.41Zm-19.13,21.42a14.11,14.11,0,0,0,1.23,5.84c.73,1.65,1.65,2.41,2.74,2.27,4.56-.59,11.69-15.36,14.06-29-5.23.63-11.47,5.21-15.07,11.14A18.74,18.74,0,0,0,145.44,285.83Z" style="fill:#fff"></path></g><g id="freepik--Shadow--inject-15"><ellipse id="freepik--path--inject-15" cx="245" cy="416.24" rx="193.89" ry="11.32" style="fill:#f5f5f5"></ellipse></g><g id="freepik--teddy-bear--inject-15"><path d="M379.51,357.72c-6.29,27-25.27,27.43-47.34,22.28s-38.87-14-32.58-40.94,30.8-51.09,52.87-45.94S385.81,330.75,379.51,357.72Z" style="fill:#FF725E"></path><path d="M379.51,357.72c-6.29,27-25.27,27.43-47.34,22.28s-38.87-14-32.58-40.94,30.8-51.09,52.87-45.94S385.81,330.75,379.51,357.72Z" style="fill:#fff;opacity:0.6"></path><path d="M376.54,316.7c14.37,9.9,33.79,6.14,36.95,16.11,1.71,5.39-3,16.52-10.27,16.63-14.18.21-28.71-12.53-28.71-12.53S373.8,321.93,376.54,316.7Z" style="fill:#FF725E"></path><path d="M376.54,316.7c14.37,9.9,33.79,6.14,36.95,16.11,1.71,5.39-3,16.52-10.27,16.63-14.18.21-28.71-12.53-28.71-12.53S373.8,321.93,376.54,316.7Z" style="fill:#fff;opacity:0.6"></path><path d="M328.63,309.3c-16.38-6-24.51-24.06-34.47-20.89-5.39,1.71-11.76,12-7.66,18,8,11.71,26.79,16.22,26.79,16.22S325.94,314.55,328.63,309.3Z" style="fill:#FF725E"></path><path d="M328.63,309.3c-16.38-6-24.51-24.06-34.47-20.89-5.39,1.71-11.76,12-7.66,18,8,11.71,26.79,16.22,26.79,16.22S325.94,314.55,328.63,309.3Z" style="fill:#fff;opacity:0.6"></path><path d="M340.46,373.84c2.41-5.09,38.14-28.08,38.14-19.88a119.71,119.71,0,0,1-7.14,41.21s13.84,6.65,10.3,20.75c-1.7,6.77-38.41,5.3-38.63-1.68C342.65,398.21,336.22,382.78,340.46,373.84Z" style="fill:#FF725E"></path><path d="M340.46,373.84c2.41-5.09,38.14-28.08,38.14-19.88a119.71,119.71,0,0,1-7.14,41.21s13.84,6.65,10.3,20.75c-1.7,6.77-38.41,5.3-38.63-1.68C342.65,398.21,336.22,382.78,340.46,373.84Z" style="fill:#fff;opacity:0.6"></path><path d="M327.57,372.47c-1.56-5.41-24.44-43.56-27.2-35.84a119.79,119.79,0,0,0-7.16,41.2s-15.28,1.6-16.69,16.07c-.67,7,34.39,17.92,36.94,11.43C319.32,390.4,330.31,382,327.57,372.47Z" style="fill:#FF725E"></path><path d="M327.57,372.47c-1.56-5.41-24.44-43.56-27.2-35.84a119.79,119.79,0,0,0-7.16,41.2s-15.28,1.6-16.69,16.07c-.67,7,34.39,17.92,36.94,11.43C319.32,390.4,330.31,382,327.57,372.47Z" style="fill:#fff;opacity:0.6"></path><path d="M372,342.91c-4.52,19.38-18.16,19.71-34,16s-27.94-10-23.41-29.42,22.12-36.7,38-33S376.54,323.54,372,342.91Z" style="fill:#FF725E;opacity:0.35000000000000003"></path><ellipse cx="324.93" cy="256.07" rx="17.51" ry="20.6" transform="translate(1.68 514.26) rotate(-76.86)" style="fill:#FF725E"></ellipse><ellipse cx="324.93" cy="256.07" rx="17.51" ry="20.6" transform="translate(1.68 514.26) rotate(-76.86)" style="fill:#fff;opacity:0.6"></ellipse><ellipse cx="325.66" cy="261.97" rx="11.54" ry="13.58" transform="translate(-3.5 519.53) rotate(-76.86)" style="fill:#FF725E;opacity:0.35000000000000003"></ellipse><path d="M373.49,267.41c-2.2,9.42,5,19.15,16.08,21.74s21.84-2.95,24-12.37-5-19.15-16.08-21.74S375.69,258,373.49,267.41Z" style="fill:#FF725E"></path><path d="M373.49,267.41c-2.2,9.42,5,19.15,16.08,21.74s21.84-2.95,24-12.37-5-19.15-16.08-21.74S375.69,258,373.49,267.41Z" style="fill:#fff;opacity:0.6"></path><ellipse cx="390.28" cy="277.06" rx="11.54" ry="13.58" transform="translate(31.73 594.12) rotate(-76.86)" style="fill:#FF725E;opacity:0.35000000000000003"></ellipse><ellipse cx="354.38" cy="284.88" rx="41.58" ry="43.63" transform="translate(-3.62 565.2) rotate(-76.86)" style="fill:#FF725E"></ellipse><ellipse cx="354.38" cy="284.88" rx="41.58" ry="43.63" transform="translate(-3.62 565.2) rotate(-76.86)" style="fill:#fff;opacity:0.6"></ellipse><path d="M373.28,304.12c-.76,3.24-5.38,6.65-10.61,9.55A21.79,21.79,0,0,1,334.21,307c-3.41-4.92-6-10-5.29-13.26,1.87-8,13.32-12.2,25.57-9.34S375.15,296.1,373.28,304.12Z" style="fill:#FF725E;opacity:0.35000000000000003"></path><circle cx="341.35" cy="275.1" r="3.54" transform="translate(-24.51 516.65) rotate(-72.3)" style="fill:#263238"></circle><path d="M373.85,282.69a3.54,3.54,0,1,1-2.64-4.25A3.55,3.55,0,0,1,373.85,282.69Z" style="fill:#263238"></path><path d="M360.9,293.43c-.69,2.92-10,6.19-10,6.19s-6.86-7-6.18-10,4.84-4.44,9.3-3.4S361.58,290.51,360.9,293.43Z" style="fill:#263238"></path><path d="M355.67,306.62a27.4,27.4,0,0,1-6.19-.74c-5.1-1.19-9.4-3.59-11.49-6.42a1,1,0,0,1,.21-1.4,1,1,0,0,1,1.4.21c1.79,2.42,5.75,4.59,10.33,5.66s9.1.88,11.78-.49a1,1,0,0,1,1.35.43,1,1,0,0,1-.44,1.35A15.5,15.5,0,0,1,355.67,306.62Z" style="fill:#263238"></path><path d="M349.71,305.91a.91.91,0,0,1-.23,0,1,1,0,0,1-.75-1.2l2.68-11.47a1,1,0,0,1,1.2-.75,1,1,0,0,1,.75,1.21l-2.68,11.46A1,1,0,0,1,349.71,305.91Z" style="fill:#263238"></path></g><g id="freepik--Balloon--inject-15"><path d="M228.46,357.14c-11.65-3.05-18.91-7.77-22.19-14.43-5-10.19.47-23.09,5.29-34.48,4-9.52,7.85-18.51,4.58-23.9-2-3.23-6.36-5.07-13.44-5.62-18.34-1.44-31.21-6.83-38.25-16-6.25-8.16-7.95-19.2-5.21-33.76l.92.18c-2.69,14.27-1,25.07,5,33,6.87,9,19.52,14.25,37.58,15.66,7.4.58,12,2.57,14.17,6.08,3.52,5.79-.38,15-4.52,24.75-4.74,11.2-10.13,23.89-5.31,33.7,3.15,6.4,10.21,11,21.59,13.93Z" style="fill:#263238"></path><path d="M207.57,118.12a2.8,2.8,0,0,0,.68-2.74A47.62,47.62,0,0,0,203,103.49a2.79,2.79,0,0,0-2.49-1.33,2.82,2.82,0,0,0-.38-2.8,45.93,45.93,0,0,0-9.38-9,2.78,2.78,0,0,0-2.81-.28,2.8,2.8,0,0,0-1.42-2.44l-.12-.07a47.25,47.25,0,0,0-12.11-4.78,2.78,2.78,0,0,0-2.7.81,2.81,2.81,0,0,0-2.24-1.73,47.33,47.33,0,0,0-13,.11,2.79,2.79,0,0,0-2.2,1.76,2.8,2.8,0,0,0-2.71-.77,47.09,47.09,0,0,0-12,4.95,2.78,2.78,0,0,0-1.4,2.45,2.78,2.78,0,0,0-2.8.3c-1.08.79-2.13,1.64-3.13,2.52a22.83,22.83,0,0,1-6.41,3.95A2.77,2.77,0,0,0,124,98.92a2.82,2.82,0,0,0-2.37-.63,22.36,22.36,0,0,1-9.18-.1c-.65-.15-1.31-.28-2-.39a2.82,2.82,0,0,0-2.65,1,2.8,2.8,0,0,0-2.34-1.57,47.19,47.19,0,0,0-13,.93A2.81,2.81,0,0,0,90.41,100a2.82,2.82,0,0,0-2.76-.59A47.48,47.48,0,0,0,76,105.12a2.81,2.81,0,0,0-1.24,2.54,2.79,2.79,0,0,0-2.77.48,46.67,46.67,0,0,0-8.72,9.67,2.79,2.79,0,0,0-.2,2.81,2.78,2.78,0,0,0-2.39,1.48,46,46,0,0,0-4.44,12.26,2.81,2.81,0,0,0,.9,2.68,2.81,2.81,0,0,0-1.65,2.29,47.37,47.37,0,0,0,.55,13,2.78,2.78,0,0,0,1.82,2.14,2.8,2.8,0,0,0-.68,2.74,48.88,48.88,0,0,0,5.25,11.88,2.79,2.79,0,0,0,2.47,1.34,2.84,2.84,0,0,0,.36,2.8,48.19,48.19,0,0,0,9.22,9.16,2.79,2.79,0,0,0,2.8.34,2.78,2.78,0,0,0,1.35,2.47l10.6,6.27a2.83,2.83,0,0,0,2.69.09,2.77,2.77,0,0,0,1.38,2.31l10.57,6.25a2.83,2.83,0,0,0,2.69.09,2.82,2.82,0,0,0,1.38,2.31l10.57,6.25a2.83,2.83,0,0,0,2.69.09,2.82,2.82,0,0,0,1.38,2.31l10.58,6.25a2.8,2.8,0,0,0,2.73.07,2.81,2.81,0,0,0,1.59,2.37,25.13,25.13,0,0,0,13.45,2.33,2.82,2.82,0,0,0,2.34-1.78,2.79,2.79,0,0,0,2.69.74l.16,0a25.25,25.25,0,0,0,11.38-7.54,2.79,2.79,0,0,0,.47-2.89,2.81,2.81,0,0,0,2.52-1.38l6.25-10.58a2.81,2.81,0,0,0,.09-2.68,2.82,2.82,0,0,0,2.31-1.38l6.25-10.58a2.83,2.83,0,0,0,.09-2.69,2.77,2.77,0,0,0,2.31-1.38L194,169.45a2.83,2.83,0,0,0,.09-2.69,2.8,2.8,0,0,0,2.31-1.38l6.25-10.57a2.78,2.78,0,0,0,.06-2.75,2.81,2.81,0,0,0,2.34-1.54,48.06,48.06,0,0,0,4.21-12.31,2.79,2.79,0,0,0-.92-2.66,2.81,2.81,0,0,0,1.63-2.3,48.77,48.77,0,0,0-.57-13A2.78,2.78,0,0,0,207.57,118.12Z" style="fill:#FF725E"></path><path d="M207.57,118.12a2.8,2.8,0,0,0,.68-2.74A47.62,47.62,0,0,0,203,103.49a2.79,2.79,0,0,0-2.49-1.33,2.82,2.82,0,0,0-.38-2.8,45.93,45.93,0,0,0-9.38-9,2.78,2.78,0,0,0-2.81-.28,2.8,2.8,0,0,0-1.42-2.44l-.12-.07a47.25,47.25,0,0,0-12.11-4.78,2.78,2.78,0,0,0-2.7.81,2.81,2.81,0,0,0-2.24-1.73,47.33,47.33,0,0,0-13,.11,2.79,2.79,0,0,0-2.2,1.76,2.8,2.8,0,0,0-2.71-.77,47.09,47.09,0,0,0-12,4.95,2.78,2.78,0,0,0-1.4,2.45,2.78,2.78,0,0,0-2.8.3c-1.08.79-2.13,1.64-3.13,2.52a22.83,22.83,0,0,1-6.41,3.95A2.77,2.77,0,0,0,124,98.92a2.82,2.82,0,0,0-2.37-.63,22.36,22.36,0,0,1-9.18-.1c-.65-.15-1.31-.28-2-.39a2.82,2.82,0,0,0-2.65,1,2.8,2.8,0,0,0-2.34-1.57,47.19,47.19,0,0,0-13,.93A2.81,2.81,0,0,0,90.41,100a2.82,2.82,0,0,0-2.76-.59A47.48,47.48,0,0,0,76,105.12a2.81,2.81,0,0,0-1.24,2.54,2.79,2.79,0,0,0-2.77.48,46.67,46.67,0,0,0-8.72,9.67,2.79,2.79,0,0,0-.2,2.81,2.78,2.78,0,0,0-2.39,1.48,46,46,0,0,0-4.44,12.26,2.81,2.81,0,0,0,.9,2.68,2.81,2.81,0,0,0-1.65,2.29,47.37,47.37,0,0,0,.55,13,2.78,2.78,0,0,0,1.82,2.14,2.8,2.8,0,0,0-.68,2.74,48.88,48.88,0,0,0,5.25,11.88,2.79,2.79,0,0,0,2.47,1.34,2.84,2.84,0,0,0,.36,2.8,48.19,48.19,0,0,0,9.22,9.16,2.79,2.79,0,0,0,2.8.34,2.78,2.78,0,0,0,1.35,2.47l10.6,6.27a2.83,2.83,0,0,0,2.69.09,2.77,2.77,0,0,0,1.38,2.31l10.57,6.25a2.83,2.83,0,0,0,2.69.09,2.82,2.82,0,0,0,1.38,2.31l10.57,6.25a2.83,2.83,0,0,0,2.69.09,2.82,2.82,0,0,0,1.38,2.31l10.58,6.25a2.8,2.8,0,0,0,2.73.07,2.81,2.81,0,0,0,1.59,2.37,25.13,25.13,0,0,0,13.45,2.33,2.82,2.82,0,0,0,2.34-1.78,2.79,2.79,0,0,0,2.69.74l.16,0a25.25,25.25,0,0,0,11.38-7.54,2.79,2.79,0,0,0,.47-2.89,2.81,2.81,0,0,0,2.52-1.38l6.25-10.58a2.81,2.81,0,0,0,.09-2.68,2.82,2.82,0,0,0,2.31-1.38l6.25-10.58a2.83,2.83,0,0,0,.09-2.69,2.77,2.77,0,0,0,2.31-1.38L194,169.45a2.83,2.83,0,0,0,.09-2.69,2.8,2.8,0,0,0,2.31-1.38l6.25-10.57a2.78,2.78,0,0,0,.06-2.75,2.81,2.81,0,0,0,2.34-1.54,48.06,48.06,0,0,0,4.21-12.31,2.79,2.79,0,0,0-.92-2.66,2.81,2.81,0,0,0,1.63-2.3,48.77,48.77,0,0,0-.57-13A2.78,2.78,0,0,0,207.57,118.12Z" style="fill:#fff;opacity:0.25"></path><path d="M149.56,221c1.49,3.47-1.34,11.43.52,12.68,4.25,2.87,11,.82,13.21-3.22,1.13-2-6-7.25-6.22-11.3C154.12,219.49,152.16,219.51,149.56,221Z" style="fill:#FF725E"></path><path d="M159.58,223.24,150.69,227a1.29,1.29,0,0,1-1.68-.69h0a1.28,1.28,0,0,1,.68-1.68l8.9-3.73a1.29,1.29,0,0,1,1.68.69h0A1.29,1.29,0,0,1,159.58,223.24Z" style="fill:#263238"></path><path d="M158.85,222.48l-9.48,1.76a1.29,1.29,0,0,1-1.5-1h0a1.29,1.29,0,0,1,1-1.5l9.48-1.76a1.29,1.29,0,0,1,1.5,1h0A1.31,1.31,0,0,1,158.85,222.48Z" style="fill:#263238"></path><path d="M91,146.4a19.53,19.53,0,0,1-9-12.1,17.77,17.77,0,0,1,2-13.64,18.28,18.28,0,0,1,19.43-8.23,51.37,51.37,0,0,0,44.93-11.56,18.3,18.3,0,0,1,21-2.17,17.82,17.82,0,0,1,8.35,11,19.56,19.56,0,0,1-2,14.92L158.6,153.67a28.12,28.12,0,0,1-38.51,9.91Z" style="fill:#fff;opacity:0.1"></path><path d="M148.28,219.76a22.43,22.43,0,0,1-8.62-1.71,2.2,2.2,0,0,1-1.32-1.91v-.06a1.76,1.76,0,0,0-2.57-1.45l-.14.08a2.26,2.26,0,0,1-2.17-.06l-8.68-5.13a2.22,2.22,0,0,1-1.1-1.83v-.19a1.76,1.76,0,0,0-.86-1.44,1.73,1.73,0,0,0-1.68-.06l-.17.08a2.18,2.18,0,0,1-2.13-.07l-8.71-5.14A2.23,2.23,0,0,1,109,199v-.19a1.75,1.75,0,0,0-2.54-1.5l-.17.08a2.21,2.21,0,0,1-2.13-.07l-8.7-5.14a2.23,2.23,0,0,1-1.09-1.83v-.19a1.76,1.76,0,0,0-2.54-1.5l-.17.08a2.22,2.22,0,0,1-2.12-.07l-8.67-5.12a2.22,2.22,0,0,1-1.09-2v-.1A1.73,1.73,0,0,0,79,180a1.76,1.76,0,0,0-1.68-.15,2.22,2.22,0,0,1-2.31-.27,45.44,45.44,0,0,1-7.05-7,2.2,2.2,0,0,1-.31-2.25l0-.08a1.77,1.77,0,0,0-.17-1.67,1.73,1.73,0,0,0-1.5-.76H66a2.22,2.22,0,0,1-2-1.1,45.73,45.73,0,0,1-4-9.11,2.17,2.17,0,0,1,.53-2.2l.06-.07a1.75,1.75,0,0,0-.67-2.87l-.09,0a2.21,2.21,0,0,1-1.46-1.74,45.4,45.4,0,0,1-.42-9.94,2.22,2.22,0,0,1,1.32-1.86l.08,0a1.75,1.75,0,0,0,.44-2.92l-.07-.06a2.19,2.19,0,0,1-.7-2.16,43.46,43.46,0,0,1,3.38-9.36,2.19,2.19,0,0,1,1.93-1.21h.09a1.74,1.74,0,0,0,1.52-2.52l0-.09a2.23,2.23,0,0,1,.17-2.26,44.69,44.69,0,0,1,6.67-7.4,2.22,2.22,0,0,1,2.24-.4l.08,0a1.75,1.75,0,0,0,2.36-1.77v-.09a2.21,2.21,0,0,1,1-2,44.61,44.61,0,0,1,9-4.35,2.21,2.21,0,0,1,2.23.46l.06.06a1.76,1.76,0,0,0,1.64.39A1.73,1.73,0,0,0,92.47,102l0-.09a2.18,2.18,0,0,1,1.7-1.51,44.69,44.69,0,0,1,9.93-.72A2.2,2.2,0,0,1,106,101l0,.08a1.79,1.79,0,0,0,1.37,1,1.74,1.74,0,0,0,1.56-.63l.07-.07a2.21,2.21,0,0,1,2.16-.76l.67.14a25,25,0,0,0,9.31.28,2.23,2.23,0,0,1,1.82.5l.26.21a1.75,1.75,0,0,0,2.82-.84l.09-.32a2.29,2.29,0,0,1,1.25-1.41,25,25,0,0,0,6.29-4c.65-.57,1.33-1.13,2-1.67a2.22,2.22,0,0,1,2.25-.26l.09,0a1.72,1.72,0,0,0,1.67-.13,1.75,1.75,0,0,0,.79-1.48v-.1a2.22,2.22,0,0,1,1.14-2,44.28,44.28,0,0,1,9.21-3.78,2.21,2.21,0,0,1,2.2.59l.06.07a1.74,1.74,0,0,0,1.6.5,1.77,1.77,0,0,0,1.29-1.08l0-.09a2.22,2.22,0,0,1,1.79-1.4,44.82,44.82,0,0,1,10-.09,2.24,2.24,0,0,1,1.81,1.38l0,.08a1.75,1.75,0,0,0,2.91.54l.06-.06a2.18,2.18,0,0,1,2.18-.63,44.14,44.14,0,0,1,10.3,4.22l.12.07a.23.23,0,0,1,.12.2v1.27a1.75,1.75,0,0,0,2.48,1.6l.09,0a2.19,2.19,0,0,1,2.26.24,43,43,0,0,1,7.16,6.91,2.2,2.2,0,0,1,.32,2.25l0,.08a1.75,1.75,0,0,0,1.68,2.42h.09a2.21,2.21,0,0,1,2,1.09,45.18,45.18,0,0,1,4,9.1,2.21,2.21,0,0,1-.54,2.21l-.06.07a1.75,1.75,0,0,0,.67,2.87l.09,0a2.23,2.23,0,0,1,1.45,1.74,46.69,46.69,0,0,1,.44,10,2.22,2.22,0,0,1-1.3,1.87l-.09,0a1.75,1.75,0,0,0-.41,2.92l.07.06a2.2,2.2,0,0,1,.72,2.15,45.24,45.24,0,0,1-3.22,9.43,2.21,2.21,0,0,1-1.88,1.26h-.1a1.78,1.78,0,0,0-1.43.89,1.73,1.73,0,0,0,0,1.68l.07.14a2.23,2.23,0,0,1,0,2.17l-5.13,8.69a2.23,2.23,0,0,1-1.83,1.09h-.19a1.76,1.76,0,0,0-1.5,2.54l.08.16a2.21,2.21,0,0,1-.07,2.13l-5.14,8.71a2.21,2.21,0,0,1-1.83,1.09h-.19a1.76,1.76,0,0,0-1.5,2.54l.09.17a2.22,2.22,0,0,1-.08,2.12l-5.14,8.71a2.18,2.18,0,0,1-1.83,1.09h-.19a1.76,1.76,0,0,0-1.5,2.54l.08.17a2.21,2.21,0,0,1-.07,2.13l-5.1,8.63a2.25,2.25,0,0,1-2,1.09h-.08a1.76,1.76,0,0,0-1.5.75,1.78,1.78,0,0,0-.19,1.67,2.24,2.24,0,0,1-.49,2.43,22.57,22.57,0,0,1-8,5.28,2.25,2.25,0,0,1-2.43-.49,1.78,1.78,0,0,0-1.61-.48,1.73,1.73,0,0,0-1.27,1.09h0a2.24,2.24,0,0,1-2,1.42C148.92,219.76,148.6,219.76,148.28,219.76ZM136.59,214a2.24,2.24,0,0,1,2.22,2.1v.06a1.73,1.73,0,0,0,1,1.5,22.13,22.13,0,0,0,9.38,1.66,1.79,1.79,0,0,0,1.61-1.13h0a2.22,2.22,0,0,1,3.65-.77,1.81,1.81,0,0,0,1.93.39,22,22,0,0,0,7.83-5.18,1.79,1.79,0,0,0,.39-1.92,2.22,2.22,0,0,1,2.13-3.07h.15a1.75,1.75,0,0,0,1.51-.86l5.1-8.63a1.76,1.76,0,0,0,0-1.68l-.08-.17a2.22,2.22,0,0,1,1.9-3.22h.19a1.77,1.77,0,0,0,1.45-.86l5.14-8.71a1.76,1.76,0,0,0,.06-1.68l-.09-.17a2.23,2.23,0,0,1,1.9-3.22h.19a1.76,1.76,0,0,0,1.44-.86l5.15-8.72a1.76,1.76,0,0,0,.06-1.68l-.09-.16a2.22,2.22,0,0,1,1.9-3.22h.19a1.75,1.75,0,0,0,1.45-.86l5.13-8.68a1.81,1.81,0,0,0,0-1.72l-.08-.14a2.23,2.23,0,0,1,1.83-3.26h.1a1.73,1.73,0,0,0,1.48-1,44.58,44.58,0,0,0,3.19-9.34,1.75,1.75,0,0,0-.57-1.7l-.07-.06a2.22,2.22,0,0,1,.53-3.7l.09,0a1.73,1.73,0,0,0,1-1.46,45.82,45.82,0,0,0-.43-9.86,1.77,1.77,0,0,0-1.15-1.37l-.09,0a2.25,2.25,0,0,1-1.42-1.59,2.22,2.22,0,0,1,.57-2l.07-.07a1.75,1.75,0,0,0,.42-1.74,44.29,44.29,0,0,0-4-9,1.73,1.73,0,0,0-1.51-.85h-.15a2.24,2.24,0,0,1-1.9-.95,2.2,2.2,0,0,1-.23-2.12l0-.08a1.74,1.74,0,0,0-.25-1.77,42.48,42.48,0,0,0-7.09-6.84,1.73,1.73,0,0,0-1.78-.19l-.09,0a2.22,2.22,0,0,1-3.14-2V90.17A44.23,44.23,0,0,0,174.7,86a1.72,1.72,0,0,0-1.72.5l-.06.07a2.22,2.22,0,0,1-3.68-.69l0-.08a1.76,1.76,0,0,0-1.43-1.09,43.84,43.84,0,0,0-9.85.09,1.74,1.74,0,0,0-1.41,1.1l0,.09a2.24,2.24,0,0,1-3.67.74l-.06-.07a1.73,1.73,0,0,0-1.73-.47,44.1,44.1,0,0,0-9.11,3.74,1.75,1.75,0,0,0-.9,1.55v.09a2.22,2.22,0,0,1-3.12,2.05l-.09,0a1.75,1.75,0,0,0-1.77.2c-.68.53-1.36,1.09-2,1.65a25.51,25.51,0,0,1-6.41,4.12,1.81,1.81,0,0,0-1,1.11l-.09.32a2.22,2.22,0,0,1-3.58,1.07l-.25-.22a1.81,1.81,0,0,0-1.44-.39,25.48,25.48,0,0,1-9.49-.28l-.66-.14a1.73,1.73,0,0,0-1.71.6l-.07.07a2.22,2.22,0,0,1-3.71-.44l0-.09a1.73,1.73,0,0,0-1.49-1,44.43,44.43,0,0,0-9.83.71A1.73,1.73,0,0,0,93,102.07l0,.09a2.23,2.23,0,0,1-1.54,1.47,2.25,2.25,0,0,1-2.07-.5l-.07-.07a1.77,1.77,0,0,0-1.76-.36A43.91,43.91,0,0,0,78.63,107a1.74,1.74,0,0,0-.8,1.61v.09a2.22,2.22,0,0,1-3,2.24l-.09,0a1.73,1.73,0,0,0-1.76.31,43.64,43.64,0,0,0-6.59,7.32,1.73,1.73,0,0,0-.14,1.78l0,.09a2.22,2.22,0,0,1-1.93,3.2h-.09a1.76,1.76,0,0,0-1.52,1,42.86,42.86,0,0,0-3.34,9.26,1.72,1.72,0,0,0,.55,1.7l.07.06a2.22,2.22,0,0,1-.56,3.7l-.08,0a1.74,1.74,0,0,0-1,1.47,43.9,43.9,0,0,0,.42,9.84A1.72,1.72,0,0,0,59.94,152l.09,0a2.22,2.22,0,0,1,1.41,1.59,2.18,2.18,0,0,1-.56,2.05l-.07.07a1.76,1.76,0,0,0-.42,1.74,46.25,46.25,0,0,0,4,9,1.76,1.76,0,0,0,1.52.86H66a2.25,2.25,0,0,1,1.89,1,2.23,2.23,0,0,1,.22,2.12l0,.09a1.74,1.74,0,0,0,.24,1.77,44.91,44.91,0,0,0,7,6.94,1.75,1.75,0,0,0,1.79.23,2.22,2.22,0,0,1,3.15,2.07v.09a1.74,1.74,0,0,0,.86,1.55l8.67,5.12a1.76,1.76,0,0,0,1.68.05l.16-.08a2.22,2.22,0,0,1,3.22,1.9v.19a1.75,1.75,0,0,0,.86,1.45l8.7,5.14a1.73,1.73,0,0,0,1.68.06l.17-.09a2.22,2.22,0,0,1,3.22,1.9V199a1.75,1.75,0,0,0,.86,1.45l8.71,5.14a1.76,1.76,0,0,0,1.68.06l.17-.09a2.22,2.22,0,0,1,2.12.07,2.18,2.18,0,0,1,1.09,1.83v.19a1.77,1.77,0,0,0,.86,1.45l8.69,5.13a1.76,1.76,0,0,0,1.71,0l.14-.07A2.14,2.14,0,0,1,136.59,214Z" style="fill:#fff;opacity:0.30000000000000004"></path><path d="M85.69,143.35l0-.89L100,136.78l-.08.91a5.49,5.49,0,0,0-2.74,2,9,9,0,0,0-.87,4.31l-.49,20.83a13.14,13.14,0,0,0,.1,2.88,1.25,1.25,0,0,0,.92,1,5.77,5.77,0,0,0,3.09-.56V169l-14.52,5.77,0-.89a6.1,6.1,0,0,0,3-2.1,9,9,0,0,0,.89-4.36l.54-20.84a11.47,11.47,0,0,0-.18-2.81,1.33,1.33,0,0,0-.93-1A6.79,6.79,0,0,0,85.69,143.35Z" style="fill:#fff"></path><path d="M130.53,156.72,110,164.9l0-.79a5,5,0,0,0,2.5-1.78,8.12,8.12,0,0,0,.74-3.81l.49-18.42a9,9,0,0,0-.15-2.3,1.32,1.32,0,0,0-.89-1,4.3,4.3,0,0,0-2.38.36l0-.79,12.36-4.91,0,.78a5.12,5.12,0,0,0-2.47,1.86,8,8,0,0,0-.76,3.71L119,154.67a21.62,21.62,0,0,0,.07,3.84.82.82,0,0,0,.61.55,2.42,2.42,0,0,0,1.47-.22,16.46,16.46,0,0,0,5.71-3.86,16.71,16.71,0,0,0,3.85-6.28l.8-.32Z" style="fill:#fff"></path><path d="M143.19,132.3a6,6,0,0,1,3-.43,4.11,4.11,0,0,1,2.49,1.13,5.08,5.08,0,0,1,1.39,2.46,13.81,13.81,0,0,1-.13,6.83,16.55,16.55,0,0,1-3.27,6.64,12.91,12.91,0,0,1-5.2,4,5.07,5.07,0,0,1-4.39,0,4.77,4.77,0,0,1-2.39-3.19,12.58,12.58,0,0,1-.23-5.36,18.05,18.05,0,0,1,1.63-5.09,17.64,17.64,0,0,1,3-4.27A11.43,11.43,0,0,1,143.19,132.3Zm-.52,1.31a3,3,0,0,0-1.52,1.25c-.68,1.15-1.19,3.41-1.55,6.78a24.47,24.47,0,0,0,.39,8.58,1.83,1.83,0,0,0,.9,1.23,1.6,1.6,0,0,0,1.4.07,2.48,2.48,0,0,0,1.2-1,12.82,12.82,0,0,0,1.25-3.88,30.92,30.92,0,0,0,.63-6,21.2,21.2,0,0,0-.59-5.57,2,2,0,0,0-.87-1.34A1.37,1.37,0,0,0,142.67,133.61Z" style="fill:#fff"></path><path d="M159.91,145.63l-.68.27c-.23-1.05-.42-1.85-.55-2.38q-.57-2.16-2-6.11a30.35,30.35,0,0,0-2.16-5.16,2.79,2.79,0,0,0-1.24-1.12,1.44,1.44,0,0,0-1,.07,5.54,5.54,0,0,0-.76.39l-.17-.69,5.88-4.2q3.24,4.42,5.29,12.52a33,33,0,0,0,2.73-5.83,6.35,6.35,0,0,0,.34-3.17,2.78,2.78,0,0,0-1.12-1.51,7.08,7.08,0,0,1-1.15-1A2,2,0,0,1,163,127a2.57,2.57,0,0,1,.22-1.9,2.74,2.74,0,0,1,1.46-1.32,2,2,0,0,1,1.79,0,2.92,2.92,0,0,1,1.37,1.88,8.08,8.08,0,0,1,.2,2.75,18.33,18.33,0,0,1-.82,3.61,25.49,25.49,0,0,1-1.71,4.12Q163.6,139.75,159.91,145.63Z" style="fill:#fff"></path><path d="M175.92,130.83a14.19,14.19,0,0,0,.35,2.1,2.83,2.83,0,0,0,1.42,1.95,2.87,2.87,0,0,0,2.43,0,7.37,7.37,0,0,0,2.5-1.7,17.89,17.89,0,0,0,2.52-3.49l.71.28a19.49,19.49,0,0,1-3.28,5.45,11.66,11.66,0,0,1-4.29,2.94c-2.11.84-3.71.91-4.78.22a5,5,0,0,1-2.13-3,13.62,13.62,0,0,1,.2-6.94,17.62,17.62,0,0,1,3.64-7,14.9,14.9,0,0,1,5.79-4.38,3.45,3.45,0,0,1,2.61-.2,2.23,2.23,0,0,1,1.32,1.59,5.74,5.74,0,0,1-.1,3,11.46,11.46,0,0,1-2,4,16.57,16.57,0,0,1-3.31,3.15A25,25,0,0,1,175.92,130.83Zm-.09-1.05a12.47,12.47,0,0,0,2.42-1.7A7.77,7.77,0,0,0,179.7,126a10.56,10.56,0,0,0,.91-3,7.15,7.15,0,0,0-.05-2.94,1,1,0,0,0-.51-.72,1,1,0,0,0-.83,0,3.86,3.86,0,0,0-1.72,2.09A21.48,21.48,0,0,0,175.83,129.78Z" style="fill:#fff"></path><path d="M132.76,181l-4.23-7.84a6.63,6.63,0,0,0-2-2.57,3.24,3.24,0,0,0-2.21-.1l0-.72,11.38-4.53,0,.73a4.4,4.4,0,0,0-2.25,1.64,2.41,2.41,0,0,0-.34,1.9,11,11,0,0,0,.83,1.88l3.36,6.39,2.46-6.8a25,25,0,0,0,1.1-3.58,4.06,4.06,0,0,0,0-1.61,1.34,1.34,0,0,0-.75-.91,2.51,2.51,0,0,0-1.68,0l0-.72,7.11-2.83.17.65a4.1,4.1,0,0,0-1.5,1.29,25.91,25.91,0,0,0-1.86,4.4L138,179.57l-.15,6.11a13.53,13.53,0,0,0,0,2.17,1.38,1.38,0,0,0,.9,1,3.11,3.11,0,0,0,2.07-.28l.66-.27,0,.73-12.14,4.82v-.71a5.91,5.91,0,0,0,2-1.21,3.74,3.74,0,0,0,1-1.45,13.23,13.23,0,0,0,.24-2.56Z" style="fill:#fff"></path><path d="M151.47,167.2a5.54,5.54,0,0,1,2.76-.39,3.78,3.78,0,0,1,2.3,1,4.68,4.68,0,0,1,1.27,2.26,12.7,12.7,0,0,1-.11,6.29,15.27,15.27,0,0,1-3,6.12,11.86,11.86,0,0,1-4.79,3.7,4.67,4.67,0,0,1-4,.05,4.4,4.4,0,0,1-2.2-2.94,11.69,11.69,0,0,1-.21-4.93,16.35,16.35,0,0,1,1.51-4.68,15.62,15.62,0,0,1,2.77-3.93A10.55,10.55,0,0,1,151.47,167.2Zm-.47,1.21a2.77,2.77,0,0,0-1.4,1.15c-.63,1.06-1.1,3.14-1.43,6.24a22.47,22.47,0,0,0,.35,7.91,1.69,1.69,0,0,0,.84,1.13,1.46,1.46,0,0,0,1.29.06,2.35,2.35,0,0,0,1.1-.9,11.62,11.62,0,0,0,1.15-3.57,28.3,28.3,0,0,0,.58-5.56,19.7,19.7,0,0,0-.54-5.13,1.84,1.84,0,0,0-.8-1.23A1.25,1.25,0,0,0,151,168.41Z" style="fill:#fff"></path><path d="M167.12,161l-.31,13.22a5.54,5.54,0,0,0,.05,1.23.26.26,0,0,0,.19.2.47.47,0,0,0,.37,0,4.72,4.72,0,0,0,1.78-2.29,37.28,37.28,0,0,0,2.49-7.58l.2-6,4.38-1.92-.36,12.86a14.74,14.74,0,0,0,0,1.84.44.44,0,0,0,.21.24.35.35,0,0,0,.31,0,.94.94,0,0,0,.42-.4,12.19,12.19,0,0,0,1.13-2.7l.7.18q-1.29,5.35-4.21,6.51a2.49,2.49,0,0,1-1.85.13,1.61,1.61,0,0,1-1-1.2,8.92,8.92,0,0,1-.19-2.56l.09-3.29q-1.41,4.2-2.15,5.76a14.14,14.14,0,0,1-2,3.36,5.14,5.14,0,0,1-1.9,1.39,2.09,2.09,0,0,1-2.9-1.5,9.19,9.19,0,0,1-.18-2.57l.16-7.77a11.62,11.62,0,0,0-.11-2.5.71.71,0,0,0-.26-.4.82.82,0,0,0-.55-.13,4.58,4.58,0,0,0-1.22.36v-.73l5.69-3.4Z" style="fill:#fff"></path></g><g id="freepik--Bouquet--inject-15"><path d="M266.2,231.71c-5.66,4.62-7.95,7.16-8.91,9.08q.16-3.37.19-6.73c.79.49,2.67-.3,7.16-4,8.2-6.22,20.68-25.86,20.44-26.12,0,0-12.08,7.39-20.23,15-4.72,4.36-6.64,6.85-7.42,8.75q-.07-3.21-.26-6.39c.82.5,2.61-.35,6.71-4.16,7.59-6.56,18.4-26.93,18.15-27.16,0,0-11.42,7.37-18.82,15.28-4.24,4.5-5.95,7.12-6.58,9.12q-.33-3.44-.79-6.86c.81.41,2.38-.46,5.72-4,6.39-6.36,14.8-25.47,14.57-25.65,0,0-10,6.7-16.14,14.18-3.39,4.13-4.75,6.61-5.21,8.52-.35-2.08-.75-4.15-1.17-6.21.82.37,2.27-.53,5.18-4.09,5.68-6.48,12.34-25.62,12.11-25.78,0,0-9.32,6.55-14.62,14.08-2.91,4.09-4,6.59-4.32,8.53q-.79-3.23-1.71-6.42c.78.26,2-.64,4.27-3.84,4.6-6.1,9.25-23.6,9-23.72,0,0-8.09,5.89-12.29,12.82-2.23,3.64-3.05,5.93-3.2,7.71q-.92-2.82-1.94-5.61c.78.22,1.91-.69,3.81-3.84,4-6.08,7.09-23.29,6.9-23.38,0,0-7.5,5.73-11,12.57-1.84,3.53-2.45,5.79-2.46,7.55-.78-1.89-1.58-3.76-2.42-5.62.71.12,1.63-.75,3-3.51,3.07-5.57,4.7-20.91,4.54-21s-6.44,5.1-9.08,11.24c-1.33,3-1.73,5-1.65,6.58-.75-1.52-1.53-3-2.33-4.52.65,0,1.43-.78,2.5-3.26,2.42-5.18,2.91-19.17,2.77-19.22s-5.67,4.69-7.68,10.31a13.06,13.06,0,0,0-1.07,5.91q-1.26-2.15-2.58-4.28c.56,0,1.17-.81,1.92-2.89,1.77-4.59,1.41-16.75,1.3-16.78s-4.81,4.12-6.25,9a11.39,11.39,0,0,0-.6,5c-.77-1.16-1.55-2.3-2.35-3.44.52-.08,1-.83,1.6-2.74,1.38-4.35.31-15.7.21-15.72s-4.37,3.89-5.43,8.51a10.32,10.32,0,0,0-.28,4.58c-.82-1.08-1.66-2.15-2.5-3.22.42-.13.81-.79,1.18-2.36,1-3.77-.54-13.44-.61-13.45s-3.67,3.38-4.37,7.33a8.85,8.85,0,0,0-.05,3.77c-.7-.84-1.41-1.66-2.13-2.48.37-.16.69-.78.94-2.17.69-3.47-1.17-12.27-1.23-12.28S207.49,97.39,207,101a8,8,0,0,0,.11,3.34c-.7-.76-1.42-1.52-2.14-2.27.27-.19.49-.72.63-1.81.43-3-1.51-10.35-1.55-10.35s-2.74,2.69-3,5.74a7.13,7.13,0,0,0,.18,2.66c-.57-.57-1.16-1.13-1.74-1.7.23-.19.4-.68.49-1.63.27-2.71-1.82-9.4-1.86-9.4s-2.45,2.48-2.57,5.26a6.28,6.28,0,0,0,.25,2.33l-1.72-1.54a2.4,2.4,0,0,0,.3-1.32c.13-2.27-1.85-7.83-1.88-7.83a7.59,7.59,0,0,0-2.05,4.43,5.43,5.43,0,0,0,.23,1.77h0a.54.54,0,0,0-.76.07.55.55,0,0,0,.06.76c.83.7,1.66,1.41,2.47,2.12a4.09,4.09,0,0,0-1.62.18c-2,.61-3.41,3.26-3.42,3.26s5.19.58,7.21.07a2.05,2.05,0,0,0,1.12-.56l1.66,1.54a4.72,4.72,0,0,0-2.12.14C192.84,96.92,191,100,191,100s6.09.82,8.52.29c.85-.19,1.28-.43,1.44-.7l1.68,1.69a5.15,5.15,0,0,0-2.42.07c-2.73.63-4.89,3.87-4.9,3.86s6.59,1.06,9.29.59c1-.19,1.49-.44,1.65-.76.7.77,1.41,1.53,2.1,2.3a5.88,5.88,0,0,0-3.08-.09c-3.28.62-6.06,4.28-6.07,4.27s7.64,1.44,10.86,1c1.31-.19,1.9-.5,2-.9.71.84,1.41,1.68,2.1,2.53a6.32,6.32,0,0,0-3.47-.27c-3.63.52-7,4.3-7,4.29s8.21,1.81,11.76,1.54c1.51-.15,2.18-.47,2.35-.92.84,1.1,1.68,2.21,2.49,3.33a7.21,7.21,0,0,0-4.26-.61c-4.3.42-8.51,4.54-8.51,4.53s9.39,2.37,13.56,2.28c1.93-.08,2.71-.45,2.88-1,.8,1.19,1.59,2.38,2.37,3.59a7.84,7.84,0,0,0-4.63-.91c-4.67.2-9.54,4.25-9.55,4.23s9.86,2.89,14.37,3c2.14,0,3-.32,3.2-.92.89,1.49,1.77,3,2.62,4.49-1.09-.83-2.7-1.38-5.48-1.44-5.45-.06-11.46,4.12-11.48,4.1s11.11,3.67,16.31,4.19c2.6.2,3.63-.17,3.86-.88.81,1.59,1.61,3.19,2.38,4.8-1.12-1-2.87-1.76-6.09-2-6.07-.44-13.15,3.58-13.15,3.56s12,4.47,17.69,5.42c3,.42,4.15.07,4.41-.71.86,2,1.67,3.94,2.46,5.93-1.16-1.25-3.1-2.24-6.91-2.79-6.94-1-15.41,2.84-15.41,2.81s13.19,5.52,19.64,7.08c3.51.74,4.83.44,5.16-.44q1,3,2,5.94c-1.09-1.34-3-2.49-7.05-3.36-7.22-1.52-16.5,1.53-16.5,1.5s13.35,6.33,20,8.44c3.66,1,5.08.85,5.49,0q.91,3.36,1.71,6.73c-1.07-1.55-3.16-3-7.77-4.33-8.05-2.28-18.8.12-18.79.09,0-.22,14.48,7.56,21.78,10.49,4.13,1.51,5.74,1.44,6.25.57q.63,3.22,1.14,6.48c-1-1.61-3-3.21-7.78-5-8.25-3-19.71-1.67-19.7-1.69,0-.23,14.5,8.45,21.91,12,4.21,1.89,5.89,2,6.49,1.21.29,2.34.53,4.67.73,7-.93-1.77-3.08-3.67-8.32-6-9-4-21.82-3.73-21.81-3.75.07-.26,15.51,9.82,23.42,14.41,4.61,2.47,6.44,2.77,7.15,2q.15,3.23.2,6.47c-.82-1.76-2.88-3.78-8.08-6.6-8.9-4.76-22.07-5.83-22.05-5.84.09-.27,15.18,10.64,23,15.88,4.54,2.85,6.39,3.35,7.16,2.74,0,2.24-.13,4.48-.25,6.72-.74-1.88-2.84-4.2-8.46-7.75-9.11-5.7-22.75-8.17-23.72-8.33,1.07.47,16.24,12.24,24.1,18.38,4.84,3.5,6.8,4.24,7.65,3.7A189.31,189.31,0,0,1,252.15,272a.54.54,0,0,0,.41.64h.13a.53.53,0,0,0,.51-.43,188.63,188.63,0,0,0,3.72-25.34c.78.56,2.88-.2,8.2-4,9.44-6.25,24.46-26.75,24.21-27.06C289.33,215.86,275.74,223.9,266.2,231.71Z" style="fill:#FF725E"></path><path d="M266.2,231.71c-5.66,4.62-7.95,7.16-8.91,9.08q.16-3.37.19-6.73c.79.49,2.67-.3,7.16-4,8.2-6.22,20.68-25.86,20.44-26.12,0,0-12.08,7.39-20.23,15-4.72,4.36-6.64,6.85-7.42,8.75q-.07-3.21-.26-6.39c.82.5,2.61-.35,6.71-4.16,7.59-6.56,18.4-26.93,18.15-27.16,0,0-11.42,7.37-18.82,15.28-4.24,4.5-5.95,7.12-6.58,9.12q-.33-3.44-.79-6.86c.81.41,2.38-.46,5.72-4,6.39-6.36,14.8-25.47,14.57-25.65,0,0-10,6.7-16.14,14.18-3.39,4.13-4.75,6.61-5.21,8.52-.35-2.08-.75-4.15-1.17-6.21.82.37,2.27-.53,5.18-4.09,5.68-6.48,12.34-25.62,12.11-25.78,0,0-9.32,6.55-14.62,14.08-2.91,4.09-4,6.59-4.32,8.53q-.79-3.23-1.71-6.42c.78.26,2-.64,4.27-3.84,4.6-6.1,9.25-23.6,9-23.72,0,0-8.09,5.89-12.29,12.82-2.23,3.64-3.05,5.93-3.2,7.71q-.92-2.82-1.94-5.61c.78.22,1.91-.69,3.81-3.84,4-6.08,7.09-23.29,6.9-23.38,0,0-7.5,5.73-11,12.57-1.84,3.53-2.45,5.79-2.46,7.55-.78-1.89-1.58-3.76-2.42-5.62.71.12,1.63-.75,3-3.51,3.07-5.57,4.7-20.91,4.54-21s-6.44,5.1-9.08,11.24c-1.33,3-1.73,5-1.65,6.58-.75-1.52-1.53-3-2.33-4.52.65,0,1.43-.78,2.5-3.26,2.42-5.18,2.91-19.17,2.77-19.22s-5.67,4.69-7.68,10.31a13.06,13.06,0,0,0-1.07,5.91q-1.26-2.15-2.58-4.28c.56,0,1.17-.81,1.92-2.89,1.77-4.59,1.41-16.75,1.3-16.78s-4.81,4.12-6.25,9a11.39,11.39,0,0,0-.6,5c-.77-1.16-1.55-2.3-2.35-3.44.52-.08,1-.83,1.6-2.74,1.38-4.35.31-15.7.21-15.72s-4.37,3.89-5.43,8.51a10.32,10.32,0,0,0-.28,4.58c-.82-1.08-1.66-2.15-2.5-3.22.42-.13.81-.79,1.18-2.36,1-3.77-.54-13.44-.61-13.45s-3.67,3.38-4.37,7.33a8.85,8.85,0,0,0-.05,3.77c-.7-.84-1.41-1.66-2.13-2.48.37-.16.69-.78.94-2.17.69-3.47-1.17-12.27-1.23-12.28S207.49,97.39,207,101a8,8,0,0,0,.11,3.34c-.7-.76-1.42-1.52-2.14-2.27.27-.19.49-.72.63-1.81.43-3-1.51-10.35-1.55-10.35s-2.74,2.69-3,5.74a7.13,7.13,0,0,0,.18,2.66c-.57-.57-1.16-1.13-1.74-1.7.23-.19.4-.68.49-1.63.27-2.71-1.82-9.4-1.86-9.4s-2.45,2.48-2.57,5.26a6.28,6.28,0,0,0,.25,2.33l-1.72-1.54a2.4,2.4,0,0,0,.3-1.32c.13-2.27-1.85-7.83-1.88-7.83a7.59,7.59,0,0,0-2.05,4.43,5.43,5.43,0,0,0,.23,1.77h0a.54.54,0,0,0-.76.07.55.55,0,0,0,.06.76c.83.7,1.66,1.41,2.47,2.12a4.09,4.09,0,0,0-1.62.18c-2,.61-3.41,3.26-3.42,3.26s5.19.58,7.21.07a2.05,2.05,0,0,0,1.12-.56l1.66,1.54a4.72,4.72,0,0,0-2.12.14C192.84,96.92,191,100,191,100s6.09.82,8.52.29c.85-.19,1.28-.43,1.44-.7l1.68,1.69a5.15,5.15,0,0,0-2.42.07c-2.73.63-4.89,3.87-4.9,3.86s6.59,1.06,9.29.59c1-.19,1.49-.44,1.65-.76.7.77,1.41,1.53,2.1,2.3a5.88,5.88,0,0,0-3.08-.09c-3.28.62-6.06,4.28-6.07,4.27s7.64,1.44,10.86,1c1.31-.19,1.9-.5,2-.9.71.84,1.41,1.68,2.1,2.53a6.32,6.32,0,0,0-3.47-.27c-3.63.52-7,4.3-7,4.29s8.21,1.81,11.76,1.54c1.51-.15,2.18-.47,2.35-.92.84,1.1,1.68,2.21,2.49,3.33a7.21,7.21,0,0,0-4.26-.61c-4.3.42-8.51,4.54-8.51,4.53s9.39,2.37,13.56,2.28c1.93-.08,2.71-.45,2.88-1,.8,1.19,1.59,2.38,2.37,3.59a7.84,7.84,0,0,0-4.63-.91c-4.67.2-9.54,4.25-9.55,4.23s9.86,2.89,14.37,3c2.14,0,3-.32,3.2-.92.89,1.49,1.77,3,2.62,4.49-1.09-.83-2.7-1.38-5.48-1.44-5.45-.06-11.46,4.12-11.48,4.1s11.11,3.67,16.31,4.19c2.6.2,3.63-.17,3.86-.88.81,1.59,1.61,3.19,2.38,4.8-1.12-1-2.87-1.76-6.09-2-6.07-.44-13.15,3.58-13.15,3.56s12,4.47,17.69,5.42c3,.42,4.15.07,4.41-.71.86,2,1.67,3.94,2.46,5.93-1.16-1.25-3.1-2.24-6.91-2.79-6.94-1-15.41,2.84-15.41,2.81s13.19,5.52,19.64,7.08c3.51.74,4.83.44,5.16-.44q1,3,2,5.94c-1.09-1.34-3-2.49-7.05-3.36-7.22-1.52-16.5,1.53-16.5,1.5s13.35,6.33,20,8.44c3.66,1,5.08.85,5.49,0q.91,3.36,1.71,6.73c-1.07-1.55-3.16-3-7.77-4.33-8.05-2.28-18.8.12-18.79.09,0-.22,14.48,7.56,21.78,10.49,4.13,1.51,5.74,1.44,6.25.57q.63,3.22,1.14,6.48c-1-1.61-3-3.21-7.78-5-8.25-3-19.71-1.67-19.7-1.69,0-.23,14.5,8.45,21.91,12,4.21,1.89,5.89,2,6.49,1.21.29,2.34.53,4.67.73,7-.93-1.77-3.08-3.67-8.32-6-9-4-21.82-3.73-21.81-3.75.07-.26,15.51,9.82,23.42,14.41,4.61,2.47,6.44,2.77,7.15,2q.15,3.23.2,6.47c-.82-1.76-2.88-3.78-8.08-6.6-8.9-4.76-22.07-5.83-22.05-5.84.09-.27,15.18,10.64,23,15.88,4.54,2.85,6.39,3.35,7.16,2.74,0,2.24-.13,4.48-.25,6.72-.74-1.88-2.84-4.2-8.46-7.75-9.11-5.7-22.75-8.17-23.72-8.33,1.07.47,16.24,12.24,24.1,18.38,4.84,3.5,6.8,4.24,7.65,3.7A189.31,189.31,0,0,1,252.15,272a.54.54,0,0,0,.41.64h.13a.53.53,0,0,0,.51-.43,188.63,188.63,0,0,0,3.72-25.34c.78.56,2.88-.2,8.2-4,9.44-6.25,24.46-26.75,24.21-27.06C289.33,215.86,275.74,223.9,266.2,231.71Z" style="opacity:0.30000000000000004"></path><path d="M223.94,226.54s-.05,0-.06,0Z" style="fill:#FF725E"></path><path d="M279,221.32l1.32-4.57c2.06-7.16,3.55-12.35,4.86-14.43-.52-2-3-4.75-5.82-8l-.78-.89h0c-5.69-6.47-12.79-15-9.54-23.14l.43.17c-2.91,7.26,2.59,14.73,8.07,21.08a10,10,0,0,1-.2-4.9c-1.21.63-3-2-1.87-4.16s4.49-3.74,8.66-5.2c-1.58,1.11-4.68,5.38-6.12,8.49-.63,2.48-.7,5.48.92,7.36l.77.88c2.81,3.19,5.25,6,5.88,8,2.86-1.09,8-7.63,11.64-17.31-2.44,3-5.38-6.56-7.4-10.43,6.76,2.42,8.34,5.59,8.41,7.58A66.81,66.81,0,0,0,300.86,171,76.19,76.19,0,0,1,304,158.31h0c.27-2.17-.76-4.57-2-7.35a35.06,35.06,0,0,1-3.31-11.63c-1.16,4.65-7.45-9.41-10.61-15.47,8.79,3.14,10.68,6.29,10.94,8.85a34.48,34.48,0,0,1,2.18-7.34c5.16-12.53-.72-19.83-.78-19.9l.35-.3c.07.08,6.13,7.58.85,20.38-4.92,11.93-1.61,19.62.8,25.23a21.23,21.23,0,0,1,2,6.18,110.43,110.43,0,0,1,8.74-18.86l.39.24A109.21,109.21,0,0,0,304,159.71c1.49-3.15,4.53-6.81,11.86-5.62-3.45,4.11-12.88,15.41-13.76,12.61-.32,1.46-.6,2.93-.83,4.41a67,67,0,0,1-1.34,6.6l1.3-.63c4.57-2.16,8.52-4,14.71-12.68,7-9.76,11.11-10.58,11.28-10.61l.08.45s-4.15.86-11,10.42c-6.26,8.75-10.26,10.65-14.88,12.84-.54.25-1.09.51-1.65.79-3.49,13.22-10.27,23-14.2,24.25a32.49,32.49,0,0,0-2.55,6.63c2-2.71,7.09-4.73,12.33-.34-6.12-1.49-13,7.31-13.2,3.23-.44,1.48-.9,3.09-1.4,4.82-1.95,6.76-4.38,15.22-7.55,24,5.22-9.54,17-24.66,33.31-31.41l.18.43a59.9,59.9,0,0,0-17.8,11.83c2,1.24,4.85.88,7.16,0,2.95-1.74,6.89-5.25,7.83-6.94-1,4.3-2.11,7.73-4.3,9.14s-4.83-.18-4.32-1.44a10.39,10.39,0,0,1-4.38.4,5.76,5.76,0,0,1-2.34-.86c-9.49,9-15.56,19.44-17.24,23.91l0,.06,0,.05h0c-.94,2.42-1.94,4.85-3,7.25l-.42-.18c1.07-2.42,2.07-4.87,3-7.31v0c2.82-7.27,5.12-14.47,7-20.88-3.68,5.68-13.34-6-7.17-22.22C269.63,209.62,279.05,215.16,279,221.32Z" style="fill:#263238"></path><path d="M308.94,205.2a9,9,0,0,1,6.51-5.92c2.3-.37,2.47.54,3.74.31s2.16,1.8,5.15,2.41c1.84.38.34,2.18-.65,3.75s-2.22,1.3-2.51,2.61-2.17,2.41-3.5,2.83c-1.66.54-7,1.9-8.43-2.26C308.1,205.56,308.94,205.2,308.94,205.2Z" style="fill:#FF725E"></path><path d="M308.94,205.2a9,9,0,0,1,6.51-5.92c2.3-.37,2.47.54,3.74.31s2.16,1.8,5.15,2.41c1.84.38.34,2.18-.65,3.75s-2.22,1.3-2.51,2.61-2.17,2.41-3.5,2.83c-1.66.54-7,1.9-8.43-2.26C308.1,205.56,308.94,205.2,308.94,205.2Z" style="fill:#fff;opacity:0.4"></path><path d="M306.16,210.53c-1.27-1.91.63-2.53,1.42-2.62-.66-2.07.71-3.51,1.94-4.4a.34.34,0,0,1,.51.42l-.06.12a1.61,1.61,0,0,0,1.35,2.26,1.71,1.71,0,0,1,1.6,1.58,2,2,0,0,1-.24,1.16,1.59,1.59,0,0,0,1.31,2.31h.38a.35.35,0,0,1,.15.66,4.92,4.92,0,0,1-6.21-1.62S307,211.79,306.16,210.53Z" style="fill:#263238"></path><path d="M320.62,201.55c-3.93.73-6.73,5.62-6.73,5.62A6.62,6.62,0,0,1,320.62,201.55Z" style="fill:#FF725E"></path><path d="M318.52,204.43c-2.57,2.22-1.48,5.34-3.71,6C318.23,210,318.52,204.43,318.52,204.43Z" style="fill:#FF725E"></path><path d="M311.41,204.72c2.07-.82,2.39-2.85,3.66-3.72A10.61,10.61,0,0,0,311.41,204.72Z" style="fill:#FF725E"></path><path d="M329.72,150.67a7.82,7.82,0,0,1,6.45-4c2,0,2,.84,3.13.84s1.56,1.87,4,2.85c1.51.6-.05,1.9-1.13,3.09s-2.09.75-2.54,1.82-2.22,1.71-3.42,1.87c-1.49.19-6.24.52-6.8-3.24C329,150.85,329.72,150.67,329.72,150.67Z" style="fill:#FF725E"></path><path d="M329.72,150.67a7.82,7.82,0,0,1,6.45-4c2,0,2,.84,3.13.84s1.56,1.87,4,2.85c1.51.6-.05,1.9-1.13,3.09s-2.09.75-2.54,1.82-2.22,1.71-3.42,1.87c-1.49.19-6.24.52-6.8-3.24C329,150.85,329.72,150.67,329.72,150.67Z" style="opacity:0.4"></path><path d="M326.53,154.76c-.78-1.82.93-2,1.61-2-.23-1.86,1.15-2.86,2.33-3.43a.29.29,0,0,1,.37.44l-.06.09a1.39,1.39,0,0,0,.79,2.13,1.47,1.47,0,0,1,1.11,1.59,1.72,1.72,0,0,1-.38,1,1.36,1.36,0,0,0,.75,2.16,1.76,1.76,0,0,0,.33.07.3.3,0,0,1,0,.58,4.24,4.24,0,0,1-5-2.33S327.05,156,326.53,154.76Z" style="fill:#263238"></path><path d="M340.21,149.38c-3.45,0-6.59,3.73-6.59,3.73A5.71,5.71,0,0,1,340.21,149.38Z" style="fill:#FF725E"></path><path d="M338,151.5c-2.52,1.48-2.09,4.31-4.09,4.52C336.87,156.19,338,151.5,338,151.5Z" style="fill:#FF725E"></path><path d="M331.89,150.65c1.89-.39,2.47-2.06,3.69-2.6A9.13,9.13,0,0,0,331.89,150.65Z" style="fill:#FF725E"></path><path d="M312.35,131.22c-1.29-5.73.92-11,3.69-13.5s3.78-1.37,5.29-2.76,4.43.58,9-1.16c2.78-1.06,2.31,2.63,2.32,5.58s-1.87,3.64-1.14,5.64-.87,5.09-2.29,6.79c-1.76,2.13-7.77,8.51-13.23,4.14C311.54,132.42,312.35,131.22,312.35,131.22Z" style="fill:#FF725E"></path><path d="M312.35,131.22c-1.29-5.73.92-11,3.69-13.5s3.78-1.37,5.29-2.76,4.43.58,9-1.16c2.78-1.06,2.31,2.63,2.32,5.58s-1.87,3.64-1.14,5.64-.87,5.09-2.29,6.79c-1.76,2.13-7.77,8.51-13.23,4.14C311.54,132.42,312.35,131.22,312.35,131.22Z" style="fill:#fff;opacity:0.4"></path><path d="M313.16,140.73c-3.33-1.48-1.3-3.93-.33-4.72-2.65-2.22-2-5.31-1.15-7.56a.55.55,0,0,1,1.05.14,1.36,1.36,0,0,1,0,.2,2.56,2.56,0,0,0,3.74,1.88,2.73,2.73,0,0,1,3.49.76,3.07,3.07,0,0,1,.67,1.77,2.51,2.51,0,0,0,3.72,2c.18-.09.35-.2.53-.31a.55.55,0,0,1,.76.75c-3.63,5.77-9.7,3.13-9.7,3.13S315.37,141.71,313.16,140.73Z" style="fill:#263238"></path><path d="M324.91,116.37c-4.65,4.32-4.24,13.28-4.24,13.28A10.51,10.51,0,0,1,324.91,116.37Z" style="fill:#FF725E"></path><path d="M324.55,122c-1.56,5.16,2.57,8.43.13,11.21C328.91,129.74,324.55,122,324.55,122Z" style="fill:#FF725E"></path><path d="M315.26,128.48c2.07-2.88.77-5.87,1.73-8.11C315.05,123.41,315.26,128.48,315.26,128.48Z" style="fill:#FF725E"></path><path d="M299.86,108.64c3.09,5.15,2.41,6-.6,9.43s1.43,8-3.16,11.74-4.62,6.61-5.82,10.7-7.52,6-10.72,10.41C285.21,124.9,299.86,108.64,299.86,108.64Z" style="fill:#FF725E;fill-rule:evenodd"></path><path d="M299.86,108.64c3.09,5.15,2.41,6-.6,9.43s1.43,8-3.16,11.74-4.62,6.61-5.82,10.7-7.52,6-10.72,10.41C285.21,124.9,299.86,108.64,299.86,108.64Z" style="fill:#fff;fill-rule:evenodd;opacity:0.30000000000000004"></path><path d="M259.69,92.2c-1.55-2.94,1-4.56,3.53-1.39,1.79,2.28,2.11,3.55,5.85,1.91A7.38,7.38,0,0,1,277.64,94c1.25,1.07,1.69,3.3,4.41,1.77,3.22-1.81,6.14,1.3,8.26,2.59,1.74,1.07,2.36-.33,4.47-.69s6.36,1.49,1.22,5.37C285.34,105,267.29,104.11,259.69,92.2Z" style="fill:#FF725E;fill-rule:evenodd"></path><path d="M259.69,92.2c-1.55-2.94,1-4.56,3.53-1.39,1.79,2.28,2.11,3.55,5.85,1.91A7.38,7.38,0,0,1,277.64,94c1.25,1.07,1.69,3.3,4.41,1.77,3.22-1.81,6.14,1.3,8.26,2.59,1.74,1.07,2.36-.33,4.47-.69s6.36,1.49,1.22,5.37C285.34,105,267.29,104.11,259.69,92.2Z" style="fill-rule:evenodd;opacity:0.30000000000000004"></path><path d="M300.54,103.15c2.87-2.35.9-5.14-3-3-2.84,1.58-3.72,2.75-6.87-.56a8.22,8.22,0,0,0-9.38-2.38c-1.75.56-3.17,2.66-5.3-.08-2.54-3.26-6.89-1.33-9.63-.91-2.26.35-2.29-1.37-4.31-2.64s-7.2-1.23-3.58,5C268.57,105.26,287.55,112.13,300.54,103.15Z" style="fill:#FF725E;fill-rule:evenodd"></path><path d="M300.54,103.15c2.87-2.35.9-5.14-3-3-2.84,1.58-3.72,2.75-6.87-.56a8.22,8.22,0,0,0-9.38-2.38c-1.75.56-3.17,2.66-5.3-.08-2.54-3.26-6.89-1.33-9.63-.91-2.26.35-2.29-1.37-4.31-2.64s-7.2-1.23-3.58,5C268.57,105.26,287.55,112.13,300.54,103.15Z" style="fill-rule:evenodd;opacity:0.1"></path><path d="M268.6,98.79c7.15-1.78,11.91-1.53,17.76,3.48s10.72.07,18.14-.44c-21,36.62-13.51,50.8-31.8,53.38-9.88,1.39-21.39-5.67-18.17-23,2.41-13,2.8-22.8-1.35-35.91C257.91,95.27,261.44,100.56,268.6,98.79Z" style="fill:#FF725E;fill-rule:evenodd"></path><path d="M268.6,98.79c7.15-1.78,11.91-1.53,17.76,3.48s10.72.07,18.14-.44c-21,36.62-13.51,50.8-31.8,53.38-9.88,1.39-21.39-5.67-18.17-23,2.41-13,2.8-22.8-1.35-35.91C257.91,95.27,261.44,100.56,268.6,98.79Z" style="fill:#fff;fill-rule:evenodd;opacity:0.4"></path><path d="M276,102.34c-13.24,14.11-17.49,40.64-17.84,45.24.49-8.49,2.36-21.84,4.48-24.82s-.47-8.75,2.83-12.19a16.24,16.24,0,0,0,4.28-7.84C270.19,101.31,276,102.34,276,102.34Z" style="fill:#FF725E;fill-rule:evenodd;opacity:0.30000000000000004"></path><path d="M253.18,96.28c4.73-1,8.26,4.28,15.42,2.51s11.91-1.53,17.76,3.48,10.72.07,18.14-.44c5.6,2.16-2.93,6.28-7,5.2s-5.13,0-8.56.19-3.73-4.71-6.7-4.78-5,5.18-10,3.18-3.67-5.94-9.37-4.64S248.65,99.29,253.18,96.28Z" style="fill:#FF725E;fill-rule:evenodd"></path><path d="M253.18,96.28c4.73-1,8.26,4.28,15.42,2.51s11.91-1.53,17.76,3.48,10.72.07,18.14-.44c5.6,2.16-2.93,6.28-7,5.2s-5.13,0-8.56.19-3.73-4.71-6.7-4.78-5,5.18-10,3.18-3.67-5.94-9.37-4.64S248.65,99.29,253.18,96.28Z" style="fill-rule:evenodd;opacity:0.2"></path><path d="M263.84,156c3.15.75,5.27,1.65,10.25,1.15a10.35,10.35,0,0,0,7.36-4.22s-4.66,1.44-8.24-.07-6.8-4.66-5.78-7.91a13,13,0,0,0-3.22,6.87s-6.41-4.84-6.55-7.95a9,9,0,0,0-.27,5.87s-2.95-2.76-3-4.64C252.5,149.55,259.6,154.94,263.84,156Z" style="fill:#263238;fill-rule:evenodd"></path><path d="M248.46,229.14h0a1.6,1.6,0,0,0,2-1.18c9.08-39.26,17.39-69.21,17.39-69.21s3.26-2.66,3.7-3.65c-6.17-2.62-10-.3-10-.3.55,1.49,1.1,3,2.33,3.65,0,0-6.59,25.63-16.49,68.8A1.59,1.59,0,0,0,248.46,229.14Z" style="fill:#263238;fill-rule:evenodd"></path><path d="M259.8,187.93c-.44,1.39,2.3.88,3.17-.07-1.61,3.67-4.33,3.73-4.33,3.73Z" style="fill:#263238;fill-rule:evenodd"></path><path d="M251.56,213.24c-.38,1.4-2.42-.5-2.64-1.77-.62,4,1.65,5.48,1.65,5.48Z" style="fill:#263238;fill-rule:evenodd"></path><path d="M241.24,279c-.31-2.06-.6-4-.88-5.91-1.37-9.26-2.37-16-3.65-18.79,1-2.36,4.5-5.41,8.58-9l1.12-1h0c8.16-7.11,18.42-16.58,15.73-27.22l-.56.14c2.41,9.52-5.68,17.9-13.56,24.89a12.52,12.52,0,0,0,1.06-6.06c1.4,1,4-1.95,3-4.87-1.09-3.08-5-5.4-9.92-7.91,1.79,1.64,4.93,7.47,6.2,11.59.38,3.19,0,6.93-2.37,9l-1.11,1c-4,3.49-7.52,6.53-8.65,9-3.38-1.83-8.66-10.82-11.61-23.49,2.53,4.16,7.8-7.26,11-11.75-8.83,1.88-11.32,5.56-11.74,8a83.48,83.48,0,0,1-1.41-13.94,97.08,97.08,0,0,0-1.82-16.39h0c0-2.74,1.7-5.55,3.65-8.82,2.2-3.66,4.83-8.06,6.07-13.92.67,6,10.84-10.48,15.78-17.51-11.46,2.45-14.34,6.06-15.09,9.21a43.58,43.58,0,0,0-1.49-9.5c-4.34-16.47,4.2-24.58,4.29-24.66l-.39-.42c-.09.08-8.89,8.41-4.45,25.22,4.14,15.68-1.27,24.7-5.21,31.28-1.6,2.67-3,5.05-3.52,7.37a139.71,139.71,0,0,0-7.73-24.94l-.53.24a138,138,0,0,1,8.35,28.2c-1.32-4.17-4.51-9.24-13.82-9,3.6,5.7,13.46,21.34,15,18,.16,1.86.27,3.75.3,5.63.05,2.88.25,5.7.57,8.43l-1.51-1c-5.33-3.46-9.94-6.44-16.2-18.25-7.07-13.31-12.07-15-12.28-15.09l-.18.55c.05,0,5,1.77,11.95,14.81,6.33,11.94,11,15,16.39,18.46l1.92,1.26c2.14,17.05,9,30.33,13.64,32.57a41.61,41.61,0,0,1,2.07,8.67c-2-3.69-8.05-7.06-15.3-2.47,7.87-.84,15,11.28,15.9,6.22.3,1.91.61,4,.94,6.23,1.29,8.75,2.92,19.69,5.39,31.19l1.51,6.67,0,.07s0,0,0,.07h0c.77,3.17,1.61,6.36,2.52,9.53l.56-.16c-.93-3.2-1.77-6.41-2.54-9.6v-.05c-2.3-9.52-4-18.87-5.29-27.17,3.64,7.69,17.61-5.2,12.64-26.47C254.9,266,242.25,271.32,241.24,279Z" style="fill:#263238"></path><path d="M185.44,187.56c-4.95.72-9.33-1.51-11.23-4s-.92-3.29-2-4.67.79-3.73-.39-7.69c-.72-2.44,2.39-1.79,4.9-1.61s3,1.83,4.71,1.34,4.27,1.08,5.63,2.39c1.69,1.64,6.72,7.17,2.65,11.52C186.4,188.33,185.44,187.56,185.44,187.56Z" style="fill:#FF725E"></path><path d="M185.44,187.56c-4.95.72-9.33-1.51-11.23-4s-.92-3.29-2-4.67.79-3.73-.39-7.69c-.72-2.44,2.39-1.79,4.9-1.61s3,1.83,4.71,1.34,4.27,1.08,5.63,2.39c1.69,1.64,6.72,7.17,2.65,11.52C186.4,188.33,185.44,187.56,185.44,187.56Z" style="opacity:0.4"></path><path d="M193.58,187.5c-1.48,2.73-3.43.84-4,0-2.06,2.11-4.65,1.38-6.5.48a.46.46,0,0,1,.19-.88h.17a2.18,2.18,0,0,0,1.85-3.05,2.3,2.3,0,0,1,.87-2.91,2.6,2.6,0,0,1,1.55-.46,2.14,2.14,0,0,0,1.92-3,3.39,3.39,0,0,0-.23-.47.46.46,0,0,1,.69-.59c4.67,3.45,2,8.45,2,8.45S194.56,185.68,193.58,187.5Z" style="fill:#263238"></path><path d="M173.64,175.91c3.37,4.23,11,4.47,11,4.47A9,9,0,0,1,173.64,175.91Z" style="fill:#FF725E"></path><path d="M178.42,176.59c4.28,1.66,7.33-1.63,9.54.62C185.26,173.39,178.42,176.59,178.42,176.59Z" style="fill:#FF725E"></path><path d="M183.3,184.9c-2.31-2-4.94-1-6.78-2C179,184.75,183.3,184.9,183.3,184.9Z" style="fill:#FF725E"></path><path d="M279.4,209.09c-3.22-3.23-2.94-4-1.59-7s-2.68-5.61-.31-9,1.8-5.56,1.76-8.72,3.91-5.61,5.19-9.32C286.06,194.88,279.4,209.09,279.4,209.09Z" style="fill:#FF725E;fill-rule:evenodd"></path><path d="M279.4,209.09c-3.22-3.23-2.94-4-1.59-7s-2.68-5.61-.31-9,1.8-5.56,1.76-8.72,3.91-5.61,5.19-9.32C286.06,194.88,279.4,209.09,279.4,209.09Z" style="fill-rule:evenodd;opacity:0.4"></path><path d="M315.32,177.7c2.63-1.57,2.3-5.16-1.28-4.72-2.58.32-3.37,4.15-4.67,1.51s-3.44-2.89-5.89-2.34c-1.37.31-2.92,1.78-3.67-.38-.89-2.57-4.44-1.4-6.46-1.26-1.67.12-1.23-1.15-2.29-2.22s-4.68-1.34-3.84,3.48C292.48,177.32,303.84,183.56,315.32,177.7Z" style="fill:#FF725E;fill-rule:evenodd"></path><path d="M315.32,177.7c2.63-1.57,2.3-5.16-1.28-4.72-2.58.32-3.37,4.15-4.67,1.51s-3.44-2.89-5.89-2.34c-1.37.31-2.92,1.78-3.67-.38-.89-2.57-4.44-1.4-6.46-1.26-1.67.12-1.23-1.15-2.29-2.22s-4.68-1.34-3.84,3.48C292.48,177.32,303.84,183.56,315.32,177.7Z" style="fill-rule:evenodd;opacity:0.30000000000000004"></path><path d="M285.07,171c-.94-2.46,1.36-3.67,3-1,1.2,1.94,1.32,3,4.55,1.82s5.23-.23,6.83,1.43c.9.93,1,2.76,3.39,1.64,2.83-1.33,4.86,1.33,6.43,2.48,1.3,1,2-.17,3.72-.36s5,1.49.39,4.42C304.51,182.55,289.92,181,285.07,171Z" style="fill:#FF725E;fill-rule:evenodd"></path><path d="M285.07,171c-.94-2.46,1.36-3.67,3-1,1.2,1.94,1.32,3,4.55,1.82s5.23-.23,6.83,1.43c.9.93,1,2.76,3.39,1.64,2.83-1.33,4.86,1.33,6.43,2.48,1.3,1,2-.17,3.72-.36s5,1.49.39,4.42C304.51,182.55,289.92,181,285.07,171Z" style="fill-rule:evenodd;opacity:0.1"></path><path d="M306.92,178.29c-3.86-3.46-7-4.81-12.54-3.39s-6.82-3.38-11.32-6.09c-.42,30.8-10.5,37.71.11,45.25,5.73,4.08,15.66,3.11,20.13-9.32,3.36-9.33,6.77-15.88,14.31-23.17C315,179.39,310.78,181.74,306.92,178.29Z" style="fill:#FF725E;fill-rule:evenodd"></path><path d="M306.92,178.29c-3.86-3.46-7-4.81-12.54-3.39s-6.82-3.38-11.32-6.09c-.42,30.8-10.5,37.71.11,45.25,5.73,4.08,15.66,3.11,20.13-9.32,3.36-9.33,6.77-15.88,14.31-23.17C315,179.39,310.78,181.74,306.92,178.29Z" style="fill-rule:evenodd;opacity:0.30000000000000004"></path><path d="M298.8,178.24c6.05,14.62-2.95,29.65-4.89,32,3.74-4.3,8.54-11.7,7.93-14.38s4.81-3.83,3.27-7.43-.62-5.35-.33-6.27S298.8,178.24,298.8,178.24Z" style="fill-rule:evenodd;opacity:0.1"></path><path d="M317.61,181.57c-2.61-2.18-6.83.17-10.69-3.28s-7-4.81-12.54-3.39-6.82-3.38-11.32-6.09c-4.36-.36-.51,5.07,2.48,5.66s3.25,1.63,5.35,2.87,4.13-1.91,6-1,1.23,5,5.16,5.3,4.55-2.73,7.66-.06S319.35,185,317.61,181.57Z" style="fill:#FF725E;fill-rule:evenodd"></path><path d="M317.61,181.57c-2.61-2.18-6.83.17-10.69-3.28s-7-4.81-12.54-3.39-6.82-3.38-11.32-6.09c-4.36-.36-.51,5.07,2.48,5.66s3.25,1.63,5.35,2.87,4.13-1.91,6-1,1.23,5,5.16,5.3,4.55-2.73,7.66-.06S319.35,185,317.61,181.57Z" style="fill-rule:evenodd;opacity:0.2"></path><path d="M287.49,216.81c-2.27-.68-3.95-.89-6.92-3a7.57,7.57,0,0,1-3.11-5.38,4.8,4.8,0,0,1,5.25,3c1.27-3.18,6-.45,6.56-2.89a9.51,9.51,0,0,1-.48,5.53s5.83-.71,7.06-2.62a6.55,6.55,0,0,1-2,3.81s2.87-.06,3.92-1C296.33,217.49,290.55,217.72,287.49,216.81Z" style="fill:#263238;fill-rule:evenodd"></path><path d="M282.93,213.44a16.24,16.24,0,0,0,1,3.67s-16.65,63.94-36,113.48c.65,5.71,2.45.83,2.45.83s10.95-29.67,20.86-61.68,15.33-51.36,15.33-51.36a4.6,4.6,0,0,0,2.82-1.45S287.79,214.05,282.93,213.44Z" style="fill:#263238;fill-rule:evenodd"></path><path d="M278.32,238.54c-.23,1-1.79-.29-2-1.21-.33,2.92,1.38,3.95,1.38,3.95Z" style="fill:#263238;fill-rule:evenodd"></path><path d="M274.25,257.6c-.28,1,1.71.57,2.32-.16-1.06,2.74-3.05,2.86-3.05,2.86Z" style="fill:#263238;fill-rule:evenodd"></path><path d="M268.07,274.49c-.29,1-1.76-.39-1.91-1.33-.49,2.9,1.15,4,1.15,4Z" style="fill:#263238;fill-rule:evenodd"></path><path d="M263,293.28c-.33,1,1.68.67,2.32,0-1.21,2.67-3.2,2.69-3.2,2.69Z" style="fill:#263238;fill-rule:evenodd"></path><path d="M228.74,87.83c-4,4.49-3.47,5.47-1.15,9.38s-2.87,7.64,1,12.12,3.34,7.35,3.76,11.58,6.29,7.31,8.63,12.2C240.16,106.5,228.74,87.83,228.74,87.83Z" style="fill:#FF725E;fill-rule:evenodd"></path><path d="M228.74,87.83c-4,4.49-3.47,5.47-1.15,9.38s-2.87,7.64,1,12.12,3.34,7.35,3.76,11.58,6.29,7.31,8.63,12.2C240.16,106.5,228.74,87.83,228.74,87.83Z" style="fill-rule:evenodd;opacity:0.1"></path><path d="M271.24,79c2.06-2.6-.19-4.67-3.22-2-2.18,1.91-2.72,3.11-6.1.81a7.37,7.37,0,0,0-8.66-.3c-1.43.82-2.27,2.93-4.66.93-2.84-2.37-6.28.15-8.59,1-1.92.73-2.27-.77-4.27-1.5s-6.53.3-2.19,5.05C243.67,86.94,261.58,89.34,271.24,79Z" style="fill:#FF725E;fill-rule:evenodd"></path><path d="M271.24,79c2.06-2.6-.19-4.67-3.22-2-2.18,1.91-2.72,3.11-6.1.81a7.37,7.37,0,0,0-8.66-.3c-1.43.82-2.27,2.93-4.66.93-2.84-2.37-6.28.15-8.59,1-1.92.73-2.27-.77-4.27-1.5s-6.53.3-2.19,5.05C243.67,86.94,261.58,89.34,271.24,79Z" style="fill-rule:evenodd;opacity:0.30000000000000004"></path><path d="M229.07,82.31c-2.39-2.83.06-5.22,3.53-2.35,2.49,2.06,3.14,3.38,6.84.7A8.23,8.23,0,0,1,249.1,80c1.63.87,2.63,3.2,5.23.89,3.1-2.74,7-.05,9.63.87,2.16.75,2.51-.93,4.72-1.81,2.36-.94,7.31.11,2.61,5.56C260.12,90.24,240.2,93.52,229.07,82.31Z" style="fill:#FF725E;fill-rule:evenodd"></path><path d="M229.07,82.31c-2.39-2.83.06-5.22,3.53-2.35,2.49,2.06,3.14,3.38,6.84.7A8.23,8.23,0,0,1,249.1,80c1.63.87,2.63,3.2,5.23.89,3.1-2.74,7-.05,9.63.87,2.16.75,2.51-.93,4.72-1.81,2.36-.94,7.31.11,2.61,5.56C260.12,90.24,240.2,93.52,229.07,82.31Z" style="fill-rule:evenodd;opacity:0.1"></path><path d="M261.27,83.87c-6.7-3.06-11.43-3.68-18.09.17s-10.56-1.89-17.76-3.76c14,39.86,4,52.42,21.48,58.3,9.46,3.18,22.07-1.65,22.09-19.29,0-13.25,1.42-22.93,7.9-35.06C272.42,82.37,268,86.93,261.27,83.87Z" style="fill:#FF725E;fill-rule:evenodd"></path><path d="M253.33,86c10.44,16.29,9.75,43.15,9.26,47.73,1.07-8.43,1.68-21.9.14-25.22s2.06-8.51-.55-12.5a16.3,16.3,0,0,1-2.78-8.49C259.25,86.05,253.33,86,253.33,86Z" style="fill-rule:evenodd;opacity:0.1"></path><path d="M276.89,84.23c-4.47-1.86-8.91,2.7-15.62-.36s-11.43-3.68-18.09.17-10.56-1.89-17.76-3.76c-5.9,1.1,1.72,6.72,5.94,6.4s5,.92,8.38,1.76,4.53-4,7.46-3.48,4,6,9.28,5,4.7-5.17,10.06-2.85S280.79,88,276.89,84.23Z" style="fill:#FF725E;fill-rule:evenodd"></path><path d="M276.89,84.23c-4.47-1.86-8.91,2.7-15.62-.36s-11.43-3.68-18.09.17-10.56-1.89-17.76-3.76c-5.9,1.1,1.72,6.72,5.94,6.4s5,.92,8.38,1.76,4.53-4,7.46-3.48,4,6,9.28,5,4.7-5.17,10.06-2.85S280.79,88,276.89,84.23Z" style="fill-rule:evenodd;opacity:0.2"></path><path d="M255.48,140.94c-3.24.17-5.49.66-10.29-.74a10.32,10.32,0,0,1-6.46-5.5s4.31,2.27,8.11,1.44,7.54-3.33,7.14-6.71a13.05,13.05,0,0,1,1.9,7.34s7.18-3.58,7.89-6.61A9,9,0,0,1,263,136s3.4-2.17,3.84-4C267.8,136.72,259.84,140.72,255.48,140.94Z" style="fill:#263238;fill-rule:evenodd"></path><path d="M248.06,138.69c.26,1.05,3,4.27,3,4.27s7.76,89.93,5.47,162.56c3.44,7.05,3.54,0,3.54,0s.54-43.21-1.31-89S255,143.39,255,143.39c1.35-.44,2.16-1.79,3-3.15C258,140.24,254.61,137.25,248.06,138.69Z" style="fill:#263238;fill-rule:evenodd"></path><path d="M253.6,173.12c.17,1.44-2.43.44-3.11-.66.9,3.91,3.58,4.46,3.58,4.46Z" style="fill:#263238;fill-rule:evenodd"></path><path d="M257.06,199.51c.11,1.45,2.47,0,2.92-1.26-.12,4-2.63,5.08-2.63,5.08Z" style="fill:#263238;fill-rule:evenodd"></path><path d="M256.82,224.08c.09,1.45-2.45.31-3.07-.83.69,3.95,3.33,4.65,3.33,4.65Z" style="fill:#263238;fill-rule:evenodd"></path><path d="M258.82,250.62c0,1.45,2.47.09,3-1.1-.33,4-2.9,4.93-2.9,4.93Z" style="fill:#263238;fill-rule:evenodd"></path><path d="M232.55,173.32c3.81-3.53,3.52-4.38,2.12-7.82s3.3-6.24.76-10.25-1.78-6.4-1.59-10-4.18-6.54-5.46-10.81C225.64,156.89,232.55,173.32,232.55,173.32Z" style="fill:#FF725E;fill-rule:evenodd"></path><path d="M232.55,173.32c3.81-3.53,3.52-4.38,2.12-7.82s3.3-6.24.76-10.25-1.78-6.4-1.59-10-4.18-6.54-5.46-10.81C225.64,156.89,232.55,173.32,232.55,173.32Z" style="fill-rule:evenodd;opacity:0.1"></path><path d="M193.22,136.05c-2.92-1.9-2.38-6,1.66-5.3,2.91.48,3.63,4.86,5.23,1.92s4-3.12,6.79-2.38c1.55.42,3.24,2.16,4.19-.26,1.12-2.88,5.1-1.39,7.39-1.14,1.89.22,1.44-1.25,2.69-2.41s5.38-1.31,4.21,4.12C219.16,136.66,206,143.22,193.22,136.05Z" style="fill:#FF725E;fill-rule:evenodd"></path><path d="M193.22,136.05c-2.92-1.9-2.38-6,1.66-5.3,2.91.48,3.63,4.86,5.23,1.92s4-3.12,6.79-2.38c1.55.42,3.24,2.16,4.19-.26,1.12-2.88,5.1-1.39,7.39-1.14,1.89.22,1.44-1.25,2.69-2.41s5.38-1.31,4.21,4.12C219.16,136.66,206,143.22,193.22,136.05Z" style="fill-rule:evenodd;opacity:0.30000000000000004"></path><path d="M227.86,129.77c1.17-2.75-1.38-4.23-3.4-1.25-1.45,2.15-1.63,3.34-5.25,1.87s-5.92-.5-7.82,1.31c-1.06,1-1.26,3.09-3.92,1.71-3.15-1.64-5.57,1.28-7.41,2.52-1.52,1-2.22-.28-4.2-.58s-5.76,1.47-.65,5C205.26,142.05,221.89,141,227.86,129.77Z" style="fill:#FF725E;fill-rule:evenodd"></path><path d="M227.86,129.77c1.17-2.75-1.38-4.23-3.4-1.25-1.45,2.15-1.63,3.34-5.25,1.87s-5.92-.5-7.82,1.31c-1.06,1-1.26,3.09-3.92,1.71-3.15-1.64-5.57,1.28-7.41,2.52-1.52,1-2.22-.28-4.2-.58s-5.76,1.47-.65,5C205.26,142.05,221.89,141,227.86,129.77Z" style="fill-rule:evenodd;opacity:0.1"></path><path d="M202.72,137.1c4.54-3.74,8.12-5.14,14.39-3.27s7.89-3.52,13.13-6.39c-.94,35,10.19,43.28-2.19,51.35-6.69,4.36-17.93,2.81-22.43-11.5-3.38-10.75-7-18.33-15.19-27C193.5,138,198.18,140.84,202.72,137.1Z" style="fill:#FF725E;fill-rule:evenodd"></path><path d="M211.93,137.42c-7.53,16.31,2,33.78,4.1,36.57-4.05-5-9.16-13.66-8.35-16.68s-5.28-4.57-3.37-8.58.95-6,.66-7.11S211.93,137.42,211.93,137.42Z" style="fill-rule:evenodd;opacity:0.1"></path><path d="M190.43,140.33c3.07-2.34,7.75.51,12.29-3.23s8.12-5.14,14.39-3.27,7.89-3.52,13.13-6.39c4.95-.23.34,5.77-3.08,6.3s-3.77,1.7-6.2,3-4.6-2.35-6.8-1.41-1.62,5.62-6.1,5.78-5-3.32-8.69-.42S188.3,144.14,190.43,140.33Z" style="fill:#FF725E;fill-rule:evenodd"></path><path d="M190.43,140.33c3.07-2.34,7.75.51,12.29-3.23s8.12-5.14,14.39-3.27,7.89-3.52,13.13-6.39c4.95-.23.34,5.77-3.08,6.3s-3.77,1.7-6.2,3-4.6-2.35-6.8-1.41-1.62,5.62-6.1,5.78-5-3.32-8.69-.42S188.3,144.14,190.43,140.33Z" style="fill-rule:evenodd;opacity:0.2"></path><path d="M223,181.71c2.61-.67,4.52-.83,8-3.13a8.6,8.6,0,0,0,3.78-6,5.46,5.46,0,0,0-6.1,3.15c-1.29-3.67-6.8-.8-7.31-3.58a10.78,10.78,0,0,0,.29,6.3s-6.58-1.07-7.89-3.3a7.37,7.37,0,0,0,2.07,4.41s-3.25-.2-4.4-1.26C213,182.08,219.5,182.6,223,181.71Z" style="fill:#263238;fill-rule:evenodd"></path><path d="M228.35,178.09c.06.9-1.31,4.13-1.31,4.13s16,73.33,35.69,130.44c-1,6.45-2.82.83-2.82.83s-11.07-34.18-20.86-71-15.06-59-15.06-59c-1.17,0-2.16-.9-3.14-1.78C220.85,181.76,222.8,178.56,228.35,178.09Z" style="fill:#263238;fill-rule:evenodd"></path><path d="M232.44,206.8c.21,1.18,2-.25,2.31-1.29.24,3.33-1.75,4.42-1.75,4.42Z" style="fill:#263238;fill-rule:evenodd"></path><path d="M236.19,228.61c.26,1.18-2,.57-2.63-.28,1.08,3.15,3.33,3.39,3.33,3.39Z" style="fill:#263238;fill-rule:evenodd"></path><path d="M242.43,248.06c.28,1.17,2-.36,2.24-1.41.42,3.31-1.5,4.51-1.5,4.51Z" style="fill:#263238;fill-rule:evenodd"></path><path d="M247.38,269.63c.33,1.16-1.94.68-2.64-.14,1.25,3.1,3.52,3.21,3.52,3.21Z" style="fill:#263238;fill-rule:evenodd"></path><path d="M291.09,156.11c3.3,4.13,2.81,5,.59,8.3s2.19,6.84-1.37,10.61-3.26,6.32-3.82,10-5.85,6.15-8.12,10.35A88.12,88.12,0,0,1,291.09,156.11Z" style="fill:#FF725E;fill-rule:evenodd"></path><path d="M291.09,156.11c3.3,4.13,2.81,5,.59,8.3s2.19,6.84-1.37,10.61-3.26,6.32-3.82,10-5.85,6.15-8.12,10.35A88.12,88.12,0,0,1,291.09,156.11Z" style="fill-rule:evenodd;opacity:0.1"></path><path d="M254.11,146.5c-1.7-2.38.37-4.1,2.91-1.63,1.84,1.78,2.26,2.85,5.34,1A6.48,6.48,0,0,1,270,146c1.22.79,1.87,2.68,4.06,1,2.6-2,5.51.41,7.51,1.29,1.65.73,2-.57,3.82-1.13s5.72.55,1.7,4.54C278,154.67,262.15,156,254.11,146.5Z" style="fill:#FF725E;fill-rule:evenodd"></path><path d="M254.11,146.5c-1.7-2.38.37-4.1,2.91-1.63,1.84,1.78,2.26,2.85,5.34,1A6.48,6.48,0,0,1,270,146c1.22.79,1.87,2.68,4.06,1,2.6-2,5.51.41,7.51,1.29,1.65.73,2-.57,3.82-1.13s5.72.55,1.7,4.54C278,154.67,262.15,156,254.11,146.5Z" style="fill-rule:evenodd;opacity:0.30000000000000004"></path><path d="M291,151.25c2.22-2.39.18-4.6-3-2.23-2.29,1.7-2.91,2.83-6.05.32a7.25,7.25,0,0,0-8.46-1c-1.47.7-2.46,2.7-4.64.56-2.6-2.55-6.17-.35-8.51.34-1.93.57-2.16-.93-4.07-1.8s-6.42-.22-2.54,4.78C263.39,156.85,280.76,160.61,291,151.25Z" style="fill:#FF725E;fill-rule:evenodd"></path><path d="M291,151.25c2.22-2.39.18-4.6-3-2.23-2.29,1.7-2.91,2.83-6.05.32a7.25,7.25,0,0,0-8.46-1c-1.47.7-2.46,2.7-4.64.56-2.6-2.55-6.17-.35-8.51.34-1.93.57-2.16-.93-4.07-1.8s-6.42-.22-2.54,4.78C263.39,156.85,280.76,160.61,291,151.25Z" style="fill-rule:evenodd;opacity:0.1"></path><path d="M262.66,151.2c6-2.4,10.21-2.74,15.9.94s9.37-1.2,15.78-2.52c-14,34.43-5.8,45.91-21.45,50.31-8.46,2.38-19.33-2.42-18.57-17.93.57-11.65-.24-20.22-5.41-31.17C252.92,149.39,256.63,153.59,262.66,151.2Z" style="fill:#FF725E;fill-rule:evenodd"></path><path d="M269.55,153.43c-9.89,13.87-10.48,37.5-10.24,41.56-.57-7.46-.52-19.33,1-22.18s-1.43-7.58,1-11a14.3,14.3,0,0,0,2.82-7.34C264.34,153.21,269.55,153.43,269.55,153.43Z" style="fill-rule:evenodd;opacity:0.1"></path><path d="M248.91,150.83c4-1.44,7.72,2.76,13.75.37s10.21-2.74,15.9.94,9.37-1.2,15.78-2.52c5.14,1.22-1.82,5.83-5.5,5.36s-4.48.59-7.45,1.18-3.81-3.67-6.41-3.38-3.75,5.11-8.38,4-3.9-4.76-8.71-3S245.31,154,248.91,150.83Z" style="fill:#FF725E;fill-rule:evenodd"></path><path d="M248.91,150.83c4-1.44,7.72,2.76,13.75.37s10.21-2.74,15.9.94,9.37-1.2,15.78-2.52c5.14,1.22-1.82,5.83-5.5,5.36s-4.48.59-7.45,1.18-3.81-3.67-6.41-3.38-3.75,5.11-8.38,4-3.9-4.76-8.71-3S245.31,154,248.91,150.83Z" style="fill-rule:evenodd;opacity:0.2"></path><path d="M265.24,201.63c2.84.29,4.8.82,9.08-.2a9.11,9.11,0,0,0,5.93-4.55s-3.9,1.81-7.2.91-6.48-3.26-6-6.22a11.45,11.45,0,0,0-2,6.37s-6.15-3.46-6.65-6.15a7.89,7.89,0,0,0,.46,5.14s-2.9-2.06-3.2-3.68C254.59,197.38,261.42,201.24,265.24,201.63Z" style="fill:#263238;fill-rule:evenodd"></path><path d="M271.86,200c-.27.91-2.81,3.62-2.81,3.62s-10.77,78.73-11.95,142.68c-3.34,6.05-3.11-.2-3.11-.2s1.42-38,5.07-78.14,6.48-64.13,6.48-64.13c-1.16-.45-1.82-1.68-2.47-2.91C263.07,200.9,266.17,198.42,271.86,200Z" style="fill:#263238;fill-rule:evenodd"></path><path d="M265.48,230c-.22,1.26,2.12.5,2.77-.44-1,3.4-3.35,3.77-3.35,3.77Z" style="fill:#263238;fill-rule:evenodd"></path><path d="M261.28,253.06c-.17,1.26-2.17-.16-2.51-1.24-.08,3.53,2.08,4.58,2.08,4.58Z" style="fill:#263238;fill-rule:evenodd"></path><path d="M260.41,274.67c-.15,1.27,2.14.38,2.73-.6C262.36,277.52,260,278,260,278Z" style="fill:#263238;fill-rule:evenodd"></path><path d="M257.48,297.92c-.09,1.27-2.17,0-2.57-1.1.12,3.53,2.33,4.46,2.33,4.46Z" style="fill:#263238;fill-rule:evenodd"></path><path d="M216.16,176c-2.93,5.24-2.23,6.09.88,9.42s-1.19,8.07,3.5,11.63,4.82,6.48,6.14,10.53,7.69,5.8,11,10.09C231.28,191.84,216.16,176,216.16,176Z" style="fill:#FF725E;fill-rule:evenodd"></path><path d="M216.16,176c-2.93,5.24-2.23,6.09.88,9.42s-1.19,8.07,3.5,11.63,4.82,6.48,6.14,10.53,7.69,5.8,11,10.09C231.28,191.84,216.16,176,216.16,176Z" style="fill:#fff;fill-rule:evenodd;opacity:0.30000000000000004"></path><path d="M255.83,158.4c1.47-3-1.17-4.52-3.57-1.28-1.72,2.33-2,3.61-5.79,2.09a7.37,7.37,0,0,0-8.53,1.53c-1.22,1.11-1.59,3.35-4.35,1.91-3.28-1.72-6.11,1.47-8.18,2.83-1.71,1.12-2.38-.27-4.49-.56s-6.32,1.68-1.07,5.4C230.57,172,248.58,170.54,255.83,158.4Z" style="fill:#FF725E;fill-rule:evenodd"></path><path d="M255.83,158.4c1.47-3-1.17-4.52-3.57-1.28-1.72,2.33-2,3.61-5.79,2.09a7.37,7.37,0,0,0-8.53,1.53c-1.22,1.11-1.59,3.35-4.35,1.91-3.28-1.72-6.11,1.47-8.18,2.83-1.71,1.12-2.38-.27-4.49-.56s-6.32,1.68-1.07,5.4C230.57,172,248.58,170.54,255.83,158.4Z" style="fill-rule:evenodd;opacity:0.30000000000000004"></path><path d="M215.32,170.56c-2.93-2.26-1-5.12,3-3.05,2.88,1.49,3.79,2.64,6.84-.76a8.23,8.23,0,0,1,9.31-2.66c1.77.51,3.24,2.57,5.3-.24,2.44-3.33,6.85-1.53,9.59-1.19,2.28.28,2.26-1.44,4.23-2.77s7.16-1.44,3.73,4.88C247.34,171.72,228.57,179.15,215.32,170.56Z" style="fill:#FF725E;fill-rule:evenodd"></path><path d="M215.32,170.56c-2.93-2.26-1-5.12,3-3.05,2.88,1.49,3.79,2.64,6.84-.76a8.23,8.23,0,0,1,9.31-2.66c1.77.51,3.24,2.57,5.3-.24,2.44-3.33,6.85-1.53,9.59-1.19,2.28.28,2.26-1.44,4.23-2.77s7.16-1.44,3.73,4.88C247.34,171.72,228.57,179.15,215.32,170.56Z" style="fill-rule:evenodd;opacity:0.1"></path><path d="M247.12,165.25c-7.2-1.56-12-1.17-17.65,4s-10.72.39-18.15.09c22.12,36,15,50.38,33.36,52.42,9.92,1.1,21.22-6.3,17.49-23.54-2.8-12.95-3.47-22.71.29-35.94C257.7,161.43,254.32,166.82,247.12,165.25Z" style="fill:#FF725E;fill-rule:evenodd"></path><path d="M247.12,165.25c-7.2-1.56-12-1.17-17.65,4s-10.72.39-18.15.09c22.12,36,15,50.38,33.36,52.42,9.92,1.1,21.22-6.3,17.49-23.54-2.8-12.95-3.47-22.71.29-35.94C257.7,161.43,254.32,166.82,247.12,165.25Z" style="fill:#fff;fill-rule:evenodd;opacity:0.4"></path><path d="M239.81,169c13.66,13.71,18.69,40.1,19.18,44.69-.75-8.48-3-21.77-5.22-24.68s.21-8.76-3.18-12.1a16.3,16.3,0,0,1-4.52-7.71C245.61,167.82,239.81,169,239.81,169Z" style="fill:#FF725E;fill-rule:evenodd;opacity:0.30000000000000004"></path><path d="M262.46,162.29c-4.76-.86-8.14,4.53-15.34,3s-12-1.17-17.65,4-10.72.39-18.15.09c-5.53,2.32,3.11,6.2,7.16,5s5.13-.16,8.57-.05,3.59-4.82,6.55-5,5.16,5,10.13,2.88,3.49-6.05,9.22-4.91S267.08,165.17,262.46,162.29Z" style="fill:#FF725E;fill-rule:evenodd"></path><path d="M262.46,162.29c-4.76-.86-8.14,4.53-15.34,3s-12-1.17-17.65,4-10.72.39-18.15.09c-5.53,2.32,3.11,6.2,7.16,5s5.13-.16,8.57-.05,3.59-4.82,6.55-5,5.16,5,10.13,2.88,3.49-6.05,9.22-4.91S267.08,165.17,262.46,162.29Z" style="fill-rule:evenodd;opacity:0.2"></path><path d="M253.57,222.26c-3.13.85-5.23,1.8-10.22,1.46a10.34,10.34,0,0,1-7.48-4s4.7,1.3,8.24-.31,6.65-4.86,5.54-8.08a13,13,0,0,1,3.42,6.77s6.26-5,6.31-8.13a9,9,0,0,1,.45,5.85s2.86-2.84,2.9-4.72C264.71,215.52,257.78,221.12,253.57,222.26Z" style="fill:#263238;fill-rule:evenodd"></path><path d="M271.1,295h0a1.6,1.6,0,0,1-2-1.11c-10.24-39-19.42-68.67-19.42-68.67s-3.34-2.57-3.81-3.54c6.09-2.8,10-.6,10-.6-.5,1.51-1,3-2.23,3.72,0,0,7.35,25.43,18.52,68.28A1.59,1.59,0,0,1,271.1,295Z" style="fill:#263238;fill-rule:evenodd"></path><path d="M258.55,254.1c.48,1.37-2.28,1-3.18,0,1.72,3.62,4.44,3.6,4.44,3.6Z" style="fill:#263238;fill-rule:evenodd"></path><path d="M267.53,279.16c.42,1.39,2.4-.57,2.58-1.85.74,3.94-1.48,5.52-1.48,5.52Z" style="fill:#263238;fill-rule:evenodd"></path><path d="M328.66,218.13a16.19,16.19,0,0,0-2.78,3.41,1.2,1.2,0,0,0-.16.72l-1.22.35a3.66,3.66,0,0,0,.68-1.09,5.15,5.15,0,0,0,0-3.2s-2.64,2.79-3.14,4.19c-.19.49-.22.77-.14.92l-1.28.42a3.76,3.76,0,0,0,.73-1.27,5.88,5.88,0,0,0-.11-3.53s-2.73,3.16-3.22,4.72c-.19.57-.21.88-.12,1-.54.2-1.08.42-1.63.64a4.38,4.38,0,0,0,.89-1.65,7.22,7.22,0,0,0-.25-4.21s-3,3.88-3.51,5.75c-.22.77-.19,1.14,0,1.29l-1.67.72a4.78,4.78,0,0,0,.89-1.87,8.51,8.51,0,0,0-.41-4.64s-3.07,4.39-3.49,6.47c-.2.87-.15,1.28,0,1.44-.69.33-1.37.68-2.05,1a5.61,5.61,0,0,0,1-2.36A10.47,10.47,0,0,0,307,222c-.05,0-3.27,5.31-3.62,7.78-.18,1.09-.1,1.58.15,1.73l-2,1.15a6,6,0,0,0,.91-2.62,12.14,12.14,0,0,0-.93-5.92c-.06,0-3.12,5.88-3.34,8.56-.12,1.21,0,1.73.27,1.88-.77.49-1.54,1-2.29,1.49a7.12,7.12,0,0,0,.87-3.16,15.27,15.27,0,0,0-1.33-6.89c-.08,0-3.15,7-3.19,10.11-.07,1.48.12,2.07.46,2.19-.75.55-1.49,1.1-2.23,1.67a8,8,0,0,0,.75-3.62,18.82,18.82,0,0,0-1.79-7.69c-.1,0-2.94,7.93-2.75,11.39,0,1.7.29,2.35.67,2.45-.85.72-1.7,1.45-2.53,2.2a9.31,9.31,0,0,0,.59-4.3,24.17,24.17,0,0,0-2.43-8.8c-.12,0-2.66,9.2-2.16,13.14.2,2,.54,2.73,1,2.79-.78.76-1.55,1.53-2.31,2.32a10,10,0,0,0,.27-4.57,28.69,28.69,0,0,0-3-9.22c-.12,0-2,9.72-1.17,13.81.36,2.14.76,2.86,1.21,2.9-.81.91-1.61,1.84-2.39,2.78.32-1,.37-2.52-.09-5.24a38,38,0,0,0-3.86-10.4c-.15,0-1.41,11-.15,15.55.59,2.47,1.1,3.24,1.59,3.23-.7.93-1.39,1.86-2.07,2.81.24-1.05.16-2.6-.54-5.45a46.74,46.74,0,0,0-4.57-10.8c-.15,0-.55,11.43,1.09,16.07.8,2.56,1.37,3.35,1.86,3.33-.69,1-1.37,2.12-2,3.2.16-1.14-.05-2.83-1.07-6.05a64.42,64.42,0,0,0-5.64-12c-.18.06.31,12.64,2.49,17.66,1.12,2.85,1.8,3.69,2.32,3.64-.57,1-1.12,2-1.65,3.08.07-1.12-.29-2.8-1.57-6.06a84.78,84.78,0,0,0-6.4-12.16c-.18.07,1.3,12.69,3.86,17.69,1.34,2.88,2.07,3.71,2.58,3.65-.53,1.11-1,2.24-1.51,3.37,0-1.17-.53-3-2.23-6.59a123.23,123.23,0,0,0-7.61-13.29c-.19.09,2.33,13.73,5.49,19,1.72,3.16,2.57,4,3.09,3.92a103.15,103.15,0,0,0-4.19,13.36.29.29,0,0,0,.22.35h.07a.29.29,0,0,0,.28-.23,103.85,103.85,0,0,1,3.82-12.34c.3.45,1.45.55,4.63,0,5.32-1.16,15.57-3.35,16.21-3.33-.34-.09-7.73-2.17-13.64-1.52-3.59.41-5.17,1.05-6,1.8.47-1.13.95-2.24,1.46-3.35.24.48,1.28.66,4.16.34,5.07-.73,15.08-2.52,15.06-2.37s-6.73-2.59-12.23-2.35c-3.21.15-4.7.65-5.52,1.32.52-1.05,1.06-2.09,1.62-3.11.18.53,1.16.81,4,.69,5-.38,15-1.68,14.94-1.53s-6.25-3.17-11.61-3.33c-3.14-.07-4.64.35-5.52,1q1-1.67,2-3.27c.11.52,1,.87,3.48.94,4.49,0,13.66-.86,13.63-.73s-5.32-3.36-10.09-3.84c-2.75-.26-4.14,0-5,.6.68-1,1.38-2,2.09-2.91.05.54.83,1,3.21,1.19,4.29.29,13.23-.11,13.2,0s-4.72-3.71-9.22-4.5c-2.58-.43-3.95-.22-4.84.29.79-1,1.6-1.95,2.43-2.9,0,.51.66.94,2.7,1.29,3.77.54,11.86.5,11.84.59s-3.85-3.68-7.76-4.65c-2.17-.52-3.4-.42-4.25,0,.77-.82,1.56-1.63,2.36-2.43,0,.5.55,1,2.44,1.43,3.54.76,11.37,1.09,11.33,1.17s-3.27-3.86-6.91-5c-2-.63-3.17-.61-4-.28q1.28-1.17,2.58-2.31c0,.45.45.88,2,1.38,3,.89,10,1.46,10,1.53s-2.53-3.65-5.62-4.87a5.44,5.44,0,0,0-3.45-.46q1.13-.9,2.28-1.77c0,.39.38.81,1.7,1.33,2.68,1,9,1.75,9,1.8s-2-3.47-4.68-4.73a4.94,4.94,0,0,0-3-.6c.76-.53,1.53-1.06,2.31-1.57,0,.34.31.71,1.36,1.2,2.25,1,7.8,1.87,7.79,1.91s-1.45-3.14-3.7-4.34a4.31,4.31,0,0,0-2.48-.65c.67-.41,1.33-.81,2-1.2-.05.31.25.68,1.18,1.17,2,1,7.23,2.06,7.21,2.09s-1.09-3-3.11-4.24a3.88,3.88,0,0,0-2.25-.7c.67-.36,1.36-.71,2-1.05,0,.26.21.57.92,1,1.68,1,6.16,2,6.15,2s-.74-2.64-2.4-3.76a3.44,3.44,0,0,0-1.77-.68c.54-.25,1.08-.51,1.63-.75,0,.23.19.52.79.93,1.49,1,5.6,2,5.59,2.07a6.82,6.82,0,0,0-2-3.54,3.07,3.07,0,0,0-1.55-.68c.53-.22,1.07-.42,1.6-.63,0,.19.19.43.63.75a24.32,24.32,0,0,0,4.7,1.91,5.57,5.57,0,0,0-1.49-3.06,2.8,2.8,0,0,0-1.16-.6l1.22-.43c0,.17.16.38.53.68a22.7,22.7,0,0,0,4.27,1.88,4.89,4.89,0,0,0-1.22-2.84,2.51,2.51,0,0,0-1-.57l1.17-.37a1.08,1.08,0,0,0,.41.54,18,18,0,0,0,3.56,1.68,4,4,0,0,0-.91-2.42,2.08,2.08,0,0,0-.73-.46l1.7-.47a.3.3,0,0,0,.21-.36.29.29,0,0,0-.36-.21h0a3.06,3.06,0,0,0,.54-.81A4.19,4.19,0,0,0,328.66,218.13Z" style="fill:#FF725E"></path><path d="M328.66,218.13a16.19,16.19,0,0,0-2.78,3.41,1.2,1.2,0,0,0-.16.72l-1.22.35a3.66,3.66,0,0,0,.68-1.09,5.15,5.15,0,0,0,0-3.2s-2.64,2.79-3.14,4.19c-.19.49-.22.77-.14.92l-1.28.42a3.76,3.76,0,0,0,.73-1.27,5.88,5.88,0,0,0-.11-3.53s-2.73,3.16-3.22,4.72c-.19.57-.21.88-.12,1-.54.2-1.08.42-1.63.64a4.38,4.38,0,0,0,.89-1.65,7.22,7.22,0,0,0-.25-4.21s-3,3.88-3.51,5.75c-.22.77-.19,1.14,0,1.29l-1.67.72a4.78,4.78,0,0,0,.89-1.87,8.51,8.51,0,0,0-.41-4.64s-3.07,4.39-3.49,6.47c-.2.87-.15,1.28,0,1.44-.69.33-1.37.68-2.05,1a5.61,5.61,0,0,0,1-2.36A10.47,10.47,0,0,0,307,222c-.05,0-3.27,5.31-3.62,7.78-.18,1.09-.1,1.58.15,1.73l-2,1.15a6,6,0,0,0,.91-2.62,12.14,12.14,0,0,0-.93-5.92c-.06,0-3.12,5.88-3.34,8.56-.12,1.21,0,1.73.27,1.88-.77.49-1.54,1-2.29,1.49a7.12,7.12,0,0,0,.87-3.16,15.27,15.27,0,0,0-1.33-6.89c-.08,0-3.15,7-3.19,10.11-.07,1.48.12,2.07.46,2.19-.75.55-1.49,1.1-2.23,1.67a8,8,0,0,0,.75-3.62,18.82,18.82,0,0,0-1.79-7.69c-.1,0-2.94,7.93-2.75,11.39,0,1.7.29,2.35.67,2.45-.85.72-1.7,1.45-2.53,2.2a9.31,9.31,0,0,0,.59-4.3,24.17,24.17,0,0,0-2.43-8.8c-.12,0-2.66,9.2-2.16,13.14.2,2,.54,2.73,1,2.79-.78.76-1.55,1.53-2.31,2.32a10,10,0,0,0,.27-4.57,28.69,28.69,0,0,0-3-9.22c-.12,0-2,9.72-1.17,13.81.36,2.14.76,2.86,1.21,2.9-.81.91-1.61,1.84-2.39,2.78.32-1,.37-2.52-.09-5.24a38,38,0,0,0-3.86-10.4c-.15,0-1.41,11-.15,15.55.59,2.47,1.1,3.24,1.59,3.23-.7.93-1.39,1.86-2.07,2.81.24-1.05.16-2.6-.54-5.45a46.74,46.74,0,0,0-4.57-10.8c-.15,0-.55,11.43,1.09,16.07.8,2.56,1.37,3.35,1.86,3.33-.69,1-1.37,2.12-2,3.2.16-1.14-.05-2.83-1.07-6.05a64.42,64.42,0,0,0-5.64-12c-.18.06.31,12.64,2.49,17.66,1.12,2.85,1.8,3.69,2.32,3.64-.57,1-1.12,2-1.65,3.08.07-1.12-.29-2.8-1.57-6.06a84.78,84.78,0,0,0-6.4-12.16c-.18.07,1.3,12.69,3.86,17.69,1.34,2.88,2.07,3.71,2.58,3.65-.53,1.11-1,2.24-1.51,3.37,0-1.17-.53-3-2.23-6.59a123.23,123.23,0,0,0-7.61-13.29c-.19.09,2.33,13.73,5.49,19,1.72,3.16,2.57,4,3.09,3.92a103.15,103.15,0,0,0-4.19,13.36.29.29,0,0,0,.22.35h.07a.29.29,0,0,0,.28-.23,103.85,103.85,0,0,1,3.82-12.34c.3.45,1.45.55,4.63,0,5.32-1.16,15.57-3.35,16.21-3.33-.34-.09-7.73-2.17-13.64-1.52-3.59.41-5.17,1.05-6,1.8.47-1.13.95-2.24,1.46-3.35.24.48,1.28.66,4.16.34,5.07-.73,15.08-2.52,15.06-2.37s-6.73-2.59-12.23-2.35c-3.21.15-4.7.65-5.52,1.32.52-1.05,1.06-2.09,1.62-3.11.18.53,1.16.81,4,.69,5-.38,15-1.68,14.94-1.53s-6.25-3.17-11.61-3.33c-3.14-.07-4.64.35-5.52,1q1-1.67,2-3.27c.11.52,1,.87,3.48.94,4.49,0,13.66-.86,13.63-.73s-5.32-3.36-10.09-3.84c-2.75-.26-4.14,0-5,.6.68-1,1.38-2,2.09-2.91.05.54.83,1,3.21,1.19,4.29.29,13.23-.11,13.2,0s-4.72-3.71-9.22-4.5c-2.58-.43-3.95-.22-4.84.29.79-1,1.6-1.95,2.43-2.9,0,.51.66.94,2.7,1.29,3.77.54,11.86.5,11.84.59s-3.85-3.68-7.76-4.65c-2.17-.52-3.4-.42-4.25,0,.77-.82,1.56-1.63,2.36-2.43,0,.5.55,1,2.44,1.43,3.54.76,11.37,1.09,11.33,1.17s-3.27-3.86-6.91-5c-2-.63-3.17-.61-4-.28q1.28-1.17,2.58-2.31c0,.45.45.88,2,1.38,3,.89,10,1.46,10,1.53s-2.53-3.65-5.62-4.87a5.44,5.44,0,0,0-3.45-.46q1.13-.9,2.28-1.77c0,.39.38.81,1.7,1.33,2.68,1,9,1.75,9,1.8s-2-3.47-4.68-4.73a4.94,4.94,0,0,0-3-.6c.76-.53,1.53-1.06,2.31-1.57,0,.34.31.71,1.36,1.2,2.25,1,7.8,1.87,7.79,1.91s-1.45-3.14-3.7-4.34a4.31,4.31,0,0,0-2.48-.65c.67-.41,1.33-.81,2-1.2-.05.31.25.68,1.18,1.17,2,1,7.23,2.06,7.21,2.09s-1.09-3-3.11-4.24a3.88,3.88,0,0,0-2.25-.7c.67-.36,1.36-.71,2-1.05,0,.26.21.57.92,1,1.68,1,6.16,2,6.15,2s-.74-2.64-2.4-3.76a3.44,3.44,0,0,0-1.77-.68c.54-.25,1.08-.51,1.63-.75,0,.23.19.52.79.93,1.49,1,5.6,2,5.59,2.07a6.82,6.82,0,0,0-2-3.54,3.07,3.07,0,0,0-1.55-.68c.53-.22,1.07-.42,1.6-.63,0,.19.19.43.63.75a24.32,24.32,0,0,0,4.7,1.91,5.57,5.57,0,0,0-1.49-3.06,2.8,2.8,0,0,0-1.16-.6l1.22-.43c0,.17.16.38.53.68a22.7,22.7,0,0,0,4.27,1.88,4.89,4.89,0,0,0-1.22-2.84,2.51,2.51,0,0,0-1-.57l1.17-.37a1.08,1.08,0,0,0,.41.54,18,18,0,0,0,3.56,1.68,4,4,0,0,0-.91-2.42,2.08,2.08,0,0,0-.73-.46l1.7-.47a.3.3,0,0,0,.21-.36.29.29,0,0,0-.36-.21h0a3.06,3.06,0,0,0,.54-.81A4.19,4.19,0,0,0,328.66,218.13Z" style="fill:#fff;opacity:0.4"></path><path d="M279.06,281.52h0Z" style="fill:#FF725E"></path><path d="M246.06,310.84a.38.38,0,0,1-.38-.38A132.37,132.37,0,0,0,174.62,193.7.38.38,0,1,1,175,193a133.15,133.15,0,0,1,71.46,117.44.37.37,0,0,1-.38.38Z" style="fill:#FF725E"></path><path d="M175.29,188.45s2.25,3.54,2.5,5.13-.43,1.15-1.3.68a3,3,0,0,1-1.94-2.43A5.43,5.43,0,0,1,175.29,188.45Z" style="fill:#FF725E"></path><path d="M179.66,189.73s2.5,4.31,2.73,6.22-.55,1.37-1.55.78a3.53,3.53,0,0,1-2.15-3A6.57,6.57,0,0,1,179.66,189.73Z" style="fill:#FF725E"></path><path d="M184.42,191.82s2.51,4.81,2.67,6.92-.64,1.5-1.67.82a3.78,3.78,0,0,1-2.19-3.31A7.67,7.67,0,0,1,184.42,191.82Z" style="fill:#FF725E"></path><path d="M189.73,193.79s2.68,5.8,2.74,8.31-.82,1.76-2,.94a4.45,4.45,0,0,1-2.34-4A9.46,9.46,0,0,1,189.73,193.79Z" style="fill:#FF725E"></path><path d="M195.36,196.78s2.57,6.46,2.48,9.21-1,1.91-2.11,1-2.16-1.61-2.27-4.45A10.89,10.89,0,0,1,195.36,196.78Z" style="fill:#FF725E"></path><path d="M201.56,199.71c.07,0,2.56,7.69,2.27,10.91s-1.21,2.21-2.45,1.1-2.32-1.93-2.27-5.29S201.55,199.71,201.56,199.71Z" style="fill:#FF725E"></path><path d="M207.88,204c.08,0,2.2,8.35,1.68,11.8s-1.39,2.35-2.6,1.14-2.28-2.12-2-5.74S207.87,204,207.88,204Z" style="fill:#FF725E"></path><path d="M214.68,208.13c.11,0,1.92,9.77,1,13.72s-1.73,2.69-3,1.28-2.35-2.49-1.8-6.69S214.67,208.12,214.68,208.13Z" style="fill:#FF725E"></path><path d="M221.48,213.28c.12,0,1.35,10.88.09,15.21s-2.06,2.93-3.26,1.37-2.29-2.76-1.38-7.4S221.47,213.28,221.48,213.28Z" style="fill:#FF725E"></path><path d="M228.76,218.91c.15,0,.63,12.42-1.18,17.24-1.65,4.88-2.52,3.27-3.67,1.53s-2.24-3.11-.83-8.38S228.75,218.9,228.76,218.91Z" style="fill:#FF725E"></path><path d="M235.3,226.39c.16.05-.37,12.88-2.61,17.8-2.08,5-2.83,3.36-3.82,1.58s-2-3.18-.1-8.62S235.29,226.39,235.3,226.39Z" style="fill:#FF725E"></path><path d="M242.13,233.13c.18.08-1.49,14.35-4.43,19.7-2.74,5.45-3.39,3.68-4.28,1.75s-1.79-3.44.75-9.45S242.12,233.13,242.13,233.13Z" style="fill:#FF725E"></path><path d="M247.8,241.59c.18.09-2.7,14.61-6.15,20-3.24,5.48-3.75,3.72-4.46,1.82s-1.49-3.41,1.62-9.52S247.79,241.59,247.8,241.59Z" style="fill:#FF725E"></path><path d="M253.74,249.07c.22.13-4.14,15.89-8.38,21.59-4,5.84-4.41,4-5,2-.66-2.13-1.24-3.54,2.7-10.15S253.74,249.08,253.74,249.07Z" style="fill:#FF725E"></path><path d="M258,258.29c.2.14-5.42,15.65-10.13,21.21-4.5,5.73-4.74,3.95-5.15,2.1-.48-2-.92-3.35,3.58-9.84A107.57,107.57,0,0,1,258,258.29Z" style="fill:#FF725E"></path><path d="M262.77,265.85c.22.17-7,16.67-12.59,22.45-5.33,6-5.45,4.17-5.71,2.31-.35-2.05-.69-3.35,4.73-10.21A164.76,164.76,0,0,1,262.77,265.85Z" style="fill:#FF725E"></path><path d="M173.7,197.94a22.52,22.52,0,0,0,5-1.06c1.32-.69.6-1.06-.26-1.55a2.45,2.45,0,0,0-2.87-.17A5.16,5.16,0,0,0,173.7,197.94Z" style="fill:#FF725E"></path><path d="M177,200.78s4.34-.37,5.94-1.1.78-1.23-.19-1.83a2.85,2.85,0,0,0-3.38-.3C177.72,198.39,177,200.79,177,200.78Z" style="fill:#FF725E"></path><path d="M180.74,203.73s4.72-.28,6.51-1,.94-1.3-.07-2-1.84-1.28-3.64-.43S180.75,203.73,180.74,203.73Z" style="fill:#FF725E"></path><path d="M184.4,207.49s5.51-.18,7.67-1,1.22-1.46.09-2.3-2-1.56-4.22-.63S184.41,207.5,184.4,207.49Z" style="fill:#FF725E"></path><path d="M188.6,211.41s6,0,8.37-.74,1.45-1.52.3-2.45-2.07-1.76-4.52-.85S188.6,211.42,188.6,211.41Z" style="fill:#FF725E"></path><path d="M192.45,216.27c0-.05,6.87.2,9.74-.5s1.84-1.64.61-2.77-2.22-2.1-5.15-1.17S192.46,216.28,192.45,216.27Z" style="fill:#FF725E"></path><path d="M196.92,221.22c0-.06,7.27.48,10.41-.1s2.12-1.61.93-2.83-2.17-2.31-5.38-1.47S196.92,221.23,196.92,221.22Z" style="fill:#FF725E"></path><path d="M200.58,227.14c0-.08,8.25.83,11.92.39s2.64-1.64,1.41-3.07-2.22-2.69-6-1.92S200.59,227.15,200.58,227.14Z" style="fill:#FF725E"></path><path d="M204.35,233.31c0-.09,9,1.26,13.08,1s3.1-1.56,1.91-3.14-2.15-3-6.43-2.38S204.35,233.33,204.35,233.31Z" style="fill:#FF725E"></path><path d="M207.54,240.35c0-.12,10,1.79,14.68,1.88s3.72-1.42,2.58-3.19-2.07-3.37-7-3S207.54,240.37,207.54,240.35Z" style="fill:#FF725E"></path><path d="M211.42,247.27c0-.12,10.2,2.33,15.13,2.76s4.06-1.1,3.07-2.91-1.79-3.44-7-3.42S211.42,247.29,211.42,247.27Z" style="fill:#FF725E"></path><path d="M213.54,254.74c0-.15,11.18,3,16.68,3.91,5.5.74,4.71-.76,3.82-2.72s-1.58-3.75-7.51-4.14S213.54,254.76,213.54,254.74Z" style="fill:#FF725E"></path><path d="M216.38,262c0-.16,11.34,3.62,17,5,5.68,1.16,5-.31,4.3-2.26s-1.26-3.72-7.42-4.57S216.38,262,216.38,262Z" style="fill:#FF725E"></path><path d="M217.3,269.41c0-.19,12.24,4.41,18.42,6.38,6.2,1.74,5.62.22,5-1.81s-1-3.89-7.79-5.32S217.29,269.43,217.3,269.41Z" style="fill:#FF725E"></path><path d="M219.35,276.55c0-.2,12.13,5,18.32,7.46,6.22,2.21,5.75.77,5.34-1.15s-.63-3.69-7.5-5.66S219.34,276.55,219.35,276.55Z" style="fill:#FF725E"></path><path d="M219.12,283.31c0-.23,12.95,5.87,19.55,9,6.64,2.88,6.25,1.45,6-.48s-.35-3.73-7.79-6.41S219.11,283.31,219.12,283.31Z" style="fill:#FF725E"></path><path d="M227.54,307.05c-14.9,6.45-5.44,38.61-17.68,44.39a24.35,24.35,0,0,0,7.45,0,25.75,25.75,0,0,1-4,6.46c5.85.55,16.13-5.43,16-25.18s4.37-21.87,4.37-21.87Z" style="fill:#FF725E"></path><path d="M227.54,307.05c-14.9,6.45-5.44,38.61-17.68,44.39a24.35,24.35,0,0,0,7.45,0,25.75,25.75,0,0,1-4,6.46c5.85.55,16.13-5.43,16-25.18s4.37-21.87,4.37-21.87Z" style="fill:#fff;opacity:0.30000000000000004"></path><path d="M207.46,389.08c-.69-6.63.38-14,3.19-21.84l1,.34c-2.76,7.72-3.81,14.92-3.13,21.39Z" style="fill:#FF725E"></path><path d="M212.28,403.35a33.08,33.08,0,0,1-2.43-4.74l.94-.39a31.06,31.06,0,0,0,2.36,4.59Z" style="fill:#FF725E"></path><path d="M300.79,283.79s-17.39-9.85-49.43-9.85-49.42,9.85-49.42,9.85c19,21,31.64,37.5,13.48,81-12.61,30.19,3.12,45.08,18.41,51.37v0a4.06,4.06,0,0,0,3.84,4h27.38a4.06,4.06,0,0,0,3.84-4v0c15.3-6.29,31-21.18,18.42-51.37C269.14,321.29,281.75,304.77,300.79,283.79Z" style="fill:#FF725E"></path><polygon points="319.38 269.1 225.78 294.91 206.47 245.84 300.08 220.03 319.38 269.1" style="fill:#FF725E"></polygon><path d="M225.48,295.5l-19.67-50,.53-.14,94-25.93,19.67,50-.53.15Zm-18.35-49.33,18.94,48.14,92.65-25.55-18.94-48.14Z" style="fill:#FF725E"></path><g style="opacity:0.5"><polygon points="319.38 269.1 225.78 294.91 206.47 245.84 300.08 220.03 319.38 269.1" style="fill:#fff"></polygon><path d="M225.48,295.5l-19.67-50,.53-.14,94-25.93,19.67,50-.53.15Zm-18.35-49.33,18.94,48.14,92.65-25.55-18.94-48.14Z" style="fill:#FF725E"></path></g><rect x="212.16" y="231.93" width="97.1" height="55.96" transform="translate(-59.71 78.66) rotate(-15.42)" style="fill:#fff"></rect><path d="M221,300.4l-15.14-54.9,94.56-26.08,15.14,54.9Zm-13.92-54.21,14.61,53,92.66-25.55-14.62-53Z" style="fill:#FF725E"></path><g style="opacity:0.2"><path d="M223.79,296.5c-1-.23.91-2.22.64-3.2s-2.19-.46-2.46-1.45,1.64-1.51,1.37-2.5-2.19-.46-2.46-1.44,1.65-1.51,1.37-2.5-2.19-.46-2.46-1.44,1.65-1.52,1.38-2.51S219,281,218.7,280s1.65-1.52,1.38-2.5-2.19-.46-2.47-1.45,1.65-1.51,1.38-2.5-2.19-.46-2.46-1.45,1.64-1.51,1.37-2.5-2.19-.46-2.46-1.45,1.64-1.52,1.37-2.5-2.19-.46-2.46-1.45,1.64-1.52,1.37-2.51-2.19-.45-2.46-1.44,1.64-1.52,1.37-2.5-2.19-.46-2.46-1.45,1.64-1.52,1.37-2.51-2.19-.46-2.46-1.45,1.64-1.52,1.37-2.51-2.94-1.71-2.2-2.43c1.34-1.3,2.76,1.18,4.56.68s1.27-2.42,3.07-2.91,2.33,1.42,4.13.92,1.27-2.41,3.07-2.91,2.33,1.42,4.13.93,1.27-2.42,3.08-2.91,2.33,1.42,4.13.92,1.27-2.41,3.07-2.91,2.33,1.42,4.13.93,1.27-2.42,3.07-2.92,2.33,1.43,4.13.93,1.27-2.42,3.07-2.91,2.33,1.42,4.13.92,1.27-2.41,3.07-2.91,2.33,1.42,4.13.93,1.28-2.42,3.08-2.92,2.33,1.43,4.13.93,1.27-2.42,3.08-2.91,2.33,1.42,4.13.92,1.27-2.41,3.07-2.91,2.34,1.42,4.14.92,1.27-2.41,3.07-2.91,2.34,1.42,4.14.92,1.75-3.35,3.58-2.92c1,.23-.92,2.22-.65,3.21s2.2.45,2.47,1.44-1.65,1.51-1.38,2.5,2.19.46,2.46,1.44-1.64,1.52-1.37,2.5,2.19.46,2.46,1.45-1.64,1.51-1.37,2.5,2.19.46,2.46,1.44-1.65,1.52-1.37,2.5,2.19.46,2.46,1.45-1.65,1.52-1.38,2.5,2.2.46,2.47,1.45-1.65,1.51-1.38,2.5,2.2.46,2.47,1.45-1.65,1.52-1.38,2.5,2.2.46,2.47,1.45-1.65,1.52-1.38,2.51,2.19.45,2.47,1.44-1.65,1.52-1.38,2.5,2.19.46,2.47,1.45-1.65,1.52-1.38,2.51,2.2.46,2.47,1.45S308.7,269,309,270s2.93,1.71,2.2,2.43c-1.34,1.3-2.76-1.18-4.56-.68s-1.28,2.42-3.08,2.91-2.33-1.42-4.13-.92-1.27,2.41-3.07,2.91-2.33-1.42-4.13-.93-1.27,2.42-3.07,2.92-2.33-1.43-4.13-.93-1.27,2.42-3.08,2.91-2.32-1.42-4.12-.92-1.27,2.41-3.08,2.91-2.32-1.43-4.12-.93-1.27,2.42-3.08,2.91-2.32-1.42-4.12-.92-1.28,2.41-3.08,2.91-2.33-1.42-4.13-.93-1.27,2.42-3.07,2.92-2.33-1.43-4.14-.93-1.27,2.42-3.07,2.91-2.33-1.42-4.14-.92-1.27,2.42-3.07,2.91-2.33-1.42-4.13-.92-1.28,2.41-3.08,2.91-2.78-1.78-4.39-.82C225.18,294.85,225.61,296.93,223.79,296.5Z" style="fill:#fff"></path><path d="M224.23,297.09a2.46,2.46,0,0,1-.57-.07h0a.87.87,0,0,1-.62-.47c-.24-.51.06-1.1.4-1.79a3.15,3.15,0,0,0,.46-1.32c0-.17-.37-.25-.82-.34-.6-.13-1.42-.3-1.64-1.11s.39-1.37.84-1.78.58-.55.54-.72-.37-.24-.83-.34-1.41-.29-1.64-1.1.4-1.37.84-1.78.59-.55.54-.72-.37-.24-.83-.34-1.41-.29-1.63-1.1.39-1.38.84-1.79.58-.55.53-.71-.37-.25-.82-.35c-.6-.12-1.42-.29-1.64-1.1s.39-1.37.84-1.78.58-.55.53-.72-.37-.25-.82-.34c-.6-.13-1.42-.3-1.64-1.11s.39-1.37.84-1.78.58-.55.53-.72-.37-.25-.82-.34c-.6-.13-1.42-.3-1.64-1.11s.39-1.37.84-1.78.58-.55.53-.72-.37-.25-.82-.34c-.6-.13-1.42-.3-1.64-1.11s.39-1.37.84-1.78.58-.55.54-.72-.37-.24-.83-.33-1.41-.3-1.64-1.11.4-1.37.84-1.79.58-.55.54-.71-.37-.25-.83-.35-1.41-.29-1.64-1.1.4-1.37.84-1.79.58-.55.54-.72-.37-.24-.83-.34-1.41-.3-1.64-1.1.39-1.38.84-1.79.58-.55.54-.72-.38-.25-.83-.34-1.41-.3-1.64-1.11.39-1.38.84-1.79.58-.56.53-.72-.67-.65-1.08-.9c-.64-.42-1.2-.78-1.26-1.33a.86.86,0,0,1,.28-.73c1-1,2.07-.41,2.92,0a2.55,2.55,0,0,0,1.87.5c.68-.18.92-.62,1.21-1.19a2.91,2.91,0,0,1,1.87-1.72,2.85,2.85,0,0,1,2.48.53,1.85,1.85,0,0,0,1.64.4c.68-.19.9-.61,1.2-1.19a2.77,2.77,0,0,1,4.35-1.2,1.86,1.86,0,0,0,1.64.41c.68-.19.9-.61,1.21-1.19a2.76,2.76,0,0,1,4.35-1.2,1.87,1.87,0,0,0,1.64.4c.68-.18.9-.6,1.21-1.19a2.77,2.77,0,0,1,4.35-1.2,1.89,1.89,0,0,0,1.64.41c.68-.19.91-.63,1.21-1.19a2.76,2.76,0,0,1,4.35-1.2,1.87,1.87,0,0,0,1.64.4c.68-.19.91-.63,1.21-1.19a2.77,2.77,0,0,1,4.35-1.2,1.87,1.87,0,0,0,1.65.4c.68-.18.91-.63,1.2-1.19a2.78,2.78,0,0,1,4.36-1.2,1.93,1.93,0,0,0,1.65.41c.67-.19.91-.63,1.2-1.19a2.78,2.78,0,0,1,4.36-1.21,1.9,1.9,0,0,0,1.65.41c.67-.19.91-.63,1.2-1.19a2.88,2.88,0,0,1,1.87-1.72,2.85,2.85,0,0,1,2.48.52,1.88,1.88,0,0,0,1.65.4c.68-.19.91-.63,1.21-1.19a2.88,2.88,0,0,1,1.87-1.72,2.92,2.92,0,0,1,2.49.52,1.87,1.87,0,0,0,1.64.4c.68-.19.92-.63,1.21-1.19a2.79,2.79,0,0,1,4.37-1.2,1.88,1.88,0,0,0,1.65.4c.62-.17,1-.77,1.36-1.39.49-.83,1.11-1.86,2.48-1.54a.9.9,0,0,1,.62.47c.24.51-.06,1.1-.41,1.79a3.15,3.15,0,0,0-.46,1.32c.05.17.37.25.83.34s1.41.3,1.63,1.11-.39,1.37-.84,1.78-.58.55-.53.72.37.24.82.34,1.42.29,1.64,1.1-.39,1.37-.84,1.78-.58.55-.54.72.38.24.83.34c.6.12,1.42.3,1.64,1.1s-.39,1.38-.84,1.79-.58.55-.54.72.37.24.83.34,1.41.29,1.64,1.1-.4,1.37-.85,1.79-.57.55-.53.71.37.25.83.34,1.41.3,1.63,1.11-.39,1.37-.84,1.78-.58.55-.53.72.37.25.83.34,1.41.3,1.63,1.11-.39,1.37-.84,1.78-.58.55-.53.72.37.25.82.34,1.42.3,1.64,1.11-.39,1.37-.84,1.78-.58.55-.53.72.37.24.82.34c.6.12,1.42.29,1.64,1.1s-.39,1.37-.84,1.79-.58.55-.53.71.37.25.82.35,1.42.29,1.64,1.1-.39,1.37-.84,1.79-.58.55-.53.72.37.24.82.34c.6.12,1.42.3,1.64,1.11s-.39,1.37-.84,1.78-.58.55-.53.72.37.25.82.34,1.42.3,1.64,1.11-.39,1.38-.84,1.79-.58.56-.53.73.68.64,1.08.89c.65.42,1.21.78,1.26,1.34a.85.85,0,0,1-.28.72c-1,1-2.06.41-2.91,0a2.64,2.64,0,0,0-1.88-.5c-.68.18-.9.6-1.21,1.19a2.77,2.77,0,0,1-4.35,1.2,1.88,1.88,0,0,0-1.64-.41c-.67.19-.9.61-1.2,1.19a2.77,2.77,0,0,1-4.35,1.2,1.86,1.86,0,0,0-1.64-.41c-.67.19-.9.61-1.2,1.19a2.77,2.77,0,0,1-4.36,1.2,1.87,1.87,0,0,0-1.64-.4c-.67.19-.9.61-1.2,1.19a2.77,2.77,0,0,1-4.35,1.2,1.88,1.88,0,0,0-1.64-.41c-.68.19-.92.63-1.21,1.19a2.76,2.76,0,0,1-4.35,1.2,1.89,1.89,0,0,0-1.65-.4c-.68.19-.91.63-1.2,1.19a2.78,2.78,0,0,1-4.36,1.2,1.87,1.87,0,0,0-1.64-.4c-.68.18-.92.63-1.21,1.19a2.78,2.78,0,0,1-4.36,1.2,1.91,1.91,0,0,0-1.64-.41c-.68.19-.91.63-1.21,1.2a2.78,2.78,0,0,1-4.36,1.2,1.91,1.91,0,0,0-1.64-.41c-.68.19-.9.61-1.21,1.19a2.76,2.76,0,0,1-4.35,1.2,1.87,1.87,0,0,0-1.64-.4c-.68.19-.92.63-1.21,1.19a2.93,2.93,0,0,1-1.87,1.72,2.9,2.9,0,0,1-2.49-.52,1.9,1.9,0,0,0-1.65-.4c-.68.19-.91.63-1.21,1.19a2.91,2.91,0,0,1-1.87,1.72,3.22,3.22,0,0,1-2.58-.57c-.72-.42-1.13-.63-1.68-.3a3.84,3.84,0,0,0-1.38,1.58C225.65,296.34,225.23,297.09,224.23,297.09ZM223.9,296l-.11.52.12-.52Zm.16,0c.5.08.63-.13,1-.82a5,5,0,0,1,1.76-2,2.49,2.49,0,0,1,2.77.29,2.19,2.19,0,0,0,1.75.47c.69-.18.92-.63,1.21-1.19a2.93,2.93,0,0,1,1.87-1.72,2.9,2.9,0,0,1,2.49.52,1.89,1.89,0,0,0,1.65.4c.68-.19.91-.63,1.21-1.19a2.78,2.78,0,0,1,4.36-1.2,1.87,1.87,0,0,0,1.64.4c.68-.18.91-.63,1.21-1.19a2.77,2.77,0,0,1,4.35-1.2A1.89,1.89,0,0,0,253,288c.68-.19.91-.63,1.21-1.19a2.76,2.76,0,0,1,4.35-1.2,1.89,1.89,0,0,0,1.65.4c.67-.19.91-.63,1.2-1.19a2.78,2.78,0,0,1,4.36-1.2,1.87,1.87,0,0,0,1.64.4c.68-.19.91-.63,1.21-1.19a2.77,2.77,0,0,1,4.35-1.2,1.92,1.92,0,0,0,1.65.41c.67-.19.91-.63,1.2-1.19a2.78,2.78,0,0,1,4.36-1.21,1.9,1.9,0,0,0,1.64.41c.68-.19.9-.61,1.2-1.19a2.77,2.77,0,0,1,4.35-1.2,1.89,1.89,0,0,0,1.65.4c.67-.18.91-.63,1.2-1.19a2.93,2.93,0,0,1,1.87-1.72,2.86,2.86,0,0,1,2.48.53,1.85,1.85,0,0,0,1.64.4c.68-.19.9-.61,1.2-1.19a2.77,2.77,0,0,1,4.35-1.2,1.86,1.86,0,0,0,1.64.41c.68-.19.91-.63,1.21-1.19a2.87,2.87,0,0,1,1.86-1.72,3.54,3.54,0,0,1,2.67.58c.82.44,1.19.6,1.55.32a7.6,7.6,0,0,0-.7-.49c-.66-.42-1.35-.86-1.53-1.51-.22-.81.39-1.38.84-1.79s.58-.55.53-.72-.37-.25-.83-.35-1.41-.3-1.63-1.1.39-1.38.84-1.79.58-.55.53-.72-.37-.25-.83-.34-1.41-.3-1.63-1.11.39-1.38.83-1.79.59-.55.54-.72-.37-.24-.83-.34-1.41-.29-1.63-1.1.39-1.38.84-1.79.58-.55.53-.72-.37-.24-.83-.34-1.41-.29-1.63-1.1.39-1.37.84-1.79.58-.54.53-.71-.37-.25-.82-.34-1.42-.3-1.64-1.11.39-1.37.84-1.78.58-.55.53-.72-.37-.25-.82-.34c-.6-.13-1.42-.3-1.64-1.11s.39-1.37.84-1.78.58-.55.54-.72-.38-.25-.83-.34c-.6-.12-1.42-.3-1.64-1.1s.39-1.38.84-1.79.58-.55.54-.72-.38-.24-.83-.34c-.6-.12-1.42-.29-1.64-1.1s.39-1.37.84-1.79.58-.55.54-.71-.37-.25-.83-.34-1.41-.3-1.64-1.11.4-1.37.85-1.78.57-.55.53-.72-.37-.24-.83-.34-1.41-.29-1.63-1.1.39-1.37.84-1.78.58-.55.53-.72-.37-.24-.82-.34c-.6-.12-1.42-.29-1.64-1.1a3.16,3.16,0,0,1,.54-2.08,8,8,0,0,0,.34-.77c-.44,0-.69.27-1.17,1.07a3.56,3.56,0,0,1-2,1.87,2.92,2.92,0,0,1-2.49-.52,1.89,1.89,0,0,0-1.65-.4c-.68.19-.92.63-1.21,1.19a2.78,2.78,0,0,1-4.36,1.2,1.89,1.89,0,0,0-1.65-.4c-.68.19-.91.63-1.21,1.19a2.77,2.77,0,0,1-4.35,1.2,1.88,1.88,0,0,0-1.65-.4c-.68.18-.9.6-1.2,1.19a2.78,2.78,0,0,1-4.36,1.2,1.91,1.91,0,0,0-1.64-.41c-.68.19-.92.63-1.21,1.19a2.92,2.92,0,0,1-1.87,1.73,3,3,0,0,1-2.49-.52,1.85,1.85,0,0,0-1.64-.41c-.68.19-.91.63-1.21,1.19a2.77,2.77,0,0,1-4.35,1.2,1.89,1.89,0,0,0-1.65-.4c-.68.19-.91.63-1.21,1.19a2.77,2.77,0,0,1-4.35,1.2,1.87,1.87,0,0,0-1.64-.4c-.68.18-.91.63-1.21,1.19a2.77,2.77,0,0,1-4.35,1.2,1.89,1.89,0,0,0-1.65-.41c-.67.19-.89.61-1.2,1.19a2.77,2.77,0,0,1-4.35,1.2,1.87,1.87,0,0,0-1.64-.4c-.68.18-.91.63-1.21,1.19a2.77,2.77,0,0,1-4.35,1.2,1.88,1.88,0,0,0-1.64-.41c-.67.19-.89.61-1.2,1.19a2.77,2.77,0,0,1-4.35,1.2,1.86,1.86,0,0,0-1.64-.41c-.67.19-.91.63-1.2,1.19a2.92,2.92,0,0,1-1.87,1.73,3.63,3.63,0,0,1-2.67-.59c-.81-.44-1.18-.6-1.55-.32.16.14.48.34.7.49.67.42,1.36.86,1.53,1.51.23.81-.38,1.38-.83,1.79s-.58.55-.54.72.37.25.83.35,1.41.3,1.64,1.11-.39,1.37-.84,1.78-.58.55-.54.72.38.25.83.34c.6.13,1.42.3,1.64,1.11s-.39,1.38-.84,1.79-.58.55-.54.72.38.24.83.34c.6.12,1.42.29,1.64,1.1s-.39,1.38-.84,1.79-.58.55-.54.72.38.24.83.34c.6.12,1.42.29,1.64,1.1s-.39,1.37-.84,1.79-.58.55-.54.71.37.25.83.34,1.41.3,1.63,1.11-.39,1.37-.84,1.78-.57.55-.53.72.37.25.83.34,1.41.3,1.63,1.11-.39,1.37-.84,1.78-.58.55-.53.72.37.25.83.34,1.41.3,1.63,1.11-.39,1.37-.84,1.78-.58.55-.53.72.37.24.82.34c.6.12,1.42.29,1.64,1.1s-.39,1.37-.84,1.79-.58.55-.53.71.37.25.82.34c.6.13,1.42.3,1.64,1.11s-.39,1.37-.84,1.78-.58.55-.54.72.38.24.83.34c.6.12,1.42.29,1.64,1.1s-.39,1.37-.84,1.78-.58.55-.54.72.37.25.83.34,1.41.3,1.63,1.1a3.15,3.15,0,0,1-.53,2.08A5.73,5.73,0,0,0,224.06,296Z" style="fill:#FF725E"></path></g><path d="M243.45,260.33c-23.11-3.95-20.19,21.25,18.09,16.91C270,250.41,250.46,220.62,243.45,260.33Z" style="fill:#FF725E;fill-rule:evenodd"></path><path d="M275.2,253.47c14.05-10.27,20.44,7.43-6.43,17.21C254.29,255.65,257.41,229.39,275.2,253.47Z" style="fill:#FF725E;fill-rule:evenodd;opacity:0.4"></path><path d="M223.21,331.36c.06,5.17-1.61,9.41-1.11,10.4s23.86-.94,38.77-14.46S286.74,302,286.74,302s3.18-4.21,5.27-6.69a.63.63,0,0,0-.61-1c-10.42,2-22.13,8.21-34.22,17.67C244.41,322,241.46,323.9,223.21,331.36Z" style="fill:#FF725E"></path><path d="M223.21,331.36c.06,5.17-1.61,9.41-1.11,10.4s23.86-.94,38.77-14.46S286.74,302,286.74,302s3.18-4.21,5.27-6.69a.63.63,0,0,0-.61-1c-10.42,2-22.13,8.21-34.22,17.67C244.41,322,241.46,323.9,223.21,331.36Z" style="fill:#fff;opacity:0.2"></path><path d="M249.41,311c2-16.85-13.66-35.36-23.56-41.86-6.53-4.28-19.62,18.61-18.45,21.24C213.33,303.7,238.94,313.74,249.41,311Z" style="fill:#FF725E"></path><path d="M249.41,311c2-16.85-13.66-35.36-23.56-41.86-6.53-4.28-19.62,18.61-18.45,21.24C213.33,303.7,238.94,313.74,249.41,311Z" style="fill:#fff;opacity:0.30000000000000004"></path><path d="M219.85,310.49c-2.53,1.71,2.69,15.38,2.38,22.7a.73.73,0,0,0,.91.74c21.7-5,53.88-2.95,56.76-8.65,2.69-5.31,5.45-16.59,6.58-21.6a.61.61,0,0,0-.85-.68C269.63,310.13,235.27,311.67,219.85,310.49Z" style="fill:#FF725E"></path><path d="M219.85,310.49c-2.53,1.71,2.69,15.38,2.38,22.7a.73.73,0,0,0,.91.74c21.7-5,53.88-2.95,56.76-8.65,2.69-5.31,5.45-16.59,6.58-21.6a.61.61,0,0,0-.85-.68C269.63,310.13,235.27,311.67,219.85,310.49Z" style="fill:#fff;opacity:0.4"></path><path d="M219.86,310.48c-2.11,1.43,1.12,11,2.11,18.47,9.61-4.48,18.7-12.16,22.1-18.48A193.54,193.54,0,0,1,219.86,310.48Z" style="fill:#FF725E;opacity:0.2"></path><path d="M249.41,311c-10.94-17.43-39.77-23.06-54.07-21.68-9.43.91-4.42,32.5-1.31,34.1C209.73,331.51,241.57,321.55,249.41,311Z" style="fill:#FF725E"></path><path d="M249.41,311c-10.94-17.43-39.77-23.06-54.07-21.68-9.43.91-4.42,32.5-1.31,34.1C209.73,331.51,241.57,321.55,249.41,311Z" style="fill:#fff;opacity:0.4"></path><path d="M251.36,377.15c-11.26,0-21.44,1.74-28.68,5.49a14.88,14.88,0,0,0-4.17,23.1,41.65,41.65,0,0,0,15.33,10.42s0,0,0,0a4.06,4.06,0,0,0,3.84,4h27.38a4.05,4.05,0,0,0,3.84-4v0a41.47,41.47,0,0,0,15.33-10.44A14.86,14.86,0,0,0,280,382.64C272.79,378.88,262.62,377.15,251.36,377.15Z" style="fill:#fff;opacity:0.1"></path></g></svg>